JosefinSlab-BoldItalic_ik.ufo
<glyph name="percent" format="1">
  <advance width="735"/>
  <unicode hex="0025"/>
  <outline>
    <contour>
      <point x="125" y="0" type="line"/>
      <point x="491" y="508" type="line"/>
      <point x="603" y="508" type="line"/>
      <point x="238" y="0" type="line"/>
    </contour>
    <contour>
      <point x="526" y="-22" type="qcurve"/>
      <point x="500" y="-22"/>
      <point x="457" y="-3"/>
      <point x="424" y="29"/>
      <point x="406" y="73"/>
      <point x="406" y="99" type="qcurve"/>
      <point x="406" y="129"/>
      <point x="431" y="182"/>
      <point x="473" y="222"/>
      <point x="528" y="245"/>
      <point x="558" y="245" type="qcurve"/>
      <point x="583" y="245"/>
      <point x="627" y="226"/>
      <point x="660" y="194"/>
      <point x="678" y="150"/>
      <point x="678" y="125" type="qcurve"/>
      <point x="678" y="95"/>
      <point x="652" y="41"/>
      <point x="610" y="1"/>
      <point x="555" y="-22"/>
    </contour>
    <contour>
      <point x="172" y="262" type="qcurve"/>
      <point x="146" y="262"/>
      <point x="103" y="280"/>
      <point x="70" y="313"/>
      <point x="52" y="356"/>
      <point x="52" y="382" type="qcurve"/>
      <point x="52" y="412"/>
      <point x="77" y="465"/>
      <point x="119" y="505"/>
      <point x="174" y="528"/>
      <point x="204" y="528" type="qcurve"/>
      <point x="229" y="528"/>
      <point x="273" y="510"/>
      <point x="306" y="478"/>
      <point x="324" y="434"/>
      <point x="324" y="409" type="qcurve"/>
      <point x="324" y="379"/>
      <point x="298" y="325"/>
      <point x="256" y="285"/>
      <point x="201" y="262"/>
    </contour>
    <contour>
      <point x="511" y="107" type="qcurve"/>
      <point x="511" y="79"/>
      <point x="538" y="79" type="qcurve"/>
      <point x="555" y="79"/>
      <point x="574" y="100"/>
      <point x="574" y="119" type="qcurve"/>
      <point x="574" y="145"/>
      <point x="546" y="145" type="qcurve"/>
      <point x="530" y="145"/>
      <point x="511" y="125"/>
    </contour>
    <contour>
      <point x="157" y="390" type="qcurve"/>
      <point x="157" y="377"/>
      <point x="170" y="361"/>
      <point x="184" y="361" type="qcurve"/>
      <point x="200" y="361"/>
      <point x="219" y="383"/>
      <point x="219" y="401" type="qcurve"/>
      <point x="219" y="413"/>
      <point x="206" y="428"/>
      <point x="192" y="428" type="qcurve"/>
      <point x="176" y="428"/>
      <point x="157" y="408"/>
    </contour>
  </outline>
</glyph>
<glyph name="parenleft" format="1">
  <advance width="302"/>
  <unicode hex="0028"/>
  <outline>
    <contour>
      <point x="31" y="220" type="qcurve"/>
      <point x="31" y="310"/>
      <point x="72" y="471"/>
      <point x="138" y="609"/>
      <point x="220" y="719"/>
      <point x="261" y="757" type="qcurve"/>
      <point x="283" y="751"/>
      <point x="329" y="740"/>
      <point x="350" y="734" type="qcurve"/>
      <point x="312" y="696"/>
      <point x="235" y="591"/>
      <point x="174" y="462"/>
      <point x="135" y="309"/>
      <point x="135" y="224" type="qcurve"/>
      <point x="135" y="165"/>
      <point x="153" y="57"/>
      <point x="183" y="-37"/>
      <point x="222" y="-115"/>
      <point x="243" y="-143" type="qcurve"/>
      <point x="220" y="-150"/>
      <point x="171" y="-161"/>
      <point x="147" y="-167" type="qcurve"/>
      <point x="124" y="-138"/>
      <point x="82" y="-57"/>
      <point x="50" y="43"/>
      <point x="31" y="158"/>
    </contour>
  </outline>
</glyph>
<glyph name="plus" format="1">
  <advance width="442"/>
  <unicode hex="002B"/>
  <outline>
    <contour>
      <point x="140" y="52" type="line"/>
      <point x="157" y="184" type="line"/>
      <point x="26" y="184" type="line"/>
      <point x="38" y="284" type="line"/>
      <point x="169" y="284" type="line"/>
      <point x="185" y="417" type="line"/>
      <point x="290" y="417" type="line"/>
      <point x="273" y="284" type="line"/>
      <point x="404" y="284" type="line"/>
      <point x="392" y="184" type="line"/>
      <point x="261" y="184" type="line"/>
      <point x="245" y="52" type="line"/>
    </contour>
  </outline>
</glyph>
<glyph name="comma" format="1">
  <advance width="239"/>
  <unicode hex="002C"/>
  <outline>
    <contour>
      <point x="153" y="88" type="line"/>
      <point x="65" y="-70" type="line"/>
      <point x="-19" y="-70" type="line"/>
      <point x="-6" y="-44"/>
      <point x="12" y="-8"/>
      <point x="28" y="25"/>
      <point x="46" y="61"/>
      <point x="59" y="88" type="qcurve"/>
    </contour>
  </outline>
</glyph>
<glyph name="slash" format="1">
  <advance width="447"/>
  <unicode hex="002F"/>
  <outline>
    <contour>
      <point x="-7" y="-19" type="line"/>
      <point x="370" y="748" type="line"/>
      <point x="474" y="748" type="line"/>
      <point x="97" y="-19" type="line"/>
    </contour>
  </outline>
</glyph>
<glyph name="one" format="1">
  <advance width="308"/>
  <unicode hex="0031"/>
  <outline>
    <contour>
      <point x="85" y="561" type="line"/>
      <point x="97" y="660" type="line"/>
      <point x="258" y="660" type="line"/>
      <point x="177" y="0" type="line"/>
      <point x="73" y="0" type="line"/>
      <point x="142" y="561" type="line"/>
    </contour>
  </outline>
</glyph>
<glyph name="four" format="1">
  <advance width="535"/>
  <unicode hex="0034"/>
  <outline>
    <contour>
      <point x="465" y="99" type="line"/>
      <point x="453" y="0" type="line"/>
      <point x="170" y="0" type="line"/>
      <point x="183" y="99" type="line"/>
      <point x="268" y="99" type="line"/>
      <point x="276" y="168" type="line"/>
      <point x="-17" y="168" type="line"/>
      <point x="37" y="228"/>
      <point x="153" y="354"/>
      <point x="271" y="482"/>
      <point x="387" y="608"/>
      <point x="441" y="668" type="qcurve"/>
      <point x="392" y="267" type="line"/>
      <point x="491" y="267" type="line"/>
      <point x="478" y="168" type="line"/>
      <point x="380" y="168" type="line"/>
      <point x="371" y="99" type="line"/>
    </contour>
    <contour>
      <point x="304" y="390" type="line"/>
      <point x="295" y="380"/>
      <point x="265" y="347"/>
      <point x="234" y="311"/>
      <point x="204" y="277"/>
      <point x="195" y="267" type="qcurve"/>
      <point x="289" y="267" type="line"/>
    </contour>
  </outline>
</glyph>
<glyph name="six" format="1">
  <advance width="532"/>
  <unicode hex="0036"/>
  <outline>
    <contour>
      <point x="31" y="189" type="qcurve"/>
      <point x="31" y="246"/>
      <point x="71" y="348"/>
      <point x="136" y="436"/>
      <point x="218" y="512"/>
      <point x="303" y="576"/>
      <point x="384" y="628"/>
      <point x="414" y="648" type="qcurve"/>
      <point x="428" y="629"/>
      <point x="454" y="589"/>
      <point x="468" y="570" type="qcurve"/>
      <point x="443" y="555"/>
      <point x="378" y="514"/>
      <point x="315" y="474"/>
      <point x="261" y="436"/>
      <point x="248" y="424" type="qcurve"/>
      <point x="265" y="438"/>
      <point x="284" y="438" type="qcurve"/>
      <point x="327" y="438"/>
      <point x="400" y="408"/>
      <point x="454" y="354"/>
      <point x="485" y="281"/>
      <point x="485" y="239" type="qcurve"/>
      <point x="485" y="189"/>
      <point x="442" y="99"/>
      <point x="371" y="31"/>
      <point x="279" y="-8"/>
      <point x="230" y="-8" type="qcurve"/>
      <point x="196" y="-8"/>
      <point x="126" y="15"/>
      <point x="68" y="63"/>
      <point x="31" y="137"/>
    </contour>
    <contour>
      <point x="138" y="203" type="qcurve"/>
      <point x="138" y="157"/>
      <point x="196" y="92"/>
      <point x="242" y="92" type="qcurve"/>
      <point x="269" y="92"/>
      <point x="319" y="114"/>
      <point x="358" y="152"/>
      <point x="381" y="201"/>
      <point x="381" y="228" type="qcurve"/>
      <point x="381" y="251"/>
      <point x="364" y="292"/>
      <point x="335" y="322"/>
      <point x="295" y="339"/>
      <point x="272" y="339" type="qcurve"/>
      <point x="245" y="339"/>
      <point x="197" y="317"/>
      <point x="160" y="280"/>
      <point x="138" y="231"/>
    </contour>
  </outline>
</glyph>
<glyph name="seven" format="1">
  <advance width="465"/>
  <unicode hex="0037"/>
  <outline>
    <contour>
      <point x="61" y="508" type="line"/>
      <point x="67" y="559" type="line"/>
      <point x="80" y="660" type="line"/>
      <point x="502" y="660" type="line"/>
      <point x="413" y="486"/>
      <point x="249" y="165"/>
      <point x="166" y="0" type="qcurve"/>
      <point x="48" y="0" type="line"/>
      <point x="330" y="559" type="line"/>
      <point x="166" y="559" type="line"/>
      <point x="160" y="508" type="line"/>
    </contour>
  </outline>
</glyph>
<glyph name="semicolon" format="1">
  <advance width="252"/>
  <unicode hex="003B"/>
  <outline>
    <contour>
      <point x="155" y="88" type="line"/>
      <point x="67" y="-70" type="line"/>
      <point x="-17" y="-70" type="line"/>
      <point x="-4" y="-44"/>
      <point x="14" y="-8"/>
      <point x="30" y="25"/>
      <point x="48" y="61"/>
      <point x="61" y="88" type="qcurve"/>
    </contour>
    <contour>
      <point x="76" y="309" type="qcurve"/>
      <point x="76" y="324"/>
      <point x="88" y="349"/>
      <point x="108" y="367"/>
      <point x="132" y="378"/>
      <point x="144" y="378" type="qcurve"/>
      <point x="165" y="378"/>
      <point x="197" y="345"/>
      <point x="197" y="322" type="qcurve"/>
      <point x="197" y="291"/>
      <point x="153" y="254"/>
      <point x="129" y="254" type="qcurve"/>
      <point x="108" y="254"/>
      <point x="76" y="284"/>
    </contour>
  </outline>
</glyph>
<glyph name="less" format="1">
  <advance width="529"/>
  <unicode hex="003C"/>
  <outline>
    <contour>
      <point x="450" y="127" type="line"/>
      <point x="432" y="-14" type="line"/>
      <point x="328" y="50"/>
      <point x="124" y="177"/>
      <point x="20" y="242" type="qcurve"/>
      <point x="139" y="306"/>
      <point x="375" y="434"/>
      <point x="495" y="497" type="qcurve"/>
      <point x="477" y="357" type="line"/>
      <point x="264" y="242" type="line"/>
    </contour>
  </outline>
</glyph>
<glyph name="question" format="1">
  <advance width="477"/>
  <unicode hex="003F"/>
  <outline>
    <contour>
      <point x="156" y="550" type="qcurve"/>
      <point x="135" y="558"/>
      <point x="91" y="575"/>
      <point x="70" y="583" type="qcurve"/>
      <point x="79" y="603"/>
      <point x="110" y="659"/>
      <point x="162" y="709"/>
      <point x="241" y="744"/>
      <point x="298" y="744" type="qcurve"/>
      <point x="336" y="744"/>
      <point x="401" y="716"/>
      <point x="448" y="668"/>
      <point x="474" y="603"/>
      <point x="474" y="566" type="qcurve"/>
      <point x="474" y="502"/>
      <point x="408" y="407"/>
      <point x="351" y="368" type="qcurve"/>
      <point x="337" y="359"/>
      <point x="302" y="337"/>
      <point x="270" y="308"/>
      <point x="245" y="271"/>
      <point x="242" y="246" type="qcurve"/>
      <point x="232" y="166" type="line"/>
      <point x="129" y="166" type="line"/>
      <point x="141" y="265" type="line"/>
      <point x="145" y="298"/>
      <point x="170" y="340"/>
      <point x="206" y="371"/>
      <point x="252" y="398"/>
      <point x="277" y="415" type="qcurve"/>
      <point x="368" y="479"/>
      <point x="368" y="558" type="qcurve"/>
      <point x="368" y="595"/>
      <point x="324" y="644"/>
      <point x="285" y="644" type="qcurve"/>
      <point x="257" y="644"/>
      <point x="218" y="632"/>
      <point x="188" y="609"/>
      <point x="166" y="574"/>
    </contour>
    <contour>
      <point x="158" y="-6" type="qcurve"/>
      <point x="137" y="-6"/>
      <point x="103" y="23"/>
      <point x="103" y="49" type="qcurve"/>
      <point x="103" y="78"/>
      <point x="148" y="117"/>
      <point x="173" y="117" type="qcurve"/>
      <point x="193" y="117"/>
      <point x="225" y="84"/>
      <point x="225" y="61" type="qcurve"/>
      <point x="225" y="46"/>
      <point x="213" y="21"/>
      <point x="193" y="4"/>
      <point x="170" y="-6"/>
    </contour>
  </outline>
</glyph>
<glyph name="at" format="1">
  <advance width="954"/>
  <unicode hex="0040"/>
  <outline>
    <contour>
      <point x="225" y="186" type="qcurve"/>
      <point x="225" y="236"/>
      <point x="267" y="326"/>
      <point x="337" y="395"/>
      <point x="428" y="436"/>
      <point x="477" y="436" type="qcurve"/>
      <point x="507" y="436"/>
      <point x="553" y="421"/>
      <point x="585" y="401"/>
      <point x="604" y="380"/>
      <point x="606" y="374" type="qcurve"/>
      <point x="608" y="385"/>
      <point x="613" y="411"/>
      <point x="616" y="425" type="qcurve"/>
      <point x="708" y="425" type="line"/>
      <point x="667" y="90" type="line"/>
      <point x="689" y="90" type="line"/>
      <point x="702" y="90"/>
      <point x="743" y="109"/>
      <point x="782" y="154"/>
      <point x="809" y="229"/>
      <point x="809" y="285" type="qcurve"/>
      <point x="809" y="335"/>
      <point x="776" y="430"/>
      <point x="706" y="504"/>
      <point x="598" y="549"/>
      <point x="524" y="549" type="qcurve"/>
      <point x="419" y="549"/>
      <point x="266" y="474"/>
      <point x="167" y="361"/>
      <point x="120" y="229"/>
      <point x="120" y="171" type="qcurve"/>
      <point x="120" y="108"/>
      <point x="165" y="-3"/>
      <point x="246" y="-85"/>
      <point x="358" y="-133"/>
      <point x="424" y="-133" type="qcurve"/>
      <point x="482" y="-133"/>
      <point x="593" y="-98"/>
      <point x="642" y="-66" type="qcurve"/>
      <point x="655" y="-83"/>
      <point x="677" y="-115"/>
      <point x="689" y="-132" type="qcurve"/>
      <point x="660" y="-155"/>
      <point x="590" y="-189"/>
      <point x="516" y="-211"/>
      <point x="441" y="-222"/>
      <point x="407" y="-222" type="qcurve"/>
      <point x="326" y="-222"/>
      <point x="187" y="-162"/>
      <point x="85" y="-57"/>
      <point x="27" y="84"/>
      <point x="27" y="165" type="qcurve"/>
      <point x="27" y="221"/>
      <point x="58" y="334"/>
      <point x="117" y="440"/>
      <point x="204" y="532"/>
      <point x="318" y="600"/>
      <point x="457" y="639"/>
      <point x="538" y="639" type="qcurve"/>
      <point x="631" y="639"/>
      <point x="769" y="581"/>
      <point x="860" y="484"/>
      <point x="905" y="360"/>
      <point x="905" y="294" type="qcurve"/>
      <point x="905" y="228"/>
      <point x="869" y="120"/>
      <point x="808" y="42"/>
      <point x="725" y="0"/>
      <point x="678" y="0" type="qcurve"/>
      <point x="559" y="0" type="line"/>
      <point x="563" y="28" type="line"/>
      <point x="564" y="33"/>
      <point x="565" y="42"/>
      <point x="565" y="44" type="qcurve"/>
      <point x="560" y="39"/>
      <point x="538" y="20"/>
      <point x="502" y="2"/>
      <point x="454" y="-11"/>
      <point x="423" y="-11" type="qcurve"/>
      <point x="377" y="-11"/>
      <point x="304" y="21"/>
      <point x="253" y="75"/>
      <point x="225" y="146"/>
    </contour>
    <contour>
      <point x="322" y="199" type="qcurve"/>
      <point x="322" y="149"/>
      <point x="385" y="83"/>
      <point x="439" y="83" type="qcurve"/>
      <point x="470" y="83"/>
      <point x="525" y="106"/>
      <point x="564" y="145"/>
      <point x="587" y="198"/>
      <point x="587" y="228" type="qcurve"/>
      <point x="587" y="277"/>
      <point x="524" y="342"/>
      <point x="470" y="342" type="qcurve"/>
      <point x="439" y="342"/>
      <point x="385" y="320"/>
      <point x="345" y="282"/>
      <point x="322" y="229"/>
    </contour>
  </outline>
</glyph>
<glyph name="A" format="1">
  <advance width="751"/>
  <unicode hex="0041"/>
  <outline>
    <contour>
      <point x="73" y="107" type="line"/>
      <point x="434" y="762" type="line"/>
      <point x="634" y="107" type="line"/>
      <point x="724" y="107" type="line"/>
      <point x="711" y="0" type="line"/>
      <point x="428" y="0" type="line"/>
      <point x="441" y="107" type="line"/>
      <point x="514" y="107" type="line"/>
      <point x="489" y="192" type="line"/>
      <point x="238" y="192" type="line"/>
      <point x="192" y="107" type="line"/>
      <point x="265" y="107" type="line"/>
      <point x="252" y="0" type="line"/>
      <point x="-31" y="0" type="line"/>
      <point x="-18" y="107" type="line"/>
    </contour>
    <contour>
      <point x="293" y="295" type="line"/>
      <point x="459" y="295" type="line"/>
      <point x="408" y="469" type="line"/>
      <point x="407" y="476"/>
      <point x="406" y="483" type="qcurve"/>
      <point x="405" y="489"/>
      <point x="403" y="501"/>
      <point x="402" y="506" type="qcurve"/>
      <point x="400" y="501"/>
      <point x="395" y="489"/>
      <point x="393" y="483" type="qcurve"/>
      <point x="390" y="476"/>
      <point x="387" y="469" type="qcurve"/>
    </contour>
  </outline>
</glyph>
<glyph name="G" format="1">
  <advance width="693"/>
  <unicode hex="0047"/>
  <outline>
    <contour>
      <point x="549" y="541" type="line"/>
      <point x="557" y="606" type="line"/>
      <point x="533" y="614"/>
      <point x="481" y="621"/>
      <point x="459" y="621" type="qcurve"/>
      <point x="405" y="621"/>
      <point x="300" y="576"/>
      <point x="218" y="498"/>
      <point x="167" y="393"/>
      <point x="167" y="334" type="qcurve"/>
      <point x="167" y="287"/>
      <point x="199" y="205"/>
      <point x="258" y="144"/>
      <point x="342" y="108"/>
      <point x="393" y="108" type="qcurve"/>
      <point x="402" y="108"/>
      <point x="428" y="110"/>
      <point x="458" y="113"/>
      <point x="489" y="119"/>
      <point x="502" y="124" type="qcurve"/>
      <point x="518" y="248" type="line"/>
      <point x="382" y="248" type="line"/>
      <point x="394" y="354" type="line"/>
      <point x="643" y="354" type="line"/>
      <point x="606" y="44" type="line"/>
      <point x="561" y="19"/>
      <point x="437" y="-8"/>
      <point x="377" y="-8" type="qcurve"/>
      <point x="298" y="-8"/>
      <point x="173" y="39"/>
      <point x="87" y="122"/>
      <point x="42" y="238"/>
      <point x="42" y="307" type="qcurve"/>
      <point x="42" y="401"/>
      <point x="116" y="559"/>
      <point x="237" y="673"/>
      <point x="392" y="737"/>
      <point x="472" y="737" type="qcurve"/>
      <point x="500" y="737"/>
      <point x="560" y="729"/>
      <point x="616" y="715"/>
      <point x="664" y="695"/>
      <point x="681" y="684" type="qcurve"/>
      <point x="664" y="541" type="line"/>
    </contour>
  </outline>
</glyph>
<glyph name="H" format="1">
  <advance width="844"/>
  <unicode hex="0048"/>
  <outline>
    <contour>
      <point x="383" y="729" type="line"/>
      <point x="370" y="622" type="line"/>
      <point x="289" y="622" type="line"/>
      <point x="265" y="425" type="line"/>
      <point x="613" y="425" type="line"/>
      <point x="637" y="622" type="line"/>
      <point x="557" y="622" type="line"/>
      <point x="570" y="729" type="line"/>
      <point x="853" y="729" type="line"/>
      <point x="839" y="622" type="line"/>
      <point x="760" y="622" type="line"/>
      <point x="697" y="107" type="line"/>
      <point x="777" y="107" type="line"/>
      <point x="763" y="0" type="line"/>
      <point x="481" y="0" type="line"/>
      <point x="494" y="107" type="line"/>
      <point x="574" y="107" type="line"/>
      <point x="599" y="308" type="line"/>
      <point x="251" y="308" type="line"/>
      <point x="226" y="107" type="line"/>
      <point x="307" y="107" type="line"/>
      <point x="294" y="0" type="line"/>
      <point x="11" y="0" type="line"/>
      <point x="24" y="107" type="line"/>
      <point x="103" y="107" type="line"/>
      <point x="167" y="622" type="line"/>
      <point x="87" y="622" type="line"/>
      <point x="100" y="729" type="line"/>
    </contour>
  </outline>
</glyph>
<glyph name="I" format="1">
  <advance width="373"/>
  <unicode hex="0049"/>
  <outline>
    <contour>
      <point x="382" y="729" type="line"/>
      <point x="369" y="622" type="line"/>
      <point x="289" y="622" type="line"/>
      <point x="226" y="107" type="line"/>
      <point x="306" y="107" type="line"/>
      <point x="293" y="0" type="line"/>
      <point x="10" y="0" type="line"/>
      <point x="23" y="107" type="line"/>
      <point x="103" y="107" type="line"/>
      <point x="166" y="622" type="line"/>
      <point x="86" y="622" type="line"/>
      <point x="99" y="729" type="line"/>
    </contour>
  </outline>
</glyph>
<glyph name="J" format="1">
  <advance width="355"/>
  <unicode hex="004A"/>
  <outline>
    <contour>
      <point x="323" y="729" type="line"/>
      <point x="310" y="622" type="line"/>
      <point x="251" y="142" type="line"/>
      <point x="242" y="73"/>
      <point x="187" y="-34"/>
      <point x="103" y="-109"/>
      <point x="-5" y="-149"/>
      <point x="-66" y="-151" type="qcurve"/>
      <point x="-52" y="-35" type="line"/>
      <point x="18" y="-31"/>
      <point x="116" y="53"/>
      <point x="128" y="145" type="qcurve"/>
      <point x="186" y="622" type="line"/>
      <point x="76" y="622" type="line"/>
      <point x="89" y="729" type="line"/>
    </contour>
  </outline>
</glyph>
<glyph name="M" format="1">
  <advance width="990"/>
  <unicode hex="004D"/>
  <outline>
    <contour>
      <point x="1002" y="729" type="line"/>
      <point x="989" y="622" type="line"/>
      <point x="904" y="622" type="line"/>
      <point x="841" y="107" type="line"/>
      <point x="922" y="107" type="line"/>
      <point x="909" y="0" type="line"/>
      <point x="618" y="0" type="line"/>
      <point x="631" y="107" type="line"/>
      <point x="710" y="107" type="line"/>
      <point x="743" y="372" type="line"/>
      <point x="744" y="380"/>
      <point x="749" y="398"/>
      <point x="750" y="400" type="qcurve"/>
      <point x="466" y="53" type="line"/>
      <point x="462" y="59"/>
      <point x="430" y="113"/>
      <point x="385" y="187"/>
      <point x="335" y="272"/>
      <point x="291" y="345"/>
      <point x="261" y="396"/>
      <point x="259" y="400" type="qcurve"/>
      <point x="259" y="398"/>
      <point x="261" y="380"/>
      <point x="260" y="372" type="qcurve"/>
      <point x="227" y="107" type="line"/>
      <point x="308" y="107" type="line"/>
      <point x="294" y="0" type="line"/>
      <point x="12" y="0" type="line"/>
      <point x="25" y="107" type="line"/>
      <point x="104" y="107" type="line"/>
      <point x="168" y="622" type="line"/>
      <point x="82" y="622" type="line"/>
      <point x="95" y="729" type="line"/>
      <point x="203" y="729" type="line"/>
      <point x="208" y="719"/>
      <point x="252" y="646"/>
      <point x="313" y="545"/>
      <point x="382" y="431"/>
      <point x="443" y="331"/>
      <point x="486" y="259"/>
      <point x="491" y="251" type="qcurve"/>
      <point x="494" y="254"/>
      <point x="529" y="296"/>
      <point x="583" y="360"/>
      <point x="650" y="441"/>
      <point x="722" y="525"/>
      <point x="791" y="607"/>
      <point x="849" y="675"/>
      <point x="888" y="722"/>
      <point x="894" y="729" type="qcurve"/>
    </contour>
  </outline>
</glyph>
<glyph name="P" format="1">
  <advance width="626"/>
  <unicode hex="0050"/>
  <outline>
    <contour>
      <point x="305" y="107" type="line"/>
      <point x="292" y="0" type="line"/>
      <point x="9" y="0" type="line"/>
      <point x="22" y="107" type="line"/>
      <point x="105" y="107" type="line"/>
      <point x="169" y="622" type="line"/>
      <point x="85" y="622" type="line"/>
      <point x="98" y="729" type="line"/>
      <point x="388" y="729" type="line"/>
      <point x="499" y="729"/>
      <point x="628" y="620"/>
      <point x="628" y="523" type="qcurve"/>
      <point x="628" y="477"/>
      <point x="598" y="380"/>
      <point x="531" y="301"/>
      <point x="424" y="251"/>
      <point x="348" y="251" type="qcurve"/>
      <point x="246" y="251" type="line"/>
      <point x="228" y="107" type="line"/>
    </contour>
    <contour>
      <point x="260" y="366" type="line"/>
      <point x="358" y="366" type="line"/>
      <point x="399" y="366"/>
      <point x="455" y="396"/>
      <point x="489" y="439"/>
      <point x="503" y="488"/>
      <point x="503" y="506" type="qcurve"/>
      <point x="503" y="522"/>
      <point x="492" y="560"/>
      <point x="466" y="593"/>
      <point x="422" y="614"/>
      <point x="389" y="614" type="qcurve"/>
      <point x="290" y="614" type="line"/>
    </contour>
  </outline>
</glyph>
<glyph name="R" format="1">
  <advance width="701"/>
  <unicode hex="0052"/>
  <outline>
    <contour>
      <point x="679" y="107" type="line"/>
      <point x="666" y="0" type="line"/>
      <point x="489" y="0" type="line"/>
      <point x="453" y="71"/>
      <point x="388" y="195"/>
      <point x="358" y="251" type="qcurve"/>
      <point x="348" y="251" type="line"/>
      <point x="246" y="251" type="line"/>
      <point x="228" y="107" type="line"/>
      <point x="305" y="107" type="line"/>
      <point x="292" y="0" type="line"/>
      <point x="9" y="0" type="line"/>
      <point x="22" y="107" type="line"/>
      <point x="105" y="107" type="line"/>
      <point x="169" y="622" type="line"/>
      <point x="85" y="622" type="line"/>
      <point x="98" y="729" type="line"/>
      <point x="388" y="729" type="line"/>
      <point x="499" y="729"/>
      <point x="628" y="620"/>
      <point x="628" y="523" type="qcurve"/>
      <point x="628" y="490"/>
      <point x="613" y="421"/>
      <point x="580" y="357"/>
      <point x="528" y="302"/>
      <point x="492" y="283" type="qcurve"/>
      <point x="515" y="237"/>
      <point x="557" y="152"/>
      <point x="580" y="107" type="qcurve"/>
    </contour>
    <contour>
      <point x="260" y="366" type="line"/>
      <point x="358" y="366" type="line"/>
      <point x="399" y="366"/>
      <point x="455" y="395"/>
      <point x="489" y="438"/>
      <point x="503" y="486"/>
      <point x="503" y="506" type="qcurve"/>
      <point x="503" y="523"/>
      <point x="492" y="561"/>
      <point x="466" y="593"/>
      <point x="422" y="614"/>
      <point x="389" y="614" type="qcurve"/>
      <point x="290" y="614" type="line"/>
    </contour>
  </outline>
</glyph>
<glyph name="S" format="1">
  <advance width="580"/>
  <unicode hex="0053"/>
  <outline>
    <contour>
      <point x="17" y="60" type="line"/>
      <point x="17" y="61" type="line"/>
      <point x="34" y="198" type="line"/>
      <point x="149" y="198" type="line"/>
      <point x="141" y="132" type="line"/>
      <point x="165" y="121"/>
      <point x="212" y="112"/>
      <point x="234" y="112" type="qcurve"/>
      <point x="254" y="112"/>
      <point x="314" y="121"/>
      <point x="369" y="145"/>
      <point x="409" y="186"/>
      <point x="409" y="218" type="qcurve"/>
      <point x="409" y="250"/>
      <point x="361" y="291"/>
      <point x="290" y="325"/>
      <point x="206" y="356"/>
      <point x="135" y="400"/>
      <point x="87" y="462"/>
      <point x="87" y="510" type="qcurve"/>
      <point x="87" y="550"/>
      <point x="122" y="629"/>
      <point x="190" y="693"/>
      <point x="291" y="733"/>
      <point x="358" y="733" type="qcurve"/>
      <point x="396" y="733"/>
      <point x="467" y="720"/>
      <point x="523" y="704"/>
      <point x="560" y="689"/>
      <point x="563" y="688" type="qcurve"/>
      <point x="545" y="541" type="line"/>
      <point x="430" y="541" type="line"/>
      <point x="438" y="609" type="line"/>
      <point x="393" y="621"/>
      <point x="352" y="621" type="qcurve"/>
      <point x="288" y="621"/>
      <point x="209" y="569"/>
      <point x="209" y="529" type="qcurve"/>
      <point x="209" y="500"/>
      <point x="257" y="463"/>
      <point x="328" y="433"/>
      <point x="411" y="402"/>
      <point x="482" y="354"/>
      <point x="530" y="282"/>
      <point x="530" y="227" type="qcurve"/>
      <point x="530" y="176"/>
      <point x="494" y="90"/>
      <point x="420" y="27"/>
      <point x="305" y="-8"/>
      <point x="227" y="-8" type="qcurve"/>
      <point x="183" y="-8"/>
      <point x="118" y="4"/>
      <point x="68" y="23"/>
      <point x="32" y="47"/>
      <point x="18" y="60" type="qcurve"/>
    </contour>
  </outline>
</glyph>
<glyph name="Z" format="1">
  <advance width="657"/>
  <unicode hex="005A"/>
  <outline>
    <contour>
      <point x="243" y="729" type="qcurve"/>
      <point x="665" y="729" type="line"/>
      <point x="195" y="118" type="line"/>
      <point x="490" y="118" type="line"/>
      <point x="500" y="198" type="line"/>
      <point x="614" y="198" type="line"/>
      <point x="604" y="118" type="line"/>
      <point x="605" y="118" type="line"/>
      <point x="596" y="47" type="line"/>
      <point x="590" y="0" type="line"/>
      <point x="-34" y="0" type="line"/>
      <point x="-27" y="9"/>
      <point x="20" y="69"/>
      <point x="86" y="156"/>
      <point x="167" y="263"/>
      <point x="250" y="373"/>
      <point x="331" y="479"/>
      <point x="397" y="565"/>
      <point x="443" y="625"/>
      <point x="451" y="633" type="qcurve"/>
      <point x="180" y="633" type="line"/>
      <point x="164" y="633"/>
      <point x="133" y="642"/>
      <point x="110" y="660"/>
      <point x="97" y="685"/>
      <point x="99" y="700" type="qcurve"/>
      <point x="107" y="765" type="line"/>
      <point x="216" y="765" type="line"/>
      <point x="215" y="752" type="line"/>
      <point x="212" y="732"/>
      <point x="226" y="729"/>
    </contour>
  </outline>
</glyph>
<glyph name="bracketleft" format="1">
  <advance width="318"/>
  <unicode hex="005B"/>
  <outline>
    <contour>
      <point x="31" y="-151" type="line"/>
      <point x="142" y="758" type="line"/>
      <point x="345" y="758" type="line"/>
      <point x="333" y="658" type="line"/>
      <point x="232" y="658" type="line"/>
      <point x="146" y="-52" type="line"/>
      <point x="246" y="-52" type="line"/>
      <point x="234" y="-151" type="line"/>
    </contour>
  </outline>
</glyph>
<glyph name="bracketright" format="1">
  <advance width="318"/>
  <unicode hex="005D"/>
  <outline>
    <contour>
      <point x="292" y="758" type="line"/>
      <point x="180" y="-151" type="line"/>
      <point x="-23" y="-151" type="line"/>
      <point x="-10" y="-52" type="line"/>
      <point x="90" y="-52" type="line"/>
      <point x="177" y="658" type="line"/>
      <point x="76" y="658" type="line"/>
      <point x="89" y="758" type="line"/>
    </contour>
  </outline>
</glyph>
<glyph name="underscore" format="1">
  <advance width="518"/>
  <unicode hex="005F"/>
  <outline>
    <contour>
      <point x="428" y="0" type="line"/>
      <point x="22" y="0" type="line"/>
      <point x="34" y="100" type="line"/>
      <point x="440" y="100" type="line"/>
    </contour>
  </outline>
</glyph>
<glyph name="grave" format="1">
  <advance width="204"/>
  <unicode hex="0060"/>
  <outline>
    <contour>
      <point x="119" y="622" type="line"/>
      <point x="138" y="588"/>
      <point x="174" y="520"/>
      <point x="193" y="487" type="qcurve"/>
      <point x="122" y="487" type="line"/>
      <point x="96" y="520"/>
      <point x="41" y="588"/>
      <point x="15" y="622" type="qcurve"/>
    </contour>
  </outline>
</glyph>
<glyph name="b" format="1">
  <advance width="570"/>
  <unicode hex="0062"/>
  <outline>
    <contour>
      <point x="134" y="698" type="line"/>
      <point x="78" y="698" type="line"/>
      <point x="88" y="781" type="line"/>
      <point x="240" y="781" type="line"/>
      <point x="190" y="371" type="line"/>
      <point x="199" y="381"/>
      <point x="227" y="404"/>
      <point x="264" y="423"/>
      <point x="311" y="436"/>
      <point x="339" y="436" type="qcurve"/>
      <point x="387" y="436"/>
      <point x="464" y="405"/>
      <point x="514" y="346"/>
      <point x="535" y="263"/>
      <point x="529" y="211" type="qcurve"/>
      <point x="523" y="163"/>
      <point x="480" y="82"/>
      <point x="414" y="22"/>
      <point x="328" y="-11"/>
      <point x="279" y="-11" type="qcurve"/>
      <point x="231" y="-11"/>
      <point x="160" y="26"/>
      <point x="149" y="47" type="qcurve"/>
      <point x="148" y="43"/>
      <point x="149" y="36"/>
      <point x="148" y="31" type="qcurve"/>
      <point x="144" y="0" type="line"/>
      <point x="-8" y="0" type="line"/>
      <point x="2" y="83" type="line"/>
      <point x="58" y="83" type="line"/>
      <point x="60" y="99" type="line"/>
    </contour>
    <contour>
      <point x="425" y="213" type="qcurve"/>
      <point x="432" y="269"/>
      <point x="376" y="342"/>
      <point x="317" y="342" type="qcurve"/>
      <point x="286" y="342"/>
      <point x="232" y="320"/>
      <point x="192" y="282"/>
      <point x="169" y="229"/>
      <point x="169" y="199" type="qcurve"/>
      <point x="169" y="149"/>
      <point x="232" y="83"/>
      <point x="286" y="83" type="qcurve"/>
      <point x="315" y="83"/>
      <point x="363" y="103"/>
      <point x="399" y="139"/>
      <point x="422" y="186"/>
    </contour>
  </outline>
</glyph>
<glyph name="c" format="1">
  <advance width="430"/>
  <unicode hex="0063"/>
  <outline>
    <contour>
      <point x="415" y="388" type="qcurve"/>
      <point x="405" y="296" type="line"/>
      <point x="323" y="296" type="line"/>
      <point x="327" y="328" type="line"/>
      <point x="299" y="342"/>
      <point x="266" y="342" type="qcurve"/>
      <point x="234" y="342"/>
      <point x="179" y="320"/>
      <point x="139" y="282"/>
      <point x="117" y="229"/>
      <point x="117" y="199" type="qcurve"/>
      <point x="117" y="149"/>
      <point x="180" y="83"/>
      <point x="234" y="83" type="qcurve"/>
      <point x="259" y="83"/>
      <point x="311" y="97"/>
      <point x="329" y="111" type="qcurve"/>
      <point x="342" y="92"/>
      <point x="365" y="57"/>
      <point x="378" y="39" type="qcurve"/>
      <point x="345" y="16"/>
      <point x="263" y="-11"/>
      <point x="219" y="-11" type="qcurve"/>
      <point x="172" y="-11"/>
      <point x="99" y="21"/>
      <point x="48" y="75"/>
      <point x="21" y="146"/>
      <point x="21" y="186" type="qcurve"/>
      <point x="21" y="238"/>
      <point x="63" y="330"/>
      <point x="133" y="397"/>
      <point x="226" y="436"/>
      <point x="277" y="436" type="qcurve"/>
      <point x="319" y="436"/>
      <point x="389" y="411"/>
    </contour>
  </outline>
</glyph>
<glyph name="i" format="1">
  <advance width="280"/>
  <unicode hex="0069"/>
  <outline>
    <contour>
      <point x="168" y="96" type="line"/>
      <point x="166" y="87" type="line"/>
      <point x="165" y="83" type="line"/>
      <point x="230" y="83" type="line"/>
      <point x="220" y="0" type="line"/>
      <point x="4" y="0" type="line"/>
      <point x="14" y="83" type="line"/>
      <point x="70" y="83" type="line"/>
      <point x="72" y="99" type="line"/>
      <point x="102" y="342" type="line"/>
      <point x="45" y="342" type="line"/>
      <point x="56" y="425" type="line"/>
      <point x="208" y="425" type="line"/>
      <point x="167" y="96" type="line"/>
    </contour>
    <contour>
      <point x="121" y="584" type="qcurve"/>
      <point x="121" y="598"/>
      <point x="133" y="622"/>
      <point x="153" y="640"/>
      <point x="177" y="650"/>
      <point x="189" y="650" type="qcurve"/>
      <point x="209" y="650"/>
      <point x="241" y="619"/>
      <point x="241" y="596" type="qcurve"/>
      <point x="241" y="581"/>
      <point x="229" y="557"/>
      <point x="210" y="539"/>
      <point x="186" y="530"/>
      <point x="175" y="530" type="qcurve"/>
      <point x="154" y="530"/>
      <point x="121" y="559"/>
    </contour>
  </outline>
</glyph>
<glyph name="j" format="1">
  <advance width="248"/>
  <unicode hex="006A"/>
  <outline>
    <contour>
      <point x="189" y="342" type="line"/>
      <point x="188" y="342" type="line"/>
      <point x="146" y="0" type="line"/>
      <point x="138" y="-69"/>
      <point x="77" y="-171"/>
      <point x="31" y="-205" type="qcurve"/>
      <point x="16" y="-186"/>
      <point x="-13" y="-152"/>
      <point x="-27" y="-133" type="qcurve"/>
      <point x="5" y="-110"/>
      <point x="46" y="-43"/>
      <point x="51" y="4" type="qcurve"/>
      <point x="92" y="342" type="line"/>
      <point x="37" y="342" type="line"/>
      <point x="47" y="425" type="line"/>
      <point x="199" y="425" type="line"/>
    </contour>
    <contour>
      <point x="115" y="584" type="qcurve"/>
      <point x="115" y="598"/>
      <point x="127" y="622"/>
      <point x="147" y="640"/>
      <point x="171" y="650"/>
      <point x="183" y="650" type="qcurve"/>
      <point x="203" y="650"/>
      <point x="234" y="619"/>
      <point x="234" y="596" type="qcurve"/>
      <point x="234" y="581"/>
      <point x="222" y="557"/>
      <point x="203" y="539"/>
      <point x="180" y="530"/>
      <point x="168" y="530" type="qcurve"/>
      <point x="147" y="530"/>
      <point x="115" y="559"/>
    </contour>
  </outline>
</glyph>
<glyph name="p" format="1">
  <advance width="573"/>
  <unicode hex="0070"/>
  <outline>
    <contour>
      <point x="91" y="342" type="line"/>
      <point x="36" y="342" type="line"/>
      <point x="45" y="425" type="line"/>
      <point x="194" y="425" type="line"/>
      <point x="192" y="411"/>
      <point x="194" y="383"/>
      <point x="192" y="371" type="qcurve"/>
      <point x="201" y="381"/>
      <point x="229" y="404"/>
      <point x="266" y="423"/>
      <point x="313" y="436"/>
      <point x="341" y="436" type="qcurve"/>
      <point x="429" y="436"/>
      <point x="533" y="333"/>
      <point x="533" y="242" type="qcurve"/>
      <point x="533" y="187"/>
      <point x="495" y="94"/>
      <point x="427" y="27"/>
      <point x="335" y="-11"/>
      <point x="281" y="-11" type="qcurve"/>
      <point x="232" y="-11"/>
      <point x="162" y="26"/>
      <point x="151" y="47" type="qcurve"/>
      <point x="149" y="31" type="line"/>
      <point x="132" y="-108" type="line"/>
      <point x="130" y="-121" type="line"/>
      <point x="194" y="-121" type="line"/>
      <point x="184" y="-204" type="line"/>
      <point x="-31" y="-204" type="line"/>
      <point x="-21" y="-121" type="line"/>
      <point x="35" y="-121" type="line"/>
      <point x="37" y="-106" type="line"/>
    </contour>
    <contour>
      <point x="428" y="230" type="qcurve"/>
      <point x="428" y="279"/>
      <point x="372" y="342"/>
      <point x="320" y="342" type="qcurve"/>
      <point x="288" y="342"/>
      <point x="234" y="320"/>
      <point x="194" y="282"/>
      <point x="171" y="229"/>
      <point x="171" y="199" type="qcurve"/>
      <point x="171" y="149"/>
      <point x="234" y="83"/>
      <point x="287" y="83" type="qcurve"/>
      <point x="319" y="83"/>
      <point x="371" y="106"/>
      <point x="408" y="147"/>
      <point x="428" y="200"/>
    </contour>
  </outline>
</glyph>
<glyph name="s" format="1">
  <advance width="371"/>
  <unicode hex="0073"/>
  <outline>
    <contour>
      <point x="102" y="136" type="line"/>
      <point x="97" y="94" type="line"/>
      <point x="107" y="90"/>
      <point x="133" y="84"/>
      <point x="150" y="84" type="qcurve"/>
      <point x="182" y="84"/>
      <point x="219" y="109"/>
      <point x="219" y="128" type="qcurve"/>
      <point x="219" y="141"/>
      <point x="194" y="159"/>
      <point x="158" y="175"/>
      <point x="114" y="193"/>
      <point x="78" y="221"/>
      <point x="53" y="262"/>
      <point x="53" y="294" type="qcurve"/>
      <point x="53" y="333"/>
      <point x="82" y="387"/>
      <point x="128" y="420"/>
      <point x="185" y="435"/>
      <point x="213" y="435" type="qcurve"/>
      <point x="226" y="435"/>
      <point x="260" y="431"/>
      <point x="293" y="422"/>
      <point x="322" y="407"/>
      <point x="331" y="395" type="qcurve"/>
      <point x="319" y="296" type="line"/>
      <point x="237" y="296" type="line"/>
      <point x="242" y="338" type="line"/>
      <point x="234" y="340"/>
      <point x="215" y="342"/>
      <point x="204" y="342" type="qcurve"/>
      <point x="184" y="342"/>
      <point x="151" y="328"/>
      <point x="151" y="305" type="qcurve"/>
      <point x="151" y="290"/>
      <point x="175" y="269"/>
      <point x="212" y="251"/>
      <point x="254" y="232"/>
      <point x="291" y="204"/>
      <point x="315" y="165"/>
      <point x="315" y="136" type="qcurve"/>
      <point x="315" y="105"/>
      <point x="289" y="52"/>
      <point x="242" y="13"/>
      <point x="177" y="-9"/>
      <point x="137" y="-9" type="qcurve"/>
      <point x="120" y="-9"/>
      <point x="83" y="-4"/>
      <point x="48" y="6"/>
      <point x="17" y="24"/>
      <point x="8" y="37" type="qcurve"/>
      <point x="20" y="136" type="line"/>
    </contour>
  </outline>
</glyph>
<glyph name="t" format="1">
  <advance width="320"/>
  <unicode hex="0074"/>
  <outline>
    <contour>
      <point x="130" y="611" type="line"/>
      <point x="226" y="611" type="line"/>
      <point x="203" y="425" type="line"/>
      <point x="314" y="425" type="line"/>
      <point x="303" y="339" type="line"/>
      <point x="193" y="339" type="line"/>
      <point x="161" y="83" type="line"/>
      <point x="259" y="83" type="line"/>
      <point x="249" y="0" type="line"/>
      <point x="56" y="0" type="line"/>
      <point x="68" y="99" type="line"/>
      <point x="97" y="339" type="line"/>
      <point x="25" y="339" type="line"/>
      <point x="36" y="425" type="line"/>
      <point x="108" y="425" type="line"/>
    </contour>
  </outline>
</glyph>
<glyph name="v" format="1">
  <advance width="500"/>
  <unicode hex="0076"/>
  <outline>
    <contour>
      <point x="26" y="425" type="line"/>
      <point x="215" y="425" type="line"/>
      <point x="205" y="343" type="line"/>
      <point x="177" y="343" type="line"/>
      <point x="210" y="256"/>
      <point x="236" y="169"/>
      <point x="235" y="154" type="qcurve"/>
      <point x="238" y="169"/>
      <point x="285" y="256"/>
      <point x="338" y="343" type="qcurve"/>
      <point x="311" y="343" type="line"/>
      <point x="321" y="425" type="line"/>
      <point x="507" y="425" type="line"/>
      <point x="497" y="343" type="line"/>
      <point x="442" y="343" type="line"/>
      <point x="414" y="298"/>
      <point x="353" y="200"/>
      <point x="293" y="103"/>
      <point x="236" y="12"/>
      <point x="212" y="-25" type="qcurve"/>
      <point x="196" y="12"/>
      <point x="162" y="103"/>
      <point x="126" y="200"/>
      <point x="90" y="298"/>
      <point x="74" y="343" type="qcurve"/>
      <point x="16" y="343" type="line"/>
    </contour>
  </outline>
</glyph>
<glyph name="y" format="1">
  <advance width="557"/>
  <unicode hex="0079"/>
  <outline>
    <contour>
      <point x="34" y="-121" type="line"/>
      <point x="110" y="-121" type="line"/>
      <point x="133" y="-83"/>
      <point x="179" y="-3"/>
      <point x="201" y="32" type="qcurve"/>
      <point x="190" y="59"/>
      <point x="162" y="134"/>
      <point x="132" y="218"/>
      <point x="100" y="304"/>
      <point x="86" y="343" type="qcurve"/>
      <point x="17" y="343" type="line"/>
      <point x="27" y="425" type="line"/>
      <point x="255" y="425" type="line"/>
      <point x="245" y="343" type="line"/>
      <point x="190" y="343" type="line"/>
      <point x="225" y="248"/>
      <point x="261" y="135"/>
      <point x="260" y="121" type="qcurve"/>
      <point x="263" y="135"/>
      <point x="325" y="249"/>
      <point x="383" y="343" type="qcurve"/>
      <point x="329" y="343" type="line"/>
      <point x="339" y="425" type="line"/>
      <point x="565" y="425" type="line"/>
      <point x="555" y="343" type="line"/>
      <point x="488" y="343" type="line"/>
      <point x="205" y="-121" type="line"/>
      <point x="277" y="-121" type="line"/>
      <point x="267" y="-204" type="line"/>
      <point x="24" y="-204" type="line"/>
    </contour>
  </outline>
</glyph>
<glyph name="bar" format="1">
  <advance width="272"/>
  <unicode hex="007C"/>
  <outline>
    <contour>
      <point x="20" y="-236" type="line"/>
      <point x="137" y="711" type="line"/>
      <point x="240" y="711" type="line"/>
      <point x="124" y="-236" type="line"/>
    </contour>
  </outline>
</glyph>
<glyph name="braceright" format="1">
  <advance width="338"/>
  <unicode hex="007D"/>
  <outline>
    <contour>
      <point x="320" y="349" type="qcurve"/>
      <point x="308" y="252" type="line"/>
      <point x="285" y="251"/>
      <point x="251" y="227"/>
      <point x="227" y="191"/>
      <point x="214" y="146"/>
      <point x="211" y="124" type="qcurve"/>
      <point x="192" y="-32" type="line"/>
      <point x="186" y="-79"/>
      <point x="160" y="-129"/>
      <point x="123" y="-150"/>
      <point x="76" y="-152"/>
      <point x="49" y="-152" type="qcurve"/>
      <point x="-22" y="-152" type="line"/>
      <point x="-9" y="-52" type="line"/>
      <point x="32" y="-52" type="line"/>
      <point x="48" y="-52"/>
      <point x="69" y="-45"/>
      <point x="83" y="-23"/>
      <point x="93" y="18"/>
      <point x="97" y="51" type="qcurve"/>
      <point x="111" y="167" type="line"/>
      <point x="115" y="197"/>
      <point x="134" y="242"/>
      <point x="158" y="275"/>
      <point x="184" y="296"/>
      <point x="194" y="302" type="qcurve"/>
      <point x="186" y="309"/>
      <point x="165" y="330"/>
      <point x="149" y="362"/>
      <point x="140" y="403"/>
      <point x="143" y="430" type="qcurve"/>
      <point x="159" y="556" type="line"/>
      <point x="163" y="589"/>
      <point x="163" y="630"/>
      <point x="154" y="651"/>
      <point x="134" y="658"/>
      <point x="119" y="658" type="qcurve"/>
      <point x="78" y="658" type="line"/>
      <point x="90" y="758" type="line"/>
      <point x="161" y="758" type="line"/>
      <point x="186" y="758"/>
      <point x="233" y="756"/>
      <point x="265" y="735"/>
      <point x="280" y="686"/>
      <point x="274" y="638" type="qcurve"/>
      <point x="254" y="477" type="line"/>
      <point x="252" y="456"/>
      <point x="255" y="411"/>
      <point x="270" y="374"/>
      <point x="297" y="350"/>
    </contour>
  </outline>
</glyph>
<glyph name="brokenbar" format="1">
  <advance width="230"/>
  <unicode hex="00A6"/>
  <outline>
    <contour>
      <point x="103" y="-237" type="line"/>
      <point x="-1" y="-237" type="line"/>
      <point x="43" y="119" type="line"/>
      <point x="147" y="119" type="line"/>
    </contour>
    <contour>
      <point x="176" y="356" type="line"/>
      <point x="72" y="356" type="line"/>
      <point x="116" y="711" type="line"/>
      <point x="219" y="711" type="line"/>
    </contour>
  </outline>
</glyph>
<glyph name="section" format="1">
  <advance width="388"/>
  <unicode hex="00A7"/>
  <outline>
    <contour>
      <point x="126" y="149" type="qcurve"/>
      <point x="107" y="186"/>
      <point x="82" y="236"/>
      <point x="68" y="267"/>
      <point x="62" y="280"/>
      <point x="61" y="282" type="qcurve"/>
      <point x="52" y="307"/>
      <point x="51" y="362"/>
      <point x="66" y="417"/>
      <point x="96" y="466"/>
      <point x="119" y="485" type="qcurve"/>
      <point x="133" y="494"/>
      <point x="163" y="512"/>
      <point x="184" y="520" type="qcurve"/>
      <point x="176" y="534"/>
      <point x="164" y="563"/>
      <point x="157" y="579" type="qcurve"/>
      <point x="140" y="614"/>
      <point x="135" y="665"/>
      <point x="151" y="703"/>
      <point x="183" y="729"/>
      <point x="204" y="739" type="qcurve"/>
      <point x="246" y="759"/>
      <point x="286" y="783" type="qcurve"/>
      <point x="296" y="761"/>
      <point x="316" y="717"/>
      <point x="327" y="696" type="qcurve"/>
      <point x="317" y="691"/>
      <point x="297" y="681"/>
      <point x="287" y="675" type="qcurve"/>
      <point x="275" y="668"/>
      <point x="259" y="655"/>
      <point x="254" y="638"/>
      <point x="261" y="612"/>
      <point x="270" y="593" type="qcurve"/>
      <point x="271" y="593" type="line"/>
      <point x="343" y="442" type="line"/>
      <point x="355" y="418"/>
      <point x="358" y="363"/>
      <point x="342" y="309"/>
      <point x="309" y="260"/>
      <point x="285" y="241" type="qcurve"/>
      <point x="272" y="232"/>
      <point x="241" y="212"/>
      <point x="220" y="204" type="qcurve"/>
      <point x="228" y="190"/>
      <point x="241" y="159"/>
      <point x="249" y="144" type="qcurve"/>
      <point x="266" y="109"/>
      <point x="271" y="57"/>
      <point x="256" y="18"/>
      <point x="224" y="-9"/>
      <point x="203" y="-19" type="qcurve"/>
      <point x="181" y="-30"/>
      <point x="143" y="-49"/>
      <point x="123" y="-61" type="qcurve"/>
      <point x="112" y="-40"/>
      <point x="92" y="3"/>
      <point x="82" y="25" type="qcurve"/>
      <point x="92" y="31"/>
      <point x="110" y="41"/>
      <point x="121" y="47" type="qcurve"/>
      <point x="134" y="54"/>
      <point x="148" y="68"/>
      <point x="150" y="90"/>
      <point x="139" y="123"/>
    </contour>
    <contour>
      <point x="146" y="378" type="qcurve"/>
      <point x="136" y="352"/>
      <point x="166" y="311"/>
      <point x="192" y="309" type="qcurve"/>
      <point x="215" y="309"/>
      <point x="254" y="338"/>
      <point x="259" y="363" type="qcurve"/>
      <point x="264" y="385"/>
      <point x="238" y="420"/>
      <point x="214" y="422" type="qcurve"/>
      <point x="195" y="422"/>
      <point x="153" y="403"/>
    </contour>
  </outline>
</glyph>
<glyph name="dieresis" format="1">
  <advance width="376"/>
  <unicode hex="00A8"/>
  <outline>
    <contour>
      <point x="299" y="528" type="qcurve"/>
      <point x="299" y="543"/>
      <point x="312" y="568"/>
      <point x="332" y="586"/>
      <point x="357" y="596"/>
      <point x="369" y="596" type="qcurve"/>
      <point x="389" y="596"/>
      <point x="422" y="564"/>
      <point x="422" y="540" type="qcurve"/>
      <point x="422" y="525"/>
      <point x="409" y="500"/>
      <point x="389" y="482"/>
      <point x="365" y="472"/>
      <point x="354" y="472" type="qcurve"/>
      <point x="333" y="472"/>
      <point x="299" y="502"/>
    </contour>
    <contour>
      <point x="106" y="528" type="qcurve"/>
      <point x="106" y="543"/>
      <point x="119" y="568"/>
      <point x="139" y="586"/>
      <point x="164" y="596"/>
      <point x="176" y="596" type="qcurve"/>
      <point x="196" y="596"/>
      <point x="229" y="564"/>
      <point x="229" y="540" type="qcurve"/>
      <point x="229" y="525"/>
      <point x="216" y="500"/>
      <point x="196" y="482"/>
      <point x="172" y="472"/>
      <point x="161" y="472" type="qcurve"/>
      <point x="139" y="472"/>
      <point x="106" y="502"/>
    </contour>
  </outline>
</glyph>
<glyph name="copyright" format="1">
  <advance width="609"/>
  <unicode hex="00A9"/>
  <outline>
    <contour>
      <point x="283" y="112" type="qcurve"/>
      <point x="233" y="112"/>
      <point x="148" y="147"/>
      <point x="87" y="209"/>
      <point x="52" y="295"/>
      <point x="52" y="345" type="qcurve"/>
      <point x="52" y="406"/>
      <point x="101" y="511"/>
      <point x="182" y="589"/>
      <point x="289" y="633"/>
      <point x="347" y="633" type="qcurve"/>
      <point x="397" y="633"/>
      <point x="482" y="598"/>
      <point x="543" y="536"/>
      <point x="578" y="450"/>
      <point x="578" y="400" type="qcurve"/>
      <point x="578" y="339"/>
      <point x="529" y="234"/>
      <point x="448" y="156"/>
      <point x="341" y="112"/>
    </contour>
    <contour>
      <point x="287" y="145" type="qcurve"/>
      <point x="339" y="145"/>
      <point x="432" y="184"/>
      <point x="502" y="251"/>
      <point x="544" y="343"/>
      <point x="544" y="397" type="qcurve"/>
      <point x="544" y="441"/>
      <point x="514" y="516"/>
      <point x="461" y="570"/>
      <point x="387" y="600"/>
      <point x="343" y="600" type="qcurve"/>
      <point x="291" y="600"/>
      <point x="198" y="561"/>
      <point x="127" y="494"/>
      <point x="86" y="401"/>
      <point x="86" y="347" type="qcurve"/>
      <point x="86" y="303"/>
      <point x="116" y="229"/>
      <point x="169" y="175"/>
      <point x="243" y="145"/>
    </contour>
    <contour>
      <point x="371" y="455" type="line"/>
      <point x="375" y="487" type="line"/>
      <point x="366" y="489"/>
      <point x="348" y="491"/>
      <point x="341" y="491" type="qcurve"/>
      <point x="314" y="491"/>
      <point x="266" y="470"/>
      <point x="230" y="435"/>
      <point x="209" y="390"/>
      <point x="209" y="366" type="qcurve"/>
      <point x="209" y="346"/>
      <point x="223" y="308"/>
      <point x="249" y="280"/>
      <point x="287" y="263"/>
      <point x="311" y="263" type="qcurve"/>
      <point x="325" y="263"/>
      <point x="352" y="269"/>
      <point x="374" y="276"/>
      <point x="388" y="283"/>
      <point x="388" y="285" type="qcurve"/>
      <point x="406" y="234" type="line"/>
      <point x="395" y="226"/>
      <point x="337" y="206"/>
      <point x="299" y="206" type="qcurve"/>
      <point x="263" y="206"/>
      <point x="209" y="229"/>
      <point x="171" y="270"/>
      <point x="152" y="323"/>
      <point x="152" y="353" type="qcurve"/>
      <point x="152" y="394"/>
      <point x="184" y="464"/>
      <point x="237" y="515"/>
      <point x="306" y="544"/>
      <point x="343" y="544" type="qcurve"/>
      <point x="373" y="544"/>
      <point x="423" y="527"/>
      <point x="431" y="520" type="qcurve"/>
      <point x="423" y="455" type="line"/>
    </contour>
  </outline>
</glyph>
<glyph name="registered" format="1">
  <advance width="609"/>
  <unicode hex="00AE"/>
  <outline>
    <contour>
      <point x="283" y="112" type="qcurve"/>
      <point x="233" y="112"/>
      <point x="148" y="147"/>
      <point x="87" y="209"/>
      <point x="52" y="295"/>
      <point x="52" y="345" type="qcurve"/>
      <point x="52" y="406"/>
      <point x="101" y="511"/>
      <point x="182" y="589"/>
      <point x="289" y="633"/>
      <point x="347" y="633" type="qcurve"/>
      <point x="397" y="633"/>
      <point x="482" y="598"/>
      <point x="543" y="536"/>
      <point x="578" y="450"/>
      <point x="578" y="400" type="qcurve"/>
      <point x="578" y="339"/>
      <point x="529" y="234"/>
      <point x="448" y="156"/>
      <point x="341" y="112"/>
    </contour>
    <contour>
      <point x="287" y="145" type="qcurve"/>
      <point x="339" y="145"/>
      <point x="432" y="184"/>
      <point x="502" y="251"/>
      <point x="544" y="343"/>
      <point x="544" y="397" type="qcurve"/>
      <point x="544" y="441"/>
      <point x="514" y="516"/>
      <point x="461" y="570"/>
      <point x="387" y="600"/>
      <point x="343" y="600" type="qcurve"/>
      <point x="291" y="600"/>
      <point x="198" y="561"/>
      <point x="127" y="494"/>
      <point x="86" y="401"/>
      <point x="86" y="347" type="qcurve"/>
      <point x="86" y="303"/>
      <point x="116" y="229"/>
      <point x="169" y="175"/>
      <point x="243" y="145"/>
    </contour>
    <contour>
      <point x="447" y="261" type="line"/>
      <point x="441" y="214" type="line"/>
      <point x="363" y="214" type="line"/>
      <point x="347" y="245"/>
      <point x="320" y="299"/>
      <point x="306" y="324" type="qcurve"/>
      <point x="301" y="324" type="line"/>
      <point x="257" y="324" type="line"/>
      <point x="249" y="261" type="line"/>
      <point x="282" y="261" type="line"/>
      <point x="277" y="214" type="line"/>
      <point x="153" y="214" type="line"/>
      <point x="158" y="261" type="line"/>
      <point x="195" y="261" type="line"/>
      <point x="223" y="487" type="line"/>
      <point x="186" y="487" type="line"/>
      <point x="192" y="534" type="line"/>
      <point x="319" y="534" type="line"/>
      <point x="368" y="534"/>
      <point x="424" y="486"/>
      <point x="424" y="444" type="qcurve"/>
      <point x="424" y="415"/>
      <point x="397" y="355"/>
      <point x="365" y="338" type="qcurve"/>
      <point x="403" y="261" type="line"/>
    </contour>
    <contour>
      <point x="263" y="375" type="line"/>
      <point x="306" y="375" type="line"/>
      <point x="324" y="375"/>
      <point x="348" y="388"/>
      <point x="363" y="406"/>
      <point x="369" y="427"/>
      <point x="369" y="436" type="qcurve"/>
      <point x="369" y="451"/>
      <point x="348" y="484"/>
      <point x="319" y="484" type="qcurve"/>
      <point x="276" y="484" type="line"/>
    </contour>
  </outline>
</glyph>
<glyph name="macron" format="1">
  <advance width="406"/>
  <unicode hex="00AF"/>
  <outline>
    <contour>
      <point x="146" y="482" type="line"/>
      <point x="153" y="546" type="line"/>
      <point x="387" y="546" type="line"/>
      <point x="380" y="482" type="line"/>
    </contour>
  </outline>
</glyph>
<glyph name="twosuperior" format="1">
  <advance width="346"/>
  <unicode hex="00B2"/>
  <outline>
    <contour>
      <point x="198" y="424" type="qcurve"/>
      <point x="261" y="424" type="line"/>
      <point x="265" y="450" type="line"/>
      <point x="318" y="450" type="line"/>
      <point x="308" y="375" type="line"/>
      <point x="70" y="375" type="line"/>
      <point x="106" y="407"/>
      <point x="173" y="467"/>
      <point x="226" y="524"/>
      <point x="257" y="576"/>
      <point x="257" y="601" type="qcurve"/>
      <point x="257" y="628"/>
      <point x="223" y="656"/>
      <point x="207" y="656" type="qcurve"/>
      <point x="189" y="656"/>
      <point x="164" y="642"/>
      <point x="149" y="623"/>
      <point x="143" y="601"/>
      <point x="143" y="593" type="qcurve"/>
      <point x="143" y="565"/>
      <point x="157" y="551" type="qcurve"/>
      <point x="122" y="520" type="line"/>
      <point x="114" y="524"/>
      <point x="102" y="542"/>
      <point x="95" y="563"/>
      <point x="91" y="584"/>
      <point x="91" y="593" type="qcurve"/>
      <point x="91" y="614"/>
      <point x="108" y="654"/>
      <point x="139" y="685"/>
      <point x="184" y="705"/>
      <point x="213" y="705" type="qcurve"/>
      <point x="258" y="705"/>
      <point x="309" y="648"/>
      <point x="309" y="610" type="qcurve"/>
      <point x="309" y="586"/>
      <point x="291" y="539"/>
      <point x="261" y="494"/>
      <point x="221" y="448"/>
    </contour>
  </outline>
</glyph>
<glyph name="acute" format="1">
  <advance width="293"/>
  <unicode hex="00B4"/>
  <outline>
    <contour>
      <point x="161" y="487" type="line"/>
      <point x="188" y="520"/>
      <point x="242" y="588"/>
      <point x="270" y="622" type="qcurve"/>
      <point x="373" y="622" type="line"/>
      <point x="233" y="487" type="line"/>
    </contour>
  </outline>
</glyph>
<glyph name="mu" format="1">
  <advance width="599"/>
  <unicode hex="00B5"/>
  <outline>
    <contour>
      <point x="97" y="319" type="line"/>
      <point x="100" y="342" type="line"/>
      <point x="44" y="342" type="line"/>
      <point x="54" y="425" type="line"/>
      <point x="206" y="425" type="line"/>
      <point x="194" y="323" type="line"/>
      <point x="193" y="323" type="line"/>
      <point x="174" y="161" type="line"/>
      <point x="172" y="130"/>
      <point x="206" y="87"/>
      <point x="249" y="85" type="qcurve"/>
      <point x="278" y="85"/>
      <point x="329" y="105"/>
      <point x="368" y="141"/>
      <point x="394" y="191"/>
      <point x="397" y="220" type="qcurve"/>
      <point x="411" y="333" type="line"/>
      <point x="412" y="342" type="line"/>
      <point x="348" y="342" type="line"/>
      <point x="358" y="425" type="line"/>
      <point x="518" y="425" type="line"/>
      <point x="476" y="83" type="line"/>
      <point x="532" y="83" type="line"/>
      <point x="522" y="0" type="line"/>
      <point x="386" y="0" type="line"/>
      <point x="387" y="108" type="line"/>
      <point x="358" y="57"/>
      <point x="268" y="-10"/>
      <point x="202" y="-10" type="qcurve"/>
      <point x="188" y="-10"/>
      <point x="163" y="-6"/>
      <point x="152" y="-3" type="qcurve"/>
      <point x="128" y="-201" type="line"/>
      <point x="34" y="-201" type="line"/>
      <point x="82" y="196" type="line"/>
    </contour>
  </outline>
</glyph>
<glyph name="periodcentered" format="1">
  <advance width="230"/>
  <unicode hex="00B7"/>
  <outline>
    <contour>
      <point x="53" y="281" type="qcurve"/>
      <point x="53" y="296"/>
      <point x="66" y="321"/>
      <point x="86" y="339"/>
      <point x="111" y="350"/>
      <point x="123" y="350" type="qcurve"/>
      <point x="143" y="350"/>
      <point x="176" y="317"/>
      <point x="176" y="294" type="qcurve"/>
      <point x="176" y="279"/>
      <point x="163" y="254"/>
      <point x="143" y="236"/>
      <point x="119" y="226"/>
      <point x="108" y="226" type="qcurve"/>
      <point x="86" y="226"/>
      <point x="53" y="256"/>
    </contour>
  </outline>
</glyph>
<glyph name="cedilla" format="1">
  <advance width="459"/>
  <unicode hex="00B8"/>
  <outline>
    <contour>
      <point x="184" y="0" type="line"/>
      <point x="246" y="0" type="line"/>
      <point x="245" y="-8" type="line"/>
      <point x="243" y="-23"/>
      <point x="250" y="-39"/>
      <point x="261" y="-50"/>
      <point x="275" y="-57"/>
      <point x="281" y="-62" type="qcurve"/>
      <point x="296" y="-75"/>
      <point x="309" y="-110"/>
      <point x="309" y="-131" type="qcurve"/>
      <point x="309" y="-155"/>
      <point x="293" y="-201"/>
      <point x="260" y="-238"/>
      <point x="212" y="-261"/>
      <point x="181" y="-261" type="qcurve"/>
      <point x="146" y="-261"/>
      <point x="89" y="-222"/>
      <point x="80" y="-180" type="qcurve"/>
      <point x="138" y="-151" type="line"/>
      <point x="142" y="-166"/>
      <point x="164" y="-186"/>
      <point x="182" y="-186" type="qcurve"/>
      <point x="208" y="-186"/>
      <point x="235" y="-151"/>
      <point x="235" y="-128" type="qcurve"/>
      <point x="235" y="-111"/>
      <point x="216" y="-91"/>
      <point x="194" y="-73"/>
      <point x="177" y="-54"/>
      <point x="179" y="-39" type="qcurve"/>
    </contour>
  </outline>
</glyph>
<glyph name="onehalf" format="1">
  <advance width="856"/>
  <unicode hex="00BD"/>
  <outline>
    <contour>
      <point x="628" y="71" type="qcurve"/>
      <point x="719" y="71" type="line"/>
      <point x="724" y="107" type="line"/>
      <point x="800" y="107" type="line"/>
      <point x="786" y="0" type="line"/>
      <point x="444" y="0" type="line"/>
      <point x="496" y="46"/>
      <point x="593" y="133"/>
      <point x="668" y="214"/>
      <point x="713" y="289"/>
      <point x="713" y="324" type="qcurve"/>
      <point x="713" y="344"/>
      <point x="699" y="374"/>
      <point x="678" y="393"/>
      <point x="653" y="403"/>
      <point x="642" y="403" type="qcurve"/>
      <point x="615" y="403"/>
      <point x="579" y="383"/>
      <point x="558" y="355"/>
      <point x="549" y="324"/>
      <point x="549" y="313" type="qcurve"/>
      <point x="549" y="273"/>
      <point x="569" y="252" type="qcurve"/>
      <point x="556" y="241"/>
      <point x="532" y="219"/>
      <point x="519" y="208" type="qcurve"/>
      <point x="508" y="214"/>
      <point x="492" y="239"/>
      <point x="481" y="269"/>
      <point x="475" y="300"/>
      <point x="475" y="313" type="qcurve"/>
      <point x="475" y="343"/>
      <point x="499" y="400"/>
      <point x="544" y="446"/>
      <point x="609" y="474"/>
      <point x="650" y="474" type="qcurve"/>
      <point x="682" y="474"/>
      <point x="733" y="452"/>
      <point x="768" y="414"/>
      <point x="787" y="365"/>
      <point x="787" y="337" type="qcurve"/>
      <point x="787" y="302"/>
      <point x="762" y="236"/>
      <point x="719" y="171"/>
      <point x="661" y="105"/>
    </contour>
    <contour>
      <point x="149" y="-19" type="line"/>
      <point x="526" y="748" type="line"/>
      <point x="630" y="748" type="line"/>
      <point x="253" y="-19" type="line"/>
    </contour>
    <contour>
      <point x="87" y="632" type="line"/>
      <point x="95" y="702" type="line"/>
      <point x="210" y="702" type="line"/>
      <point x="152" y="234" type="line"/>
      <point x="78" y="234" type="line"/>
      <point x="127" y="632" type="line"/>
    </contour>
  </outline>
</glyph>
<glyph name="threequarters" format="1">
  <advance width="991"/>
  <unicode hex="00BE"/>
  <outline>
    <contour>
      <point x="317" y="-19" type="line"/>
      <point x="694" y="748" type="line"/>
      <point x="798" y="748" type="line"/>
      <point x="421" y="-19" type="line"/>
    </contour>
    <contour>
      <point x="926" y="74" type="line"/>
      <point x="917" y="0" type="line"/>
      <point x="707" y="0" type="line"/>
      <point x="716" y="74" type="line"/>
      <point x="779" y="74" type="line"/>
      <point x="785" y="125" type="line"/>
      <point x="568" y="125" type="line"/>
      <point x="649" y="215"/>
      <point x="828" y="407"/>
      <point x="908" y="497" type="qcurve"/>
      <point x="872" y="199" type="line"/>
      <point x="945" y="199" type="line"/>
      <point x="936" y="125" type="line"/>
      <point x="863" y="125" type="line"/>
      <point x="856" y="74" type="line"/>
    </contour>
    <contour>
      <point x="109" y="598" type="line"/>
      <point x="113" y="637" type="line"/>
      <point x="123" y="715" type="line"/>
      <point x="395" y="715" type="line"/>
      <point x="364" y="669"/>
      <point x="297" y="577"/>
      <point x="266" y="531" type="qcurve"/>
      <point x="304" y="510"/>
      <point x="350" y="437"/>
      <point x="350" y="391" type="qcurve"/>
      <point x="350" y="352"/>
      <point x="317" y="282"/>
      <point x="262" y="229"/>
      <point x="190" y="199"/>
      <point x="152" y="199" type="qcurve"/>
      <point x="115" y="199"/>
      <point x="52" y="229"/>
      <point x="31" y="255" type="qcurve"/>
      <point x="96" y="309" type="line"/>
      <point x="118" y="276"/>
      <point x="162" y="276" type="qcurve"/>
      <point x="183" y="276"/>
      <point x="222" y="293"/>
      <point x="252" y="322"/>
      <point x="270" y="360"/>
      <point x="270" y="381" type="qcurve"/>
      <point x="270" y="416"/>
      <point x="222" y="466"/>
      <point x="185" y="466" type="qcurve"/>
      <point x="156" y="466"/>
      <point x="132" y="454" type="qcurve"/>
      <point x="161" y="500"/>
      <point x="232" y="591"/>
      <point x="261" y="637" type="qcurve"/>
      <point x="189" y="637" type="line"/>
      <point x="185" y="598" type="line"/>
    </contour>
    <contour>
      <point x="806" y="290" type="line"/>
      <point x="799" y="282"/>
      <point x="777" y="258"/>
      <point x="754" y="232"/>
      <point x="732" y="207"/>
      <point x="725" y="199" type="qcurve"/>
      <point x="795" y="199" type="line"/>
    </contour>
  </outline>
</glyph>
<glyph name="Acircumflex" format="1">
  <advance width="751"/>
  <unicode hex="00C2"/>
  <outline>
    <contour>
      <point x="-18" y="107" type="line"/>
      <point x="-31" y="0" type="line"/>
      <point x="252" y="0" type="line"/>
      <point x="265" y="107" type="line"/>
      <point x="192" y="107" type="line"/>
      <point x="238" y="192" type="line"/>
      <point x="489" y="192" type="line"/>
      <point x="514" y="107" type="line"/>
      <point x="441" y="107" type="line"/>
      <point x="428" y="0" type="line"/>
      <point x="711" y="0" type="line"/>
      <point x="724" y="107" type="line"/>
      <point x="634" y="107" type="line"/>
      <point x="434" y="762" type="line"/>
      <point x="73" y="107" type="line"/>
    </contour>
    <contour>
      <point x="387" y="469" type="line"/>
      <point x="390" y="476"/>
      <point x="393" y="483" type="qcurve"/>
      <point x="395" y="489"/>
      <point x="400" y="501"/>
      <point x="402" y="506" type="qcurve"/>
      <point x="403" y="501"/>
      <point x="405" y="489"/>
      <point x="406" y="483" type="qcurve"/>
      <point x="407" y="476"/>
      <point x="408" y="469" type="qcurve"/>
      <point x="459" y="295" type="line"/>
      <point x="293" y="295" type="line"/>
    </contour>
    <contour>
      <point x="455" y="925" type="qcurve"/>
      <point x="476" y="896"/>
      <point x="495" y="869" type="qcurve"/>
      <point x="512" y="846"/>
      <point x="547" y="795"/>
      <point x="559" y="778" type="qcurve"/>
      <point x="488" y="778" type="line"/>
      <point x="443" y="825" type="line"/>
      <point x="387" y="778" type="line"/>
      <point x="315" y="778" type="line"/>
      <point x="330" y="795"/>
      <point x="377" y="845"/>
      <point x="400" y="868" type="qcurve"/>
      <point x="426" y="895"/>
    </contour>
  </outline>
</glyph>
<glyph name="Adieresis" format="1">
  <advance width="750"/>
  <unicode hex="00C4"/>
  <outline>
    <contour>
      <point x="-18" y="107" type="line"/>
      <point x="-31" y="0" type="line"/>
      <point x="252" y="0" type="line"/>
      <point x="265" y="107" type="line"/>
      <point x="192" y="107" type="line"/>
      <point x="238" y="192" type="line"/>
      <point x="489" y="192" type="line"/>
      <point x="514" y="107" type="line"/>
      <point x="441" y="107" type="line"/>
      <point x="428" y="0" type="line"/>
      <point x="711" y="0" type="line"/>
      <point x="724" y="107" type="line"/>
      <point x="634" y="107" type="line"/>
      <point x="434" y="762" type="line"/>
      <point x="73" y="107" type="line"/>
    </contour>
    <contour>
      <point x="387" y="469" type="line"/>
      <point x="390" y="476"/>
      <point x="393" y="483" type="qcurve"/>
      <point x="395" y="489"/>
      <point x="400" y="501"/>
      <point x="402" y="506" type="qcurve"/>
      <point x="403" y="501"/>
      <point x="405" y="489"/>
      <point x="406" y="483" type="qcurve"/>
      <point x="407" y="476"/>
      <point x="408" y="469" type="qcurve"/>
      <point x="459" y="295" type="line"/>
      <point x="293" y="295" type="line"/>
    </contour>
    <contour>
      <point x="285" y="831" type="qcurve"/>
      <point x="285" y="846"/>
      <point x="298" y="871"/>
      <point x="318" y="889"/>
      <point x="343" y="899"/>
      <point x="355" y="899" type="qcurve"/>
      <point x="375" y="899"/>
      <point x="408" y="867"/>
      <point x="408" y="843" type="qcurve"/>
      <point x="408" y="828"/>
      <point x="395" y="803"/>
      <point x="375" y="785"/>
      <point x="351" y="775"/>
      <point x="340" y="775" type="qcurve"/>
      <point x="318" y="775"/>
      <point x="285" y="805"/>
    </contour>
    <contour>
      <point x="478" y="831" type="qcurve"/>
      <point x="478" y="846"/>
      <point x="491" y="871"/>
      <point x="511" y="889"/>
      <point x="536" y="899"/>
      <point x="548" y="899" type="qcurve"/>
      <point x="568" y="899"/>
      <point x="601" y="867"/>
      <point x="601" y="843" type="qcurve"/>
      <point x="601" y="828"/>
      <point x="588" y="803"/>
      <point x="568" y="785"/>
      <point x="544" y="775"/>
      <point x="533" y="775" type="qcurve"/>
      <point x="512" y="775"/>
      <point x="478" y="805"/>
    </contour>
  </outline>
</glyph>
<glyph name="Aring" format="1">
  <advance width="751"/>
  <unicode hex="00C5"/>
  <outline>
    <contour>
      <point x="73" y="107" type="line"/>
      <point x="433" y="760" type="line"/>
      <point x="399" y="760"/>
      <point x="354" y="807"/>
      <point x="354" y="840" type="qcurve"/>
      <point x="354" y="859"/>
      <point x="371" y="894"/>
      <point x="399" y="920"/>
      <point x="435" y="936"/>
      <point x="454" y="936" type="qcurve"/>
      <point x="487" y="936"/>
      <point x="532" y="889"/>
      <point x="532" y="857" type="qcurve"/>
      <point x="532" y="837"/>
      <point x="516" y="803"/>
      <point x="489" y="776"/>
      <point x="453" y="760"/>
      <point x="434" y="760" type="qcurve"/>
      <point x="634" y="107" type="line"/>
      <point x="724" y="107" type="line"/>
      <point x="711" y="0" type="line"/>
      <point x="428" y="0" type="line"/>
      <point x="441" y="107" type="line"/>
      <point x="514" y="107" type="line"/>
      <point x="489" y="192" type="line"/>
      <point x="238" y="192" type="line"/>
      <point x="192" y="107" type="line"/>
      <point x="265" y="107" type="line"/>
      <point x="252" y="0" type="line"/>
      <point x="-31" y="0" type="line"/>
      <point x="-18" y="107" type="line"/>
    </contour>
    <contour>
      <point x="293" y="295" type="line"/>
      <point x="459" y="295" type="line"/>
      <point x="408" y="469" type="line"/>
      <point x="407" y="476"/>
      <point x="406" y="483" type="qcurve"/>
      <point x="405" y="489"/>
      <point x="403" y="501"/>
      <point x="402" y="506" type="qcurve"/>
      <point x="400" y="501"/>
      <point x="395" y="489"/>
      <point x="393" y="483" type="qcurve"/>
      <point x="390" y="476"/>
      <point x="387" y="469" type="qcurve"/>
    </contour>
    <contour>
      <point x="410" y="844" type="qcurve"/>
      <point x="410" y="832"/>
      <point x="426" y="815"/>
      <point x="439" y="815" type="qcurve"/>
      <point x="454" y="815"/>
      <point x="477" y="836"/>
      <point x="477" y="851" type="qcurve"/>
      <point x="477" y="864"/>
      <point x="461" y="881"/>
      <point x="447" y="881" type="qcurve"/>
      <point x="431" y="881"/>
      <point x="410" y="859"/>
    </contour>
  </outline>
</glyph>
<glyph name="Ecircumflex" format="1">
  <advance width="665"/>
  <unicode hex="00CA"/>
  <outline>
    <contour>
      <point x="527" y="547" type="line"/>
      <point x="535" y="618" type="line"/>
      <point x="289" y="618" type="line"/>
      <point x="265" y="422" type="line"/>
      <point x="586" y="422" type="line"/>
      <point x="572" y="308" type="line"/>
      <point x="251" y="308" type="line"/>
      <point x="227" y="114" type="line"/>
      <point x="488" y="114" type="line"/>
      <point x="498" y="191" type="line"/>
      <point x="613" y="191" type="line"/>
      <point x="603" y="114" type="line"/>
      <point x="597" y="66" type="line"/>
      <point x="589" y="0" type="line"/>
      <point x="11" y="0" type="line"/>
      <point x="24" y="107" type="line"/>
      <point x="103" y="107" type="line"/>
      <point x="166" y="622" type="line"/>
      <point x="87" y="622" type="line"/>
      <point x="100" y="729" type="line"/>
      <point x="664" y="729" type="line"/>
      <point x="651" y="618" type="line"/>
      <point x="650" y="618" type="line"/>
      <point x="642" y="547" type="line"/>
    </contour>
    <contour>
      <point x="411" y="926" type="qcurve"/>
      <point x="432" y="897"/>
      <point x="451" y="870" type="qcurve"/>
      <point x="468" y="847"/>
      <point x="503" y="796"/>
      <point x="515" y="779" type="qcurve"/>
      <point x="444" y="779" type="line"/>
      <point x="399" y="826" type="line"/>
      <point x="343" y="779" type="line"/>
      <point x="271" y="779" type="line"/>
      <point x="286" y="796"/>
      <point x="333" y="846"/>
      <point x="356" y="869" type="qcurve"/>
      <point x="382" y="896"/>
    </contour>
  </outline>
</glyph>
<glyph name="Edieresis" format="1">
  <advance width="665"/>
  <unicode hex="00CB"/>
  <outline>
    <contour>
      <point x="527" y="547" type="line"/>
      <point x="535" y="618" type="line"/>
      <point x="289" y="618" type="line"/>
      <point x="265" y="422" type="line"/>
      <point x="586" y="422" type="line"/>
      <point x="572" y="308" type="line"/>
      <point x="251" y="308" type="line"/>
      <point x="227" y="114" type="line"/>
      <point x="488" y="114" type="line"/>
      <point x="498" y="191" type="line"/>
      <point x="613" y="191" type="line"/>
      <point x="603" y="114" type="line"/>
      <point x="597" y="66" type="line"/>
      <point x="589" y="0" type="line"/>
      <point x="11" y="0" type="line"/>
      <point x="24" y="107" type="line"/>
      <point x="103" y="107" type="line"/>
      <point x="166" y="622" type="line"/>
      <point x="87" y="622" type="line"/>
      <point x="100" y="729" type="line"/>
      <point x="664" y="729" type="line"/>
      <point x="651" y="618" type="line"/>
      <point x="650" y="618" type="line"/>
      <point x="642" y="547" type="line"/>
    </contour>
    <contour>
      <point x="243" y="834" type="qcurve"/>
      <point x="243" y="849"/>
      <point x="256" y="874"/>
      <point x="276" y="892"/>
      <point x="301" y="902"/>
      <point x="313" y="902" type="qcurve"/>
      <point x="333" y="902"/>
      <point x="366" y="870"/>
      <point x="366" y="846" type="qcurve"/>
      <point x="366" y="831"/>
      <point x="353" y="806"/>
      <point x="333" y="788"/>
      <point x="309" y="778"/>
      <point x="298" y="778" type="qcurve"/>
      <point x="276" y="778"/>
      <point x="243" y="808"/>
    </contour>
    <contour>
      <point x="436" y="834" type="qcurve"/>
      <point x="436" y="849"/>
      <point x="449" y="874"/>
      <point x="469" y="892"/>
      <point x="494" y="902"/>
      <point x="506" y="902" type="qcurve"/>
      <point x="526" y="902"/>
      <point x="559" y="870"/>
      <point x="559" y="846" type="qcurve"/>
      <point x="559" y="831"/>
      <point x="546" y="806"/>
      <point x="526" y="788"/>
      <point x="502" y="778"/>
      <point x="491" y="778" type="qcurve"/>
      <point x="470" y="778"/>
      <point x="436" y="808"/>
    </contour>
  </outline>
</glyph>
<glyph name="Icircumflex" format="1">
  <advance width="373"/>
  <unicode hex="00CE"/>
  <outline>
    <contour>
      <point x="382" y="729" type="line"/>
      <point x="369" y="622" type="line"/>
      <point x="289" y="622" type="line"/>
      <point x="226" y="107" type="line"/>
      <point x="306" y="107" type="line"/>
      <point x="293" y="0" type="line"/>
      <point x="10" y="0" type="line"/>
      <point x="23" y="107" type="line"/>
      <point x="103" y="107" type="line"/>
      <point x="166" y="622" type="line"/>
      <point x="86" y="622" type="line"/>
      <point x="99" y="729" type="line"/>
    </contour>
    <contour>
      <point x="266" y="926" type="qcurve"/>
      <point x="287" y="897"/>
      <point x="306" y="870" type="qcurve"/>
      <point x="323" y="847"/>
      <point x="358" y="796"/>
      <point x="370" y="779" type="qcurve"/>
      <point x="299" y="779" type="line"/>
      <point x="254" y="826" type="line"/>
      <point x="198" y="779" type="line"/>
      <point x="126" y="779" type="line"/>
      <point x="141" y="796"/>
      <point x="188" y="846"/>
      <point x="211" y="869" type="qcurve"/>
      <point x="237" y="896"/>
    </contour>
  </outline>
</glyph>
<glyph name="Idieresis" format="1">
  <advance width="373"/>
  <unicode hex="00CF"/>
  <outline>
    <contour>
      <point x="382" y="729" type="line"/>
      <point x="369" y="622" type="line"/>
      <point x="289" y="622" type="line"/>
      <point x="226" y="107" type="line"/>
      <point x="306" y="107" type="line"/>
      <point x="293" y="0" type="line"/>
      <point x="10" y="0" type="line"/>
      <point x="23" y="107" type="line"/>
      <point x="103" y="107" type="line"/>
      <point x="166" y="622" type="line"/>
      <point x="86" y="622" type="line"/>
      <point x="99" y="729" type="line"/>
    </contour>
    <contour>
      <point x="98" y="838" type="qcurve"/>
      <point x="98" y="853"/>
      <point x="111" y="878"/>
      <point x="131" y="896"/>
      <point x="156" y="906"/>
      <point x="168" y="906" type="qcurve"/>
      <point x="188" y="906"/>
      <point x="221" y="874"/>
      <point x="221" y="850" type="qcurve"/>
      <point x="221" y="835"/>
      <point x="208" y="810"/>
      <point x="188" y="792"/>
      <point x="164" y="782"/>
      <point x="153" y="782" type="qcurve"/>
      <point x="131" y="782"/>
      <point x="98" y="812"/>
    </contour>
    <contour>
      <point x="291" y="838" type="qcurve"/>
      <point x="291" y="853"/>
      <point x="304" y="878"/>
      <point x="324" y="896"/>
      <point x="349" y="906"/>
      <point x="361" y="906" type="qcurve"/>
      <point x="381" y="906"/>
      <point x="414" y="874"/>
      <point x="414" y="850" type="qcurve"/>
      <point x="414" y="835"/>
      <point x="401" y="810"/>
      <point x="381" y="792"/>
      <point x="357" y="782"/>
      <point x="346" y="782" type="qcurve"/>
      <point x="325" y="782"/>
      <point x="291" y="812"/>
    </contour>
  </outline>
</glyph>
<glyph name="Ugrave" format="1">
  <advance width="770"/>
  <unicode hex="00D9"/>
  <outline>
    <contour>
      <point x="355" y="729" type="line"/>
      <point x="342" y="622" type="line"/>
      <point x="265" y="622" type="line"/>
      <point x="221" y="263" type="line"/>
      <point x="217" y="231"/>
      <point x="235" y="175"/>
      <point x="273" y="133"/>
      <point x="328" y="108"/>
      <point x="362" y="108" type="qcurve"/>
      <point x="396" y="108"/>
      <point x="458" y="133"/>
      <point x="506" y="175"/>
      <point x="538" y="231"/>
      <point x="542" y="263" type="qcurve"/>
      <point x="586" y="622" type="line"/>
      <point x="600" y="729" type="line"/>
      <point x="801" y="729" type="line"/>
      <point x="787" y="622" type="line"/>
      <point x="709" y="622" type="line"/>
      <point x="665" y="260" type="line"/>
      <point x="657" y="200"/>
      <point x="601" y="101"/>
      <point x="515" y="31"/>
      <point x="407" y="-8"/>
      <point x="348" y="-8" type="qcurve"/>
      <point x="289" y="-8"/>
      <point x="190" y="31"/>
      <point x="123" y="101"/>
      <point x="91" y="200"/>
      <point x="98" y="260" type="qcurve"/>
      <point x="143" y="622" type="line"/>
      <point x="59" y="622" type="line"/>
      <point x="72" y="729" type="line"/>
    </contour>
    <contour>
      <point x="459" y="912" type="line"/>
      <point x="478" y="878"/>
      <point x="514" y="810"/>
      <point x="533" y="777" type="qcurve"/>
      <point x="462" y="777" type="line"/>
      <point x="436" y="810"/>
      <point x="381" y="878"/>
      <point x="355" y="912" type="qcurve"/>
    </contour>
  </outline>
</glyph>
<glyph name="Uacute" format="1">
  <advance width="770"/>
  <unicode hex="00DA"/>
  <outline>
    <contour>
      <point x="355" y="729" type="line"/>
      <point x="342" y="622" type="line"/>
      <point x="265" y="622" type="line"/>
      <point x="221" y="263" type="line"/>
      <point x="217" y="231"/>
      <point x="235" y="175"/>
      <point x="273" y="133"/>
      <point x="328" y="108"/>
      <point x="362" y="108" type="qcurve"/>
      <point x="396" y="108"/>
      <point x="458" y="133"/>
      <point x="506" y="175"/>
      <point x="538" y="231"/>
      <point x="542" y="263" type="qcurve"/>
      <point x="586" y="622" type="line"/>
      <point x="600" y="729" type="line"/>
      <point x="801" y="729" type="line"/>
      <point x="787" y="622" type="line"/>
      <point x="709" y="622" type="line"/>
      <point x="665" y="260" type="line"/>
      <point x="657" y="200"/>
      <point x="601" y="101"/>
      <point x="515" y="31"/>
      <point x="407" y="-8"/>
      <point x="348" y="-8" type="qcurve"/>
      <point x="289" y="-8"/>
      <point x="190" y="31"/>
      <point x="123" y="101"/>
      <point x="91" y="200"/>
      <point x="98" y="260" type="qcurve"/>
      <point x="143" y="622" type="line"/>
      <point x="59" y="622" type="line"/>
      <point x="72" y="729" type="line"/>
    </contour>
    <contour>
      <point x="368" y="778" type="line"/>
      <point x="395" y="811"/>
      <point x="449" y="879"/>
      <point x="477" y="913" type="qcurve"/>
      <point x="580" y="913" type="line"/>
      <point x="440" y="778" type="line"/>
    </contour>
  </outline>
</glyph>
<glyph name="Ucircumflex" format="1">
  <advance width="770"/>
  <unicode hex="00DB"/>
  <outline>
    <contour>
      <point x="355" y="729" type="line"/>
      <point x="342" y="622" type="line"/>
      <point x="265" y="622" type="line"/>
      <point x="221" y="263" type="line"/>
      <point x="217" y="231"/>
      <point x="235" y="175"/>
      <point x="273" y="133"/>
      <point x="328" y="108"/>
      <point x="362" y="108" type="qcurve"/>
      <point x="396" y="108"/>
      <point x="458" y="133"/>
      <point x="506" y="175"/>
      <point x="538" y="231"/>
      <point x="542" y="263" type="qcurve"/>
      <point x="586" y="622" type="line"/>
      <point x="600" y="729" type="line"/>
      <point x="801" y="729" type="line"/>
      <point x="787" y="622" type="line"/>
      <point x="709" y="622" type="line"/>
      <point x="665" y="260" type="line"/>
      <point x="657" y="200"/>
      <point x="601" y="101"/>
      <point x="515" y="31"/>
      <point x="407" y="-8"/>
      <point x="348" y="-8" type="qcurve"/>
      <point x="289" y="-8"/>
      <point x="190" y="31"/>
      <point x="123" y="101"/>
      <point x="91" y="200"/>
      <point x="98" y="260" type="qcurve"/>
      <point x="143" y="622" type="line"/>
      <point x="59" y="622" type="line"/>
      <point x="72" y="729" type="line"/>
    </contour>
    <contour>
      <point x="470" y="961" type="line"/>
      <point x="569" y="778" type="line"/>
      <point x="498" y="778" type="line"/>
      <point x="496" y="782"/>
      <point x="483" y="801"/>
      <point x="470" y="822"/>
      <point x="458" y="841"/>
      <point x="456" y="845" type="qcurve"/>
      <point x="453" y="841"/>
      <point x="436" y="822"/>
      <point x="417" y="801"/>
      <point x="400" y="782"/>
      <point x="397" y="778" type="qcurve"/>
      <point x="325" y="778" type="line"/>
    </contour>
  </outline>
</glyph>
<glyph name="Yacute" format="1">
  <advance width="762"/>
  <unicode hex="00DD"/>
  <outline>
    <contour>
      <point x="502" y="107" type="line"/>
      <point x="489" y="0" type="line"/>
      <point x="206" y="0" type="line"/>
      <point x="219" y="107" type="line"/>
      <point x="298" y="107" type="line"/>
      <point x="314" y="236" type="line"/>
      <point x="311" y="241"/>
      <point x="293" y="283"/>
      <point x="267" y="345"/>
      <point x="234" y="423"/>
      <point x="200" y="506"/>
      <point x="165" y="587"/>
      <point x="151" y="622" type="qcurve"/>
      <point x="48" y="622" type="line"/>
      <point x="61" y="729" type="line"/>
      <point x="344" y="729" type="line"/>
      <point x="331" y="622" type="line"/>
      <point x="288" y="622" type="line"/>
      <point x="300" y="592"/>
      <point x="325" y="525"/>
      <point x="351" y="461"/>
      <point x="374" y="402"/>
      <point x="383" y="380" type="qcurve"/>
      <point x="390" y="346" type="line"/>
      <point x="407" y="380" type="line"/>
      <point x="559" y="622" type="line"/>
      <point x="517" y="622" type="line"/>
      <point x="530" y="729" type="line"/>
      <point x="803" y="729" type="line"/>
      <point x="789" y="622" type="line"/>
      <point x="695" y="622" type="line"/>
      <point x="438" y="236" type="line"/>
      <point x="422" y="107" type="line"/>
    </contour>
    <contour>
      <point x="405" y="781" type="line"/>
      <point x="432" y="814"/>
      <point x="486" y="882"/>
      <point x="514" y="916" type="qcurve"/>
      <point x="617" y="916" type="line"/>
      <point x="477" y="781" type="line"/>
    </contour>
  </outline>
</glyph>
<glyph name="aacute" format="1">
  <advance width="571"/>
  <unicode hex="00E1"/>
  <outline>
    <contour>
      <point x="462" y="83" type="line"/>
      <point x="518" y="83" type="line"/>
      <point x="508" y="0" type="line"/>
      <point x="356" y="0" type="line"/>
      <point x="359" y="28" type="line"/>
      <point x="360" y="33"/>
      <point x="361" y="42"/>
      <point x="361" y="44" type="qcurve"/>
      <point x="357" y="39"/>
      <point x="335" y="20"/>
      <point x="299" y="2"/>
      <point x="250" y="-11"/>
      <point x="219" y="-11" type="qcurve"/>
      <point x="174" y="-11"/>
      <point x="100" y="21"/>
      <point x="48" y="75"/>
      <point x="20" y="146"/>
      <point x="20" y="186" type="qcurve"/>
      <point x="20" y="236"/>
      <point x="62" y="326"/>
      <point x="133" y="395"/>
      <point x="224" y="436"/>
      <point x="273" y="436" type="qcurve"/>
      <point x="303" y="436"/>
      <point x="349" y="421"/>
      <point x="381" y="401"/>
      <point x="399" y="380"/>
      <point x="401" y="374" type="qcurve"/>
      <point x="404" y="385"/>
      <point x="409" y="411"/>
      <point x="412" y="425" type="qcurve"/>
      <point x="504" y="425" type="line"/>
    </contour>
    <contour>
      <point x="118" y="199" type="qcurve"/>
      <point x="118" y="149"/>
      <point x="181" y="83"/>
      <point x="235" y="83" type="qcurve"/>
      <point x="266" y="83"/>
      <point x="321" y="106"/>
      <point x="360" y="145"/>
      <point x="383" y="198"/>
      <point x="383" y="228" type="qcurve"/>
      <point x="383" y="277"/>
      <point x="320" y="342"/>
      <point x="266" y="342" type="qcurve"/>
      <point x="235" y="342"/>
      <point x="181" y="320"/>
      <point x="141" y="282"/>
      <point x="118" y="229"/>
    </contour>
    <contour>
      <point x="227" y="487" type="line"/>
      <point x="254" y="520"/>
      <point x="308" y="588"/>
      <point x="336" y="622" type="qcurve"/>
      <point x="439" y="622" type="line"/>
      <point x="299" y="487" type="line"/>
    </contour>
  </outline>
</glyph>
<glyph name="adieresis" format="1">
  <advance width="571"/>
  <unicode hex="00E4"/>
  <outline>
    <contour>
      <point x="462" y="83" type="line"/>
      <point x="518" y="83" type="line"/>
      <point x="508" y="0" type="line"/>
      <point x="356" y="0" type="line"/>
      <point x="359" y="28" type="line"/>
      <point x="360" y="33"/>
      <point x="361" y="42"/>
      <point x="361" y="44" type="qcurve"/>
      <point x="357" y="39"/>
      <point x="335" y="20"/>
      <point x="299" y="2"/>
      <point x="250" y="-11"/>
      <point x="219" y="-11" type="qcurve"/>
      <point x="174" y="-11"/>
      <point x="100" y="21"/>
      <point x="48" y="75"/>
      <point x="20" y="146"/>
      <point x="20" y="186" type="qcurve"/>
      <point x="20" y="236"/>
      <point x="62" y="326"/>
      <point x="133" y="395"/>
      <point x="224" y="436"/>
      <point x="273" y="436" type="qcurve"/>
      <point x="303" y="436"/>
      <point x="349" y="421"/>
      <point x="381" y="401"/>
      <point x="399" y="380"/>
      <point x="401" y="374" type="qcurve"/>
      <point x="404" y="385"/>
      <point x="409" y="411"/>
      <point x="412" y="425" type="qcurve"/>
      <point x="504" y="425" type="line"/>
    </contour>
    <contour>
      <point x="118" y="199" type="qcurve"/>
      <point x="118" y="149"/>
      <point x="181" y="83"/>
      <point x="235" y="83" type="qcurve"/>
      <point x="266" y="83"/>
      <point x="321" y="106"/>
      <point x="360" y="145"/>
      <point x="383" y="198"/>
      <point x="383" y="228" type="qcurve"/>
      <point x="383" y="277"/>
      <point x="320" y="342"/>
      <point x="266" y="342" type="qcurve"/>
      <point x="235" y="342"/>
      <point x="181" y="320"/>
      <point x="141" y="282"/>
      <point x="118" y="229"/>
    </contour>
    <contour>
      <point x="138" y="528" type="qcurve"/>
      <point x="138" y="543"/>
      <point x="151" y="568"/>
      <point x="171" y="586"/>
      <point x="196" y="596"/>
      <point x="208" y="596" type="qcurve"/>
      <point x="228" y="596"/>
      <point x="261" y="564"/>
      <point x="261" y="540" type="qcurve"/>
      <point x="261" y="525"/>
      <point x="248" y="500"/>
      <point x="228" y="482"/>
      <point x="204" y="472"/>
      <point x="193" y="472" type="qcurve"/>
      <point x="171" y="472"/>
      <point x="138" y="502"/>
    </contour>
    <contour>
      <point x="331" y="528" type="qcurve"/>
      <point x="331" y="543"/>
      <point x="344" y="568"/>
      <point x="364" y="586"/>
      <point x="389" y="596"/>
      <point x="401" y="596" type="qcurve"/>
      <point x="421" y="596"/>
      <point x="454" y="564"/>
      <point x="454" y="540" type="qcurve"/>
      <point x="454" y="525"/>
      <point x="441" y="500"/>
      <point x="421" y="482"/>
      <point x="397" y="472"/>
      <point x="386" y="472" type="qcurve"/>
      <point x="365" y="472"/>
      <point x="331" y="502"/>
    </contour>
  </outline>
</glyph>
<glyph name="aring" format="1">
  <advance width="571"/>
  <unicode hex="00E5"/>
  <outline>
    <contour>
      <point x="462" y="83" type="line"/>
      <point x="518" y="83" type="line"/>
      <point x="508" y="0" type="line"/>
      <point x="356" y="0" type="line"/>
      <point x="359" y="28" type="line"/>
      <point x="360" y="33"/>
      <point x="361" y="42"/>
      <point x="361" y="44" type="qcurve"/>
      <point x="357" y="39"/>
      <point x="335" y="20"/>
      <point x="299" y="2"/>
      <point x="250" y="-11"/>
      <point x="219" y="-11" type="qcurve"/>
      <point x="174" y="-11"/>
      <point x="100" y="21"/>
      <point x="48" y="75"/>
      <point x="20" y="146"/>
      <point x="20" y="186" type="qcurve"/>
      <point x="20" y="236"/>
      <point x="62" y="326"/>
      <point x="133" y="395"/>
      <point x="224" y="436"/>
      <point x="273" y="436" type="qcurve"/>
      <point x="303" y="436"/>
      <point x="349" y="421"/>
      <point x="381" y="401"/>
      <point x="399" y="380"/>
      <point x="401" y="374" type="qcurve"/>
      <point x="404" y="385"/>
      <point x="409" y="411"/>
      <point x="412" y="425" type="qcurve"/>
      <point x="504" y="425" type="line"/>
    </contour>
    <contour>
      <point x="118" y="199" type="qcurve"/>
      <point x="118" y="149"/>
      <point x="181" y="83"/>
      <point x="235" y="83" type="qcurve"/>
      <point x="266" y="83"/>
      <point x="321" y="106"/>
      <point x="360" y="145"/>
      <point x="383" y="198"/>
      <point x="383" y="228" type="qcurve"/>
      <point x="383" y="277"/>
      <point x="320" y="342"/>
      <point x="266" y="342" type="qcurve"/>
      <point x="235" y="342"/>
      <point x="181" y="320"/>
      <point x="141" y="282"/>
      <point x="118" y="229"/>
    </contour>
    <contour>
      <point x="211" y="537" type="qcurve"/>
      <point x="211" y="556"/>
      <point x="228" y="591"/>
      <point x="255" y="617"/>
      <point x="291" y="633"/>
      <point x="311" y="633" type="qcurve"/>
      <point x="344" y="633"/>
      <point x="389" y="586"/>
      <point x="389" y="554" type="qcurve"/>
      <point x="389" y="534"/>
      <point x="372" y="499"/>
      <point x="344" y="473"/>
      <point x="309" y="457"/>
      <point x="290" y="457" type="qcurve"/>
      <point x="256" y="457"/>
      <point x="211" y="504"/>
    </contour>
    <contour>
      <point x="267" y="540" type="qcurve"/>
      <point x="267" y="528"/>
      <point x="283" y="511"/>
      <point x="297" y="511" type="qcurve"/>
      <point x="311" y="511"/>
      <point x="333" y="533"/>
      <point x="333" y="548" type="qcurve"/>
      <point x="333" y="561"/>
      <point x="317" y="577"/>
      <point x="305" y="577" type="qcurve"/>
      <point x="289" y="577"/>
      <point x="267" y="556"/>
    </contour>
  </outline>
</glyph>
<glyph name="ecircumflex" format="1">
  <advance width="468"/>
  <unicode hex="00EA"/>
  <outline>
    <contour>
      <point x="393" y="49" type="line"/>
      <point x="359" y="21"/>
      <point x="267" y="-11"/>
      <point x="221" y="-11" type="qcurve"/>
      <point x="175" y="-11"/>
      <point x="101" y="21"/>
      <point x="48" y="75"/>
      <point x="20" y="148"/>
      <point x="20" y="189" type="qcurve"/>
      <point x="20" y="239"/>
      <point x="62" y="329"/>
      <point x="133" y="396"/>
      <point x="224" y="435"/>
      <point x="272" y="435" type="qcurve"/>
      <point x="344" y="435"/>
      <point x="442" y="349"/>
      <point x="456" y="277" type="qcurve"/>
      <point x="424" y="266"/>
      <point x="342" y="235"/>
      <point x="252" y="201"/>
      <point x="162" y="166"/>
      <point x="124" y="152" type="qcurve"/>
      <point x="136" y="121"/>
      <point x="193" y="83"/>
      <point x="230" y="83" type="qcurve"/>
      <point x="256" y="83"/>
      <point x="311" y="102"/>
      <point x="331" y="118" type="qcurve"/>
    </contour>
    <contour>
      <point x="285" y="634" type="qcurve"/>
      <point x="306" y="605"/>
      <point x="325" y="578" type="qcurve"/>
      <point x="342" y="555"/>
      <point x="377" y="504"/>
      <point x="389" y="487" type="qcurve"/>
      <point x="318" y="487" type="line"/>
      <point x="273" y="534" type="line"/>
      <point x="217" y="487" type="line"/>
      <point x="145" y="487" type="line"/>
      <point x="160" y="504"/>
      <point x="207" y="554"/>
      <point x="230" y="577" type="qcurve"/>
      <point x="256" y="604"/>
    </contour>
    <contour>
      <point x="340" y="299" type="qcurve"/>
      <point x="330" y="321"/>
      <point x="285" y="342"/>
      <point x="262" y="342" type="qcurve"/>
      <point x="234" y="342"/>
      <point x="184" y="320"/>
      <point x="145" y="284"/>
      <point x="120" y="238"/>
      <point x="118" y="213" type="qcurve"/>
      <point x="144" y="223"/>
      <point x="204" y="246"/>
      <point x="263" y="270"/>
      <point x="319" y="291"/>
    </contour>
  </outline>
</glyph>
<glyph name="iacute" format="1">
  <advance width="280"/>
  <unicode hex="00ED"/>
  <outline>
    <contour>
      <point x="168" y="96" type="line"/>
      <point x="166" y="86" type="line"/>
      <point x="165" y="83" type="line"/>
      <point x="230" y="83" type="line"/>
      <point x="220" y="0" type="line"/>
      <point x="4" y="0" type="line"/>
      <point x="14" y="83" type="line"/>
      <point x="70" y="83" type="line"/>
      <point x="72" y="99" type="line"/>
      <point x="102" y="342" type="line"/>
      <point x="45" y="342" type="line"/>
      <point x="56" y="425" type="line"/>
      <point x="208" y="425" type="line"/>
      <point x="167" y="96" type="line"/>
    </contour>
    <contour>
      <point x="94" y="487" type="line"/>
      <point x="121" y="520"/>
      <point x="175" y="588"/>
      <point x="203" y="622" type="qcurve"/>
      <point x="306" y="622" type="line"/>
      <point x="166" y="487" type="line"/>
    </contour>
  </outline>
</glyph>
<glyph name="idieresis" format="1">
  <advance width="280"/>
  <unicode hex="00EF"/>
  <outline>
    <contour>
      <point x="168" y="96" type="line"/>
      <point x="166" y="87" type="line"/>
      <point x="165" y="83" type="line"/>
      <point x="230" y="83" type="line"/>
      <point x="220" y="0" type="line"/>
      <point x="4" y="0" type="line"/>
      <point x="14" y="83" type="line"/>
      <point x="70" y="83" type="line"/>
      <point x="72" y="99" type="line"/>
      <point x="102" y="342" type="line"/>
      <point x="45" y="342" type="line"/>
      <point x="56" y="425" type="line"/>
      <point x="208" y="425" type="line"/>
      <point x="167" y="96" type="line"/>
    </contour>
    <contour>
      <point x="13" y="528" type="qcurve"/>
      <point x="13" y="543"/>
      <point x="26" y="568"/>
      <point x="46" y="586"/>
      <point x="71" y="596"/>
      <point x="83" y="596" type="qcurve"/>
      <point x="103" y="596"/>
      <point x="136" y="564"/>
      <point x="136" y="540" type="qcurve"/>
      <point x="136" y="525"/>
      <point x="123" y="500"/>
      <point x="103" y="482"/>
      <point x="79" y="472"/>
      <point x="68" y="472" type="qcurve"/>
      <point x="46" y="472"/>
      <point x="13" y="502"/>
    </contour>
    <contour>
      <point x="206" y="528" type="qcurve"/>
      <point x="206" y="543"/>
      <point x="219" y="568"/>
      <point x="239" y="586"/>
      <point x="264" y="596"/>
      <point x="276" y="596" type="qcurve"/>
      <point x="296" y="596"/>
      <point x="329" y="564"/>
      <point x="329" y="540" type="qcurve"/>
      <point x="329" y="525"/>
      <point x="316" y="500"/>
      <point x="296" y="482"/>
      <point x="272" y="472"/>
      <point x="261" y="472" type="qcurve"/>
      <point x="240" y="472"/>
      <point x="206" y="502"/>
    </contour>
  </outline>
</glyph>
<glyph name="ograve" format="1">
  <advance width="514"/>
  <unicode hex="00F2"/>
  <outline>
    <contour>
      <point x="22" y="213" type="qcurve"/>
      <point x="28" y="260"/>
      <point x="72" y="341"/>
      <point x="140" y="401"/>
      <point x="228" y="435"/>
      <point x="277" y="435" type="qcurve"/>
      <point x="322" y="435"/>
      <point x="395" y="405"/>
      <point x="447" y="353"/>
      <point x="475" y="280"/>
      <point x="475" y="238" type="qcurve"/>
      <point x="475" y="186"/>
      <point x="436" y="95"/>
      <point x="368" y="28"/>
      <point x="275" y="-11"/>
      <point x="220" y="-11" type="qcurve"/>
      <point x="172" y="-11"/>
      <point x="94" y="20"/>
      <point x="40" y="78"/>
      <point x="16" y="161"/>
    </contour>
    <contour>
      <point x="117" y="212" type="qcurve"/>
      <point x="111" y="156"/>
      <point x="174" y="83"/>
      <point x="231" y="83" type="qcurve"/>
      <point x="261" y="83"/>
      <point x="314" y="105"/>
      <point x="354" y="143"/>
      <point x="377" y="196"/>
      <point x="377" y="226" type="qcurve"/>
      <point x="377" y="251"/>
      <point x="360" y="293"/>
      <point x="330" y="324"/>
      <point x="287" y="342"/>
      <point x="262" y="342" type="qcurve"/>
      <point x="234" y="342"/>
      <point x="184" y="322"/>
      <point x="145" y="287"/>
      <point x="120" y="240"/>
    </contour>
    <contour>
      <point x="270" y="622" type="line"/>
      <point x="289" y="588"/>
      <point x="325" y="520"/>
      <point x="344" y="487" type="qcurve"/>
      <point x="273" y="487" type="line"/>
      <point x="247" y="520"/>
      <point x="192" y="588"/>
      <point x="166" y="622" type="qcurve"/>
    </contour>
  </outline>
</glyph>
<glyph name="odieresis" format="1">
  <advance width="514"/>
  <unicode hex="00F6"/>
  <outline>
    <contour>
      <point x="22" y="213" type="qcurve"/>
      <point x="28" y="260"/>
      <point x="72" y="341"/>
      <point x="140" y="401"/>
      <point x="228" y="435"/>
      <point x="277" y="435" type="qcurve"/>
      <point x="322" y="435"/>
      <point x="395" y="405"/>
      <point x="447" y="353"/>
      <point x="475" y="280"/>
      <point x="475" y="238" type="qcurve"/>
      <point x="475" y="186"/>
      <point x="436" y="95"/>
      <point x="368" y="28"/>
      <point x="275" y="-11"/>
      <point x="220" y="-11" type="qcurve"/>
      <point x="172" y="-11"/>
      <point x="94" y="20"/>
      <point x="40" y="78"/>
      <point x="16" y="161"/>
    </contour>
    <contour>
      <point x="117" y="212" type="qcurve"/>
      <point x="111" y="156"/>
      <point x="174" y="83"/>
      <point x="231" y="83" type="qcurve"/>
      <point x="261" y="83"/>
      <point x="314" y="105"/>
      <point x="354" y="143"/>
      <point x="377" y="196"/>
      <point x="377" y="226" type="qcurve"/>
      <point x="377" y="251"/>
      <point x="360" y="293"/>
      <point x="330" y="324"/>
      <point x="287" y="342"/>
      <point x="262" y="342" type="qcurve"/>
      <point x="234" y="342"/>
      <point x="184" y="322"/>
      <point x="145" y="287"/>
      <point x="120" y="240"/>
    </contour>
    <contour>
      <point x="324" y="528" type="qcurve"/>
      <point x="324" y="543"/>
      <point x="337" y="568"/>
      <point x="357" y="586"/>
      <point x="382" y="596"/>
      <point x="394" y="596" type="qcurve"/>
      <point x="414" y="596"/>
      <point x="447" y="564"/>
      <point x="447" y="540" type="qcurve"/>
      <point x="447" y="525"/>
      <point x="434" y="500"/>
      <point x="414" y="482"/>
      <point x="390" y="472"/>
      <point x="379" y="472" type="qcurve"/>
      <point x="358" y="472"/>
      <point x="324" y="502"/>
    </contour>
    <contour>
      <point x="131" y="528" type="qcurve"/>
      <point x="131" y="543"/>
      <point x="144" y="568"/>
      <point x="164" y="586"/>
      <point x="189" y="596"/>
      <point x="201" y="596" type="qcurve"/>
      <point x="221" y="596"/>
      <point x="254" y="564"/>
      <point x="254" y="540" type="qcurve"/>
      <point x="254" y="525"/>
      <point x="241" y="500"/>
      <point x="221" y="482"/>
      <point x="197" y="472"/>
      <point x="186" y="472" type="qcurve"/>
      <point x="164" y="472"/>
      <point x="131" y="502"/>
    </contour>
  </outline>
</glyph>
<glyph name="oslash" format="1">
  <advance width="515"/>
  <unicode hex="00F8"/>
  <outline>
    <contour>
      <point x="24" y="213" type="qcurve"/>
      <point x="30" y="260"/>
      <point x="74" y="341"/>
      <point x="142" y="401"/>
      <point x="230" y="435"/>
      <point x="279" y="435" type="qcurve"/>
      <point x="343" y="435"/>
      <point x="390" y="405" type="qcurve"/>
      <point x="406" y="420"/>
      <point x="432" y="447"/>
      <point x="439" y="454" type="qcurve"/>
      <point x="485" y="414" type="line"/>
      <point x="435" y="364" type="line"/>
      <point x="477" y="313"/>
      <point x="477" y="238" type="qcurve"/>
      <point x="477" y="186"/>
      <point x="438" y="95"/>
      <point x="370" y="28"/>
      <point x="277" y="-11"/>
      <point x="222" y="-11" type="qcurve"/>
      <point x="147" y="-11"/>
      <point x="95" y="26" type="qcurve"/>
      <point x="76" y="7"/>
      <point x="49" y="-22"/>
      <point x="41" y="-30" type="qcurve"/>
      <point x="-1" y="13" type="line"/>
      <point x="2" y="16"/>
      <point x="15" y="29"/>
      <point x="31" y="46"/>
      <point x="48" y="62"/>
      <point x="54" y="68" type="qcurve"/>
      <point x="14" y="125"/>
    </contour>
    <contour>
      <point x="169" y="99" type="line"/>
      <point x="194" y="83"/>
      <point x="233" y="83" type="qcurve"/>
      <point x="263" y="83"/>
      <point x="316" y="105"/>
      <point x="356" y="143"/>
      <point x="379" y="196"/>
      <point x="379" y="226" type="qcurve"/>
      <point x="379" y="244"/>
      <point x="369" y="277"/>
      <point x="361" y="291" type="qcurve"/>
    </contour>
    <contour>
      <point x="119" y="212" type="qcurve"/>
      <point x="114" y="172"/>
      <point x="129" y="143" type="qcurve"/>
      <point x="316" y="331" type="line"/>
      <point x="292" y="342"/>
      <point x="264" y="342" type="qcurve"/>
      <point x="236" y="342"/>
      <point x="186" y="322"/>
      <point x="147" y="287"/>
      <point x="122" y="240"/>
    </contour>
  </outline>
</glyph>
<glyph name="abreve" format="1">
  <advance width="571"/>
  <unicode hex="0103"/>
  <outline>
    <contour>
      <point x="462" y="83" type="line"/>
      <point x="518" y="83" type="line"/>
      <point x="508" y="0" type="line"/>
      <point x="356" y="0" type="line"/>
      <point x="359" y="28" type="line"/>
      <point x="360" y="33"/>
      <point x="361" y="42"/>
      <point x="361" y="44" type="qcurve"/>
      <point x="357" y="39"/>
      <point x="335" y="20"/>
      <point x="299" y="2"/>
      <point x="250" y="-11"/>
      <point x="219" y="-11" type="qcurve"/>
      <point x="174" y="-11"/>
      <point x="100" y="21"/>
      <point x="48" y="75"/>
      <point x="20" y="146"/>
      <point x="20" y="186" type="qcurve"/>
      <point x="20" y="236"/>
      <point x="62" y="326"/>
      <point x="133" y="395"/>
      <point x="224" y="436"/>
      <point x="273" y="436" type="qcurve"/>
      <point x="303" y="436"/>
      <point x="349" y="421"/>
      <point x="381" y="401"/>
      <point x="399" y="380"/>
      <point x="401" y="374" type="qcurve"/>
      <point x="404" y="385"/>
      <point x="409" y="411"/>
      <point x="412" y="425" type="qcurve"/>
      <point x="504" y="425" type="line"/>
    </contour>
    <contour>
      <point x="118" y="199" type="qcurve"/>
      <point x="118" y="149"/>
      <point x="181" y="83"/>
      <point x="235" y="83" type="qcurve"/>
      <point x="266" y="83"/>
      <point x="321" y="106"/>
      <point x="360" y="145"/>
      <point x="383" y="198"/>
      <point x="383" y="228" type="qcurve"/>
      <point x="383" y="277"/>
      <point x="320" y="342"/>
      <point x="266" y="342" type="qcurve"/>
      <point x="235" y="342"/>
      <point x="181" y="320"/>
      <point x="141" y="282"/>
      <point x="118" y="229"/>
    </contour>
    <contour>
      <point x="302" y="500" type="qcurve"/>
      <point x="269" y="500"/>
      <point x="213" y="524"/>
      <point x="174" y="566"/>
      <point x="155" y="624"/>
      <point x="158" y="657" type="qcurve"/>
      <point x="211" y="657" type="line"/>
      <point x="207" y="611"/>
      <point x="260" y="553"/>
      <point x="308" y="553" type="qcurve"/>
      <point x="355" y="553"/>
      <point x="421" y="611"/>
      <point x="428" y="657" type="qcurve"/>
      <point x="482" y="657" type="line"/>
      <point x="478" y="624"/>
      <point x="445" y="566"/>
      <point x="396" y="524"/>
      <point x="335" y="500"/>
    </contour>
  </outline>
</glyph>
<glyph name="Aogonek" format="1">
  <advance width="750"/>
  <unicode hex="0104"/>
  <outline>
    <contour>
      <point x="72" y="107" type="line"/>
      <point x="433" y="762" type="line"/>
      <point x="633" y="107" type="line"/>
      <point x="723" y="107" type="line"/>
      <point x="710" y="0" type="line"/>
      <point x="607" y="0" type="line"/>
      <point x="602" y="-39" type="line"/>
      <point x="600" y="-56"/>
      <point x="575" y="-76"/>
      <point x="546" y="-95"/>
      <point x="523" y="-119"/>
      <point x="523" y="-141" type="qcurve"/>
      <point x="523" y="-161"/>
      <point x="543" y="-186"/>
      <point x="563" y="-186" type="qcurve"/>
      <point x="582" y="-186"/>
      <point x="608" y="-166"/>
      <point x="615" y="-151" type="qcurve"/>
      <point x="628" y="-158"/>
      <point x="654" y="-172"/>
      <point x="666" y="-180" type="qcurve"/>
      <point x="647" y="-222"/>
      <point x="580" y="-261"/>
      <point x="545" y="-261" type="qcurve"/>
      <point x="519" y="-261"/>
      <point x="481" y="-244"/>
      <point x="457" y="-215"/>
      <point x="445" y="-179"/>
      <point x="445" y="-160" type="qcurve"/>
      <point x="445" y="-134"/>
      <point x="464" y="-84"/>
      <point x="495" y="-62" type="qcurve"/>
      <point x="502" y="-57"/>
      <point x="517" y="-50"/>
      <point x="531" y="-39"/>
      <point x="542" y="-23"/>
      <point x="544" y="-8" type="qcurve"/>
      <point x="545" y="0" type="line"/>
      <point x="427" y="0" type="line"/>
      <point x="440" y="107" type="line"/>
      <point x="513" y="107" type="line"/>
      <point x="488" y="192" type="line"/>
      <point x="237" y="192" type="line"/>
      <point x="191" y="107" type="line"/>
      <point x="264" y="107" type="line"/>
      <point x="251" y="0" type="line"/>
      <point x="-32" y="0" type="line"/>
      <point x="-19" y="107" type="line"/>
    </contour>
    <contour>
      <point x="292" y="295" type="line"/>
      <point x="458" y="295" type="line"/>
      <point x="407" y="469" type="line"/>
      <point x="406" y="476"/>
      <point x="405" y="483" type="qcurve"/>
      <point x="404" y="489"/>
      <point x="402" y="501"/>
      <point x="401" y="506" type="qcurve"/>
      <point x="399" y="501"/>
      <point x="394" y="489"/>
      <point x="392" y="483" type="qcurve"/>
      <point x="389" y="476"/>
      <point x="386" y="469" type="qcurve"/>
    </contour>
  </outline>
</glyph>
<glyph name="Ccircumflex" format="1">
  <advance width="651"/>
  <unicode hex="0108"/>
  <outline>
    <contour>
      <point x="527" y="541" type="line"/>
      <point x="536" y="613" type="line"/>
      <point x="516" y="617"/>
      <point x="477" y="621"/>
      <point x="461" y="621" type="qcurve"/>
      <point x="401" y="621"/>
      <point x="294" y="575"/>
      <point x="215" y="498"/>
      <point x="168" y="398"/>
      <point x="168" y="345" type="qcurve"/>
      <point x="168" y="300"/>
      <point x="199" y="218"/>
      <point x="258" y="155"/>
      <point x="341" y="117"/>
      <point x="394" y="117" type="qcurve"/>
      <point x="425" y="117"/>
      <point x="486" y="130"/>
      <point x="534" y="147"/>
      <point x="565" y="162"/>
      <point x="566" y="165" type="qcurve"/>
      <point x="604" y="54" type="line"/>
      <point x="592" y="46"/>
      <point x="546" y="24"/>
      <point x="484" y="5"/>
      <point x="410" y="-8"/>
      <point x="368" y="-8" type="qcurve"/>
      <point x="289" y="-8"/>
      <point x="168" y="44"/>
      <point x="85" y="132"/>
      <point x="43" y="251"/>
      <point x="43" y="317" type="qcurve"/>
      <point x="43" y="408"/>
      <point x="114" y="562"/>
      <point x="232" y="674"/>
      <point x="384" y="737"/>
      <point x="465" y="737" type="qcurve"/>
      <point x="498" y="737"/>
      <point x="561" y="726"/>
      <point x="613" y="711"/>
      <point x="651" y="693"/>
      <point x="660" y="686" type="qcurve"/>
      <point x="642" y="541" type="line"/>
    </contour>
    <contour>
      <point x="492" y="926" type="qcurve"/>
      <point x="513" y="897"/>
      <point x="532" y="870" type="qcurve"/>
      <point x="549" y="847"/>
      <point x="584" y="796"/>
      <point x="596" y="779" type="qcurve"/>
      <point x="525" y="779" type="line"/>
      <point x="480" y="826" type="line"/>
      <point x="424" y="779" type="line"/>
      <point x="352" y="779" type="line"/>
      <point x="367" y="796"/>
      <point x="414" y="846"/>
      <point x="437" y="869" type="qcurve"/>
      <point x="463" y="896"/>
    </contour>
  </outline>
</glyph>
<glyph name="Cdotaccent" format="1">
  <advance width="651"/>
  <unicode hex="010A"/>
  <outline>
    <contour>
      <point x="527" y="541" type="line"/>
      <point x="536" y="613" type="line"/>
      <point x="516" y="617"/>
      <point x="477" y="621"/>
      <point x="461" y="621" type="qcurve"/>
      <point x="401" y="621"/>
      <point x="294" y="575"/>
      <point x="215" y="498"/>
      <point x="168" y="398"/>
      <point x="168" y="345" type="qcurve"/>
      <point x="168" y="300"/>
      <point x="199" y="218"/>
      <point x="258" y="155"/>
      <point x="341" y="117"/>
      <point x="394" y="117" type="qcurve"/>
      <point x="425" y="117"/>
      <point x="486" y="130"/>
      <point x="534" y="147"/>
      <point x="565" y="162"/>
      <point x="566" y="165" type="qcurve"/>
      <point x="604" y="54" type="line"/>
      <point x="592" y="46"/>
      <point x="546" y="24"/>
      <point x="484" y="5"/>
      <point x="410" y="-8"/>
      <point x="368" y="-8" type="qcurve"/>
      <point x="289" y="-8"/>
      <point x="168" y="44"/>
      <point x="85" y="132"/>
      <point x="43" y="251"/>
      <point x="43" y="317" type="qcurve"/>
      <point x="43" y="408"/>
      <point x="114" y="562"/>
      <point x="232" y="674"/>
      <point x="384" y="737"/>
      <point x="465" y="737" type="qcurve"/>
      <point x="498" y="737"/>
      <point x="561" y="726"/>
      <point x="613" y="711"/>
      <point x="651" y="693"/>
      <point x="660" y="686" type="qcurve"/>
      <point x="642" y="541" type="line"/>
    </contour>
    <contour>
      <point x="411" y="832" type="qcurve"/>
      <point x="411" y="861"/>
      <point x="454" y="898"/>
      <point x="478" y="898" type="qcurve"/>
      <point x="498" y="898"/>
      <point x="530" y="867"/>
      <point x="530" y="844" type="qcurve"/>
      <point x="530" y="829"/>
      <point x="518" y="805"/>
      <point x="499" y="787"/>
      <point x="475" y="778"/>
      <point x="464" y="778" type="qcurve"/>
      <point x="443" y="778"/>
      <point x="411" y="807"/>
    </contour>
  </outline>
</glyph>
<glyph name="cdotaccent" format="1">
  <advance width="431"/>
  <unicode hex="010B"/>
  <outline>
    <contour>
      <point x="415" y="388" type="qcurve"/>
      <point x="405" y="296" type="line"/>
      <point x="323" y="296" type="line"/>
      <point x="327" y="328" type="line"/>
      <point x="299" y="342"/>
      <point x="266" y="342" type="qcurve"/>
      <point x="234" y="342"/>
      <point x="179" y="320"/>
      <point x="139" y="282"/>
      <point x="117" y="229"/>
      <point x="117" y="199" type="qcurve"/>
      <point x="117" y="149"/>
      <point x="180" y="83"/>
      <point x="234" y="83" type="qcurve"/>
      <point x="259" y="83"/>
      <point x="311" y="97"/>
      <point x="329" y="111" type="qcurve"/>
      <point x="342" y="92"/>
      <point x="365" y="57"/>
      <point x="378" y="39" type="qcurve"/>
      <point x="345" y="16"/>
      <point x="263" y="-11"/>
      <point x="219" y="-11" type="qcurve"/>
      <point x="172" y="-11"/>
      <point x="99" y="21"/>
      <point x="48" y="75"/>
      <point x="21" y="146"/>
      <point x="21" y="186" type="qcurve"/>
      <point x="21" y="238"/>
      <point x="63" y="330"/>
      <point x="133" y="397"/>
      <point x="226" y="436"/>
      <point x="277" y="436" type="qcurve"/>
      <point x="319" y="436"/>
      <point x="389" y="411"/>
    </contour>
    <contour>
      <point x="224" y="542" type="qcurve"/>
      <point x="224" y="571"/>
      <point x="267" y="608"/>
      <point x="291" y="608" type="qcurve"/>
      <point x="311" y="608"/>
      <point x="343" y="577"/>
      <point x="343" y="554" type="qcurve"/>
      <point x="343" y="539"/>
      <point x="331" y="515"/>
      <point x="312" y="497"/>
      <point x="288" y="488"/>
      <point x="277" y="488" type="qcurve"/>
      <point x="256" y="488"/>
      <point x="224" y="517"/>
    </contour>
  </outline>
</glyph>
<glyph name="Ccaron" format="1">
  <advance width="651"/>
  <unicode hex="010C"/>
  <outline>
    <contour>
      <point x="527" y="541" type="line"/>
      <point x="536" y="613" type="line"/>
      <point x="516" y="617"/>
      <point x="477" y="621"/>
      <point x="461" y="621" type="qcurve"/>
      <point x="401" y="621"/>
      <point x="294" y="575"/>
      <point x="215" y="498"/>
      <point x="168" y="398"/>
      <point x="168" y="345" type="qcurve"/>
      <point x="168" y="300"/>
      <point x="199" y="218"/>
      <point x="258" y="155"/>
      <point x="341" y="117"/>
      <point x="394" y="117" type="qcurve"/>
      <point x="425" y="117"/>
      <point x="486" y="130"/>
      <point x="534" y="147"/>
      <point x="565" y="162"/>
      <point x="566" y="165" type="qcurve"/>
      <point x="604" y="54" type="line"/>
      <point x="592" y="46"/>
      <point x="546" y="24"/>
      <point x="484" y="5"/>
      <point x="410" y="-8"/>
      <point x="368" y="-8" type="qcurve"/>
      <point x="289" y="-8"/>
      <point x="168" y="44"/>
      <point x="85" y="132"/>
      <point x="43" y="251"/>
      <point x="43" y="317" type="qcurve"/>
      <point x="43" y="408"/>
      <point x="114" y="562"/>
      <point x="232" y="674"/>
      <point x="384" y="737"/>
      <point x="465" y="737" type="qcurve"/>
      <point x="498" y="737"/>
      <point x="561" y="726"/>
      <point x="613" y="711"/>
      <point x="651" y="693"/>
      <point x="660" y="686" type="qcurve"/>
      <point x="642" y="541" type="line"/>
    </contour>
    <contour>
      <point x="463" y="780" type="qcurve"/>
      <point x="441" y="810"/>
      <point x="422" y="837" type="qcurve"/>
      <point x="405" y="860"/>
      <point x="371" y="910"/>
      <point x="360" y="927" type="qcurve"/>
      <point x="431" y="927" type="line"/>
      <point x="476" y="881" type="line"/>
      <point x="532" y="927" type="line"/>
      <point x="604" y="927" type="line"/>
      <point x="587" y="910"/>
      <point x="540" y="859"/>
      <point x="517" y="836" type="qcurve"/>
      <point x="491" y="809"/>
    </contour>
  </outline>
</glyph>
<glyph name="Dcaron" format="1">
  <advance width="754"/>
  <unicode hex="010E"/>
  <outline>
    <contour>
      <point x="368" y="729" type="line"/>
      <point x="467" y="729"/>
      <point x="605" y="671"/>
      <point x="690" y="578"/>
      <point x="728" y="459"/>
      <point x="728" y="398" type="qcurve"/>
      <point x="728" y="306"/>
      <point x="659" y="159"/>
      <point x="544" y="55"/>
      <point x="395" y="0"/>
      <point x="314" y="0" type="qcurve"/>
      <point x="11" y="0" type="line"/>
      <point x="24" y="107" type="line"/>
      <point x="103" y="107" type="line"/>
      <point x="166" y="622" type="line"/>
      <point x="87" y="622" type="line"/>
      <point x="100" y="729" type="line"/>
    </contour>
    <contour>
      <point x="310" y="116" type="line"/>
      <point x="372" y="116"/>
      <point x="479" y="153"/>
      <point x="559" y="224"/>
      <point x="604" y="328"/>
      <point x="604" y="395" type="qcurve"/>
      <point x="604" y="453"/>
      <point x="564" y="536"/>
      <point x="501" y="587"/>
      <point x="423" y="611"/>
      <point x="386" y="611" type="qcurve"/>
      <point x="288" y="611" type="line"/>
      <point x="273" y="487"/>
      <point x="243" y="240"/>
      <point x="227" y="116" type="qcurve"/>
    </contour>
    <contour>
      <point x="407" y="778" type="qcurve"/>
      <point x="385" y="808"/>
      <point x="366" y="835" type="qcurve"/>
      <point x="349" y="858"/>
      <point x="315" y="908"/>
      <point x="304" y="925" type="qcurve"/>
      <point x="375" y="925" type="line"/>
      <point x="420" y="879" type="line"/>
      <point x="476" y="925" type="line"/>
      <point x="548" y="925" type="line"/>
      <point x="531" y="908"/>
      <point x="484" y="857"/>
      <point x="461" y="834" type="qcurve"/>
      <point x="435" y="807"/>
    </contour>
  </outline>
</glyph>
<glyph name="edotaccent" format="1">
  <advance width="468"/>
  <unicode hex="0117"/>
  <outline>
    <contour>
      <point x="393" y="49" type="line"/>
      <point x="359" y="21"/>
      <point x="267" y="-11"/>
      <point x="221" y="-11" type="qcurve"/>
      <point x="175" y="-11"/>
      <point x="101" y="21"/>
      <point x="48" y="75"/>
      <point x="20" y="148"/>
      <point x="20" y="189" type="qcurve"/>
      <point x="20" y="239"/>
      <point x="62" y="329"/>
      <point x="133" y="396"/>
      <point x="224" y="435"/>
      <point x="272" y="435" type="qcurve"/>
      <point x="344" y="435"/>
      <point x="442" y="349"/>
      <point x="456" y="277" type="qcurve"/>
      <point x="424" y="266"/>
      <point x="342" y="235"/>
      <point x="252" y="201"/>
      <point x="162" y="166"/>
      <point x="124" y="152" type="qcurve"/>
      <point x="136" y="121"/>
      <point x="193" y="83"/>
      <point x="230" y="83" type="qcurve"/>
      <point x="256" y="83"/>
      <point x="311" y="102"/>
      <point x="331" y="118" type="qcurve"/>
    </contour>
    <contour>
      <point x="340" y="299" type="qcurve"/>
      <point x="330" y="321"/>
      <point x="285" y="342"/>
      <point x="262" y="342" type="qcurve"/>
      <point x="234" y="342"/>
      <point x="184" y="320"/>
      <point x="145" y="284"/>
      <point x="120" y="238"/>
      <point x="118" y="213" type="qcurve"/>
      <point x="144" y="223"/>
      <point x="204" y="246"/>
      <point x="263" y="270"/>
      <point x="319" y="291"/>
    </contour>
    <contour>
      <point x="230" y="584" type="qcurve"/>
      <point x="230" y="613"/>
      <point x="273" y="650"/>
      <point x="297" y="650" type="qcurve"/>
      <point x="317" y="650"/>
      <point x="349" y="619"/>
      <point x="349" y="596" type="qcurve"/>
      <point x="349" y="581"/>
      <point x="337" y="557"/>
      <point x="318" y="539"/>
      <point x="294" y="530"/>
      <point x="283" y="530" type="qcurve"/>
      <point x="262" y="530"/>
      <point x="230" y="559"/>
    </contour>
  </outline>
</glyph>
<glyph name="Eogonek" format="1">
  <advance width="664"/>
  <unicode hex="0118"/>
  <outline>
    <contour>
      <point x="526" y="547" type="line"/>
      <point x="534" y="618" type="line"/>
      <point x="288" y="618" type="line"/>
      <point x="264" y="422" type="line"/>
      <point x="585" y="422" type="line"/>
      <point x="571" y="308" type="line"/>
      <point x="250" y="308" type="line"/>
      <point x="226" y="114" type="line"/>
      <point x="487" y="114" type="line"/>
      <point x="497" y="191" type="line"/>
      <point x="612" y="191" type="line"/>
      <point x="602" y="114" type="line"/>
      <point x="596" y="66" type="line"/>
      <point x="588" y="0" type="line"/>
      <point x="10" y="0" type="line"/>
      <point x="23" y="107" type="line"/>
      <point x="102" y="107" type="line"/>
      <point x="165" y="622" type="line"/>
      <point x="86" y="622" type="line"/>
      <point x="99" y="729" type="line"/>
      <point x="663" y="729" type="line"/>
      <point x="650" y="618" type="line"/>
      <point x="649" y="618" type="line"/>
      <point x="641" y="547" type="line"/>
    </contour>
    <contour>
      <point x="588" y="0" type="line"/>
      <point x="526" y="0" type="line"/>
      <point x="525" y="-8" type="line"/>
      <point x="523" y="-23"/>
      <point x="512" y="-39"/>
      <point x="498" y="-50"/>
      <point x="483" y="-57"/>
      <point x="476" y="-62" type="qcurve"/>
      <point x="445" y="-84"/>
      <point x="426" y="-134"/>
      <point x="426" y="-160" type="qcurve"/>
      <point x="426" y="-179"/>
      <point x="438" y="-215"/>
      <point x="462" y="-244"/>
      <point x="500" y="-261"/>
      <point x="526" y="-261" type="qcurve"/>
      <point x="561" y="-261"/>
      <point x="628" y="-222"/>
      <point x="647" y="-180" type="qcurve"/>
      <point x="635" y="-172"/>
      <point x="609" y="-158"/>
      <point x="596" y="-151" type="qcurve"/>
      <point x="589" y="-166"/>
      <point x="563" y="-186"/>
      <point x="544" y="-186" type="qcurve"/>
      <point x="524" y="-186"/>
      <point x="504" y="-161"/>
      <point x="504" y="-141" type="qcurve"/>
      <point x="504" y="-119"/>
      <point x="527" y="-95"/>
      <point x="556" y="-76"/>
      <point x="581" y="-56"/>
      <point x="583" y="-39" type="qcurve"/>
    </contour>
  </outline>
</glyph>
<glyph name="Ecaron" format="1">
  <advance width="665"/>
  <unicode hex="011A"/>
  <outline>
    <contour>
      <point x="527" y="547" type="line"/>
      <point x="535" y="618" type="line"/>
      <point x="289" y="618" type="line"/>
      <point x="265" y="422" type="line"/>
      <point x="586" y="422" type="line"/>
      <point x="572" y="308" type="line"/>
      <point x="251" y="308" type="line"/>
      <point x="227" y="114" type="line"/>
      <point x="488" y="114" type="line"/>
      <point x="498" y="191" type="line"/>
      <point x="613" y="191" type="line"/>
      <point x="603" y="114" type="line"/>
      <point x="597" y="66" type="line"/>
      <point x="589" y="0" type="line"/>
      <point x="11" y="0" type="line"/>
      <point x="24" y="107" type="line"/>
      <point x="103" y="107" type="line"/>
      <point x="166" y="622" type="line"/>
      <point x="87" y="622" type="line"/>
      <point x="100" y="729" type="line"/>
      <point x="664" y="729" type="line"/>
      <point x="651" y="618" type="line"/>
      <point x="650" y="618" type="line"/>
      <point x="642" y="547" type="line"/>
    </contour>
    <contour>
      <point x="407" y="778" type="qcurve"/>
      <point x="385" y="808"/>
      <point x="366" y="835" type="qcurve"/>
      <point x="349" y="858"/>
      <point x="315" y="908"/>
      <point x="304" y="925" type="qcurve"/>
      <point x="375" y="925" type="line"/>
      <point x="420" y="879" type="line"/>
      <point x="476" y="925" type="line"/>
      <point x="548" y="925" type="line"/>
      <point x="531" y="908"/>
      <point x="484" y="857"/>
      <point x="461" y="834" type="qcurve"/>
      <point x="435" y="807"/>
    </contour>
  </outline>
</glyph>
<glyph name="Gbreve" format="1">
  <advance width="693"/>
  <unicode hex="011E"/>
  <outline>
    <contour>
      <point x="549" y="541" type="line"/>
      <point x="557" y="606" type="line"/>
      <point x="533" y="614"/>
      <point x="481" y="621"/>
      <point x="459" y="621" type="qcurve"/>
      <point x="405" y="621"/>
      <point x="300" y="576"/>
      <point x="218" y="498"/>
      <point x="167" y="393"/>
      <point x="167" y="334" type="qcurve"/>
      <point x="167" y="287"/>
      <point x="199" y="205"/>
      <point x="258" y="144"/>
      <point x="342" y="108"/>
      <point x="393" y="108" type="qcurve"/>
      <point x="402" y="108"/>
      <point x="428" y="110"/>
      <point x="458" y="113"/>
      <point x="489" y="119"/>
      <point x="502" y="124" type="qcurve"/>
      <point x="518" y="248" type="line"/>
      <point x="382" y="248" type="line"/>
      <point x="394" y="354" type="line"/>
      <point x="643" y="354" type="line"/>
      <point x="606" y="44" type="line"/>
      <point x="561" y="19"/>
      <point x="437" y="-8"/>
      <point x="377" y="-8" type="qcurve"/>
      <point x="298" y="-8"/>
      <point x="173" y="39"/>
      <point x="87" y="122"/>
      <point x="42" y="238"/>
      <point x="42" y="307" type="qcurve"/>
      <point x="42" y="401"/>
      <point x="116" y="559"/>
      <point x="237" y="673"/>
      <point x="392" y="737"/>
      <point x="472" y="737" type="qcurve"/>
      <point x="500" y="737"/>
      <point x="560" y="729"/>
      <point x="616" y="715"/>
      <point x="664" y="695"/>
      <point x="681" y="684" type="qcurve"/>
      <point x="664" y="541" type="line"/>
    </contour>
    <contour>
      <point x="463" y="778" type="qcurve"/>
      <point x="430" y="778"/>
      <point x="374" y="802"/>
      <point x="335" y="844"/>
      <point x="316" y="902"/>
      <point x="319" y="935" type="qcurve"/>
      <point x="372" y="935" type="line"/>
      <point x="368" y="889"/>
      <point x="421" y="831"/>
      <point x="469" y="831" type="qcurve"/>
      <point x="516" y="831"/>
      <point x="582" y="889"/>
      <point x="589" y="935" type="qcurve"/>
      <point x="643" y="935" type="line"/>
      <point x="639" y="902"/>
      <point x="606" y="844"/>
      <point x="557" y="802"/>
      <point x="496" y="778"/>
    </contour>
  </outline>
</glyph>
<glyph name="gbreve" format="1">
  <advance width="570"/>
  <unicode hex="011F"/>
  <outline>
    <contour>
      <point x="412" y="425" type="qcurve"/>
      <point x="560" y="425" type="line"/>
      <point x="550" y="342" type="line"/>
      <point x="494" y="342" type="line"/>
      <point x="455" y="22" type="line"/>
      <point x="448" y="-32"/>
      <point x="404" y="-117"/>
      <point x="336" y="-174"/>
      <point x="247" y="-204"/>
      <point x="196" y="-204" type="qcurve"/>
      <point x="157" y="-204"/>
      <point x="100" y="-188"/>
      <point x="56" y="-162"/>
      <point x="21" y="-130"/>
      <point x="5" y="-114" type="qcurve"/>
      <point x="74" y="-49" type="line"/>
      <point x="100" y="-75"/>
      <point x="159" y="-112"/>
      <point x="206" y="-112" type="qcurve"/>
      <point x="267" y="-112"/>
      <point x="348" y="-52"/>
      <point x="356" y="3" type="qcurve"/>
      <point x="357" y="8"/>
      <point x="357" y="21"/>
      <point x="359" y="28" type="qcurve"/>
      <point x="365" y="45"/>
      <point x="367" y="56" type="qcurve"/>
      <point x="357" y="46"/>
      <point x="329" y="22"/>
      <point x="291" y="2"/>
      <point x="244" y="-11"/>
      <point x="214" y="-11" type="qcurve"/>
      <point x="170" y="-11"/>
      <point x="99" y="19"/>
      <point x="48" y="72"/>
      <point x="21" y="144"/>
      <point x="21" y="186" type="qcurve"/>
      <point x="21" y="239"/>
      <point x="62" y="330"/>
      <point x="130" y="398"/>
      <point x="219" y="436"/>
      <point x="267" y="436" type="qcurve"/>
      <point x="300" y="436"/>
      <point x="349" y="419"/>
      <point x="382" y="397"/>
      <point x="399" y="377"/>
      <point x="401" y="374" type="qcurve"/>
      <point x="403" y="385"/>
      <point x="410" y="411"/>
    </contour>
    <contour>
      <point x="118" y="199" type="qcurve"/>
      <point x="118" y="149"/>
      <point x="181" y="83"/>
      <point x="235" y="83" type="qcurve"/>
      <point x="266" y="83"/>
      <point x="321" y="106"/>
      <point x="360" y="145"/>
      <point x="383" y="198"/>
      <point x="383" y="228" type="qcurve"/>
      <point x="383" y="277"/>
      <point x="320" y="342"/>
      <point x="266" y="342" type="qcurve"/>
      <point x="235" y="342"/>
      <point x="181" y="320"/>
      <point x="141" y="282"/>
      <point x="118" y="229"/>
    </contour>
    <contour>
      <point x="302" y="500" type="qcurve"/>
      <point x="269" y="500"/>
      <point x="213" y="524"/>
      <point x="174" y="566"/>
      <point x="155" y="624"/>
      <point x="158" y="657" type="qcurve"/>
      <point x="211" y="657" type="line"/>
      <point x="207" y="611"/>
      <point x="260" y="553"/>
      <point x="308" y="553" type="qcurve"/>
      <point x="355" y="553"/>
      <point x="421" y="611"/>
      <point x="428" y="657" type="qcurve"/>
      <point x="482" y="657" type="line"/>
      <point x="478" y="624"/>
      <point x="445" y="566"/>
      <point x="396" y="524"/>
      <point x="335" y="500"/>
    </contour>
  </outline>
</glyph>
<glyph name="Hbar" format="1">
  <advance width="845"/>
  <unicode hex="0126"/>
  <outline>
    <contour>
      <point x="384" y="729" type="line"/>
      <point x="371" y="622" type="line"/>
      <point x="290" y="622" type="line"/>
      <point x="282" y="554" type="line"/>
      <point x="630" y="554" type="line"/>
      <point x="638" y="622" type="line"/>
      <point x="558" y="622" type="line"/>
      <point x="571" y="729" type="line"/>
      <point x="854" y="729" type="line"/>
      <point x="840" y="622" type="line"/>
      <point x="761" y="622" type="line"/>
      <point x="753" y="554" type="line"/>
      <point x="813" y="554" type="line"/>
      <point x="806" y="490" type="line"/>
      <point x="745" y="490" type="line"/>
      <point x="698" y="107" type="line"/>
      <point x="778" y="107" type="line"/>
      <point x="764" y="0" type="line"/>
      <point x="482" y="0" type="line"/>
      <point x="495" y="107" type="line"/>
      <point x="575" y="107" type="line"/>
      <point x="600" y="308" type="line"/>
      <point x="252" y="308" type="line"/>
      <point x="227" y="107" type="line"/>
      <point x="308" y="107" type="line"/>
      <point x="295" y="0" type="line"/>
      <point x="12" y="0" type="line"/>
      <point x="25" y="107" type="line"/>
      <point x="104" y="107" type="line"/>
      <point x="151" y="490" type="line"/>
      <point x="56" y="490" type="line"/>
      <point x="63" y="554" type="line"/>
      <point x="159" y="554" type="line"/>
      <point x="168" y="622" type="line"/>
      <point x="88" y="622" type="line"/>
      <point x="101" y="729" type="line"/>
    </contour>
    <contour>
      <point x="614" y="425" type="line"/>
      <point x="622" y="490" type="line"/>
      <point x="274" y="490" type="line"/>
      <point x="266" y="425" type="line"/>
    </contour>
  </outline>
</glyph>
<glyph name="Itilde" format="1">
  <advance width="373"/>
  <unicode hex="0128"/>
  <outline>
    <contour>
      <point x="382" y="729" type="line"/>
      <point x="369" y="622" type="line"/>
      <point x="289" y="622" type="line"/>
      <point x="226" y="107" type="line"/>
      <point x="306" y="107" type="line"/>
      <point x="293" y="0" type="line"/>
      <point x="10" y="0" type="line"/>
      <point x="23" y="107" type="line"/>
      <point x="103" y="107" type="line"/>
      <point x="166" y="622" type="line"/>
      <point x="86" y="622" type="line"/>
      <point x="99" y="729" type="line"/>
    </contour>
    <contour>
      <point x="239" y="810" type="qcurve"/>
      <point x="225" y="824"/>
      <point x="204" y="835"/>
      <point x="190" y="835" type="qcurve"/>
      <point x="183" y="835"/>
      <point x="166" y="832"/>
      <point x="150" y="822"/>
      <point x="137" y="805"/>
      <point x="134" y="791" type="qcurve"/>
      <point x="80" y="793" type="line"/>
      <point x="84" y="814"/>
      <point x="106" y="849"/>
      <point x="137" y="874"/>
      <point x="171" y="888"/>
      <point x="187" y="888" type="qcurve"/>
      <point x="212" y="888"/>
      <point x="248" y="872"/>
      <point x="263" y="856" type="qcurve"/>
      <point x="277" y="841"/>
      <point x="298" y="831"/>
      <point x="312" y="831" type="qcurve"/>
      <point x="326" y="831"/>
      <point x="362" y="847"/>
      <point x="369" y="875" type="qcurve"/>
      <point x="422" y="873" type="line"/>
      <point x="418" y="852"/>
      <point x="396" y="817"/>
      <point x="365" y="792"/>
      <point x="331" y="778"/>
      <point x="315" y="778" type="qcurve"/>
      <point x="291" y="778"/>
      <point x="254" y="795"/>
    </contour>
  </outline>
</glyph>
<glyph name="iogonek" format="1">
  <advance width="279"/>
  <unicode hex="012F"/>
  <outline>
    <contour>
      <point x="168" y="96" type="line"/>
      <point x="166" y="87" type="line"/>
      <point x="165" y="83" type="line"/>
      <point x="230" y="83" type="line"/>
      <point x="220" y="0" type="line"/>
      <point x="4" y="0" type="line"/>
      <point x="14" y="83" type="line"/>
      <point x="70" y="83" type="line"/>
      <point x="72" y="99" type="line"/>
      <point x="102" y="342" type="line"/>
      <point x="45" y="342" type="line"/>
      <point x="56" y="425" type="line"/>
      <point x="208" y="425" type="line"/>
      <point x="167" y="96" type="line"/>
    </contour>
    <contour>
      <point x="122" y="0" type="line"/>
      <point x="60" y="0" type="line"/>
      <point x="59" y="-8" type="line"/>
      <point x="57" y="-23"/>
      <point x="46" y="-39"/>
      <point x="32" y="-50"/>
      <point x="17" y="-57"/>
      <point x="10" y="-62" type="qcurve"/>
      <point x="-21" y="-84"/>
      <point x="-40" y="-134"/>
      <point x="-40" y="-160" type="qcurve"/>
      <point x="-40" y="-179"/>
      <point x="-28" y="-215"/>
      <point x="-4" y="-244"/>
      <point x="34" y="-261"/>
      <point x="60" y="-261" type="qcurve"/>
      <point x="95" y="-261"/>
      <point x="162" y="-222"/>
      <point x="181" y="-180" type="qcurve"/>
      <point x="169" y="-172"/>
      <point x="143" y="-158"/>
      <point x="130" y="-151" type="qcurve"/>
      <point x="123" y="-166"/>
      <point x="97" y="-186"/>
      <point x="78" y="-186" type="qcurve"/>
      <point x="58" y="-186"/>
      <point x="38" y="-161"/>
      <point x="38" y="-141" type="qcurve"/>
      <point x="38" y="-119"/>
      <point x="61" y="-95"/>
      <point x="90" y="-76"/>
      <point x="115" y="-56"/>
      <point x="117" y="-39" type="qcurve"/>
    </contour>
    <contour>
      <point x="121" y="584" type="qcurve"/>
      <point x="121" y="598"/>
      <point x="133" y="622"/>
      <point x="153" y="640"/>
      <point x="177" y="650"/>
      <point x="189" y="650" type="qcurve"/>
      <point x="209" y="650"/>
      <point x="241" y="619"/>
      <point x="241" y="596" type="qcurve"/>
      <point x="241" y="581"/>
      <point x="229" y="557"/>
      <point x="210" y="539"/>
      <point x="186" y="530"/>
      <point x="175" y="530" type="qcurve"/>
      <point x="154" y="530"/>
      <point x="121" y="559"/>
    </contour>
  </outline>
</glyph>
<glyph name="uni0136" format="1">
  <advance width="714"/>
  <unicode hex="0136"/>
  <outline>
    <contour>
      <point x="306" y="107" type="line"/>
      <point x="293" y="0" type="line"/>
      <point x="10" y="0" type="line"/>
      <point x="23" y="107" type="line"/>
      <point x="103" y="107" type="line"/>
      <point x="166" y="622" type="line"/>
      <point x="86" y="622" type="line"/>
      <point x="99" y="729" type="line"/>
      <point x="382" y="729" type="line"/>
      <point x="369" y="622" type="line"/>
      <point x="302" y="622" type="line"/>
      <point x="281" y="451" type="line"/>
      <point x="274" y="416" type="line"/>
      <point x="279" y="423"/>
      <point x="296" y="441"/>
      <point x="298" y="442" type="qcurve"/>
      <point x="304" y="447"/>
      <point x="339" y="483"/>
      <point x="387" y="534"/>
      <point x="443" y="593"/>
      <point x="470" y="622" type="qcurve"/>
      <point x="449" y="622" type="line"/>
      <point x="463" y="729" type="line"/>
      <point x="734" y="729" type="line"/>
      <point x="720" y="622" type="line"/>
      <point x="619" y="622" type="line"/>
      <point x="586" y="587"/>
      <point x="513" y="510"/>
      <point x="451" y="444"/>
      <point x="407" y="398"/>
      <point x="402" y="394" type="qcurve"/>
      <point x="406" y="386"/>
      <point x="446" y="326"/>
      <point x="501" y="243"/>
      <point x="563" y="148"/>
      <point x="590" y="107" type="qcurve"/>
      <point x="688" y="107" type="line"/>
      <point x="675" y="0" type="line"/>
      <point x="391" y="0" type="line"/>
      <point x="404" y="107" type="line"/>
      <point x="440" y="107" type="line"/>
      <point x="306" y="311" type="line"/>
      <point x="303" y="308"/>
      <point x="290" y="297"/>
      <point x="275" y="284"/>
      <point x="262" y="272"/>
      <point x="259" y="270" type="qcurve"/>
      <point x="258" y="265"/>
      <point x="255" y="234"/>
      <point x="249" y="190"/>
      <point x="243" y="136"/>
      <point x="239" y="107" type="qcurve"/>
    </contour>
    <contour>
      <point x="411" y="-21" type="line"/>
      <point x="323" y="-179" type="line"/>
      <point x="239" y="-179" type="line"/>
      <point x="252" y="-153"/>
      <point x="270" y="-117"/>
      <point x="286" y="-84"/>
      <point x="304" y="-48"/>
      <point x="317" y="-21" type="qcurve"/>
    </contour>
  </outline>
</glyph>
<glyph name="Lacute" format="1">
  <advance width="621"/>
  <unicode hex="0139"/>
  <outline>
    <contour>
      <point x="383" y="729" type="line"/>
      <point x="370" y="622" type="line"/>
      <point x="289" y="622" type="line"/>
      <point x="227" y="116" type="line"/>
      <point x="468" y="116" type="line"/>
      <point x="478" y="191" type="line"/>
      <point x="593" y="191" type="line"/>
      <point x="577" y="66" type="line"/>
      <point x="575" y="66" type="line"/>
      <point x="567" y="0" type="line"/>
      <point x="11" y="0" type="line"/>
      <point x="24" y="107" type="line"/>
      <point x="103" y="107" type="line"/>
      <point x="166" y="622" type="line"/>
      <point x="87" y="622" type="line"/>
      <point x="100" y="729" type="line"/>
    </contour>
    <contour>
      <point x="360" y="770" type="line"/>
      <point x="387" y="803"/>
      <point x="441" y="871"/>
      <point x="469" y="905" type="qcurve"/>
      <point x="572" y="905" type="line"/>
      <point x="432" y="770" type="line"/>
    </contour>
  </outline>
</glyph>
<glyph name="lacute" format="1">
  <advance width="268"/>
  <unicode hex="013A"/>
  <outline>
    <contour>
      <point x="157" y="96" type="line"/>
      <point x="155" y="86" type="line"/>
      <point x="154" y="83" type="line"/>
      <point x="219" y="83" type="line"/>
      <point x="209" y="0" type="line"/>
      <point x="-7" y="0" type="line"/>
      <point x="3" y="83" type="line"/>
      <point x="59" y="83" type="line"/>
      <point x="61" y="99" type="line"/>
      <point x="135" y="698" type="line"/>
      <point x="79" y="698" type="line"/>
      <point x="89" y="781" type="line"/>
      <point x="240" y="781" type="line"/>
      <point x="156" y="96" type="line"/>
    </contour>
    <contour>
      <point x="133" y="798" type="line"/>
      <point x="160" y="831"/>
      <point x="214" y="899"/>
      <point x="242" y="933" type="qcurve"/>
      <point x="345" y="933" type="line"/>
      <point x="205" y="798" type="line"/>
    </contour>
  </outline>
</glyph>
<glyph name="Lcaron" format="1">
  <advance width="621"/>
  <unicode hex="013D"/>
  <outline>
    <contour>
      <point x="383" y="729" type="line"/>
      <point x="370" y="622" type="line"/>
      <point x="289" y="622" type="line"/>
      <point x="227" y="116" type="line"/>
      <point x="468" y="116" type="line"/>
      <point x="478" y="191" type="line"/>
      <point x="593" y="191" type="line"/>
      <point x="577" y="66" type="line"/>
      <point x="575" y="66" type="line"/>
      <point x="567" y="0" type="line"/>
      <point x="11" y="0" type="line"/>
      <point x="24" y="107" type="line"/>
      <point x="103" y="107" type="line"/>
      <point x="166" y="622" type="line"/>
      <point x="87" y="622" type="line"/>
      <point x="100" y="729" type="line"/>
    </contour>
    <contour>
      <point x="468" y="574" type="qcurve"/>
      <point x="457" y="580"/>
      <point x="433" y="592"/>
      <point x="421" y="600" type="qcurve"/>
      <point x="445" y="620"/>
      <point x="471" y="680"/>
      <point x="469" y="715" type="qcurve"/>
      <point x="531" y="722" type="line"/>
      <point x="534" y="680"/>
      <point x="500" y="603"/>
    </contour>
  </outline>
</glyph>
<glyph name="ncaron" format="1">
  <advance width="583"/>
  <unicode hex="0148"/>
  <outline>
    <contour>
      <point x="167" y="96" type="line"/>
      <point x="165" y="86" type="line"/>
      <point x="164" y="83" type="line"/>
      <point x="229" y="83" type="line"/>
      <point x="219" y="0" type="line"/>
      <point x="3" y="0" type="line"/>
      <point x="13" y="83" type="line"/>
      <point x="69" y="83" type="line"/>
      <point x="71" y="99" type="line"/>
      <point x="101" y="342" type="line"/>
      <point x="44" y="342" type="line"/>
      <point x="55" y="425" type="line"/>
      <point x="195" y="425" type="line"/>
      <point x="193" y="407"/>
      <point x="192" y="379"/>
      <point x="192" y="354"/>
      <point x="191" y="330"/>
      <point x="190" y="316" type="qcurve"/>
      <point x="220" y="370"/>
      <point x="312" y="436"/>
      <point x="375" y="436" type="qcurve"/>
      <point x="440" y="436"/>
      <point x="509" y="365"/>
      <point x="504" y="308" type="qcurve"/>
      <point x="479" y="105" type="line"/>
      <point x="476" y="83" type="line"/>
      <point x="532" y="83" type="line"/>
      <point x="522" y="0" type="line"/>
      <point x="307" y="0" type="line"/>
      <point x="317" y="83" type="line"/>
      <point x="380" y="83" type="line"/>
      <point x="382" y="96" type="line"/>
      <point x="383" y="102" type="line"/>
      <point x="403" y="263" type="line"/>
      <point x="405" y="294"/>
      <point x="371" y="339"/>
      <point x="328" y="341" type="qcurve"/>
      <point x="299" y="341"/>
      <point x="248" y="320"/>
      <point x="209" y="284"/>
      <point x="183" y="234"/>
      <point x="180" y="205" type="qcurve"/>
      <point x="166" y="96" type="line"/>
    </contour>
    <contour>
      <point x="321" y="487" type="qcurve"/>
      <point x="299" y="517"/>
      <point x="280" y="544" type="qcurve"/>
      <point x="263" y="567"/>
      <point x="229" y="617"/>
      <point x="218" y="634" type="qcurve"/>
      <point x="289" y="634" type="line"/>
      <point x="334" y="588" type="line"/>
      <point x="390" y="634" type="line"/>
      <point x="462" y="634" type="line"/>
      <point x="445" y="617"/>
      <point x="398" y="566"/>
      <point x="375" y="543" type="qcurve"/>
      <point x="349" y="516"/>
    </contour>
  </outline>
</glyph>
<glyph name="OE" format="1">
  <advance width="919"/>
  <unicode hex="0152"/>
  <outline>
    <contour>
      <point x="781" y="547" type="line"/>
      <point x="790" y="618" type="line"/>
      <point x="596" y="618" type="line"/>
      <point x="571" y="422" type="line"/>
      <point x="840" y="422" type="line"/>
      <point x="826" y="308" type="line"/>
      <point x="558" y="308" type="line"/>
      <point x="534" y="114" type="line"/>
      <point x="742" y="114" type="line"/>
      <point x="751" y="191" type="line"/>
      <point x="866" y="191" type="line"/>
      <point x="857" y="114" type="line"/>
      <point x="851" y="66" type="line"/>
      <point x="843" y="0" type="line"/>
      <point x="447" y="0" type="line"/>
      <point x="427" y="-4"/>
      <point x="390" y="-8"/>
      <point x="371" y="-8" type="qcurve"/>
      <point x="300" y="-8"/>
      <point x="179" y="44"/>
      <point x="91" y="134"/>
      <point x="42" y="256"/>
      <point x="42" y="326" type="qcurve"/>
      <point x="42" y="408"/>
      <point x="111" y="558"/>
      <point x="228" y="670"/>
      <point x="379" y="737"/>
      <point x="462" y="737" type="qcurve"/>
      <point x="498" y="737"/>
      <point x="535" y="729" type="qcurve"/>
      <point x="918" y="729" type="line"/>
      <point x="905" y="618" type="line"/>
      <point x="904" y="618" type="line"/>
      <point x="896" y="547" type="line"/>
    </contour>
    <contour>
      <point x="448" y="619" type="qcurve"/>
      <point x="392" y="619"/>
      <point x="290" y="574"/>
      <point x="212" y="497"/>
      <point x="165" y="394"/>
      <point x="165" y="337" type="qcurve"/>
      <point x="165" y="289"/>
      <point x="198" y="205"/>
      <point x="258" y="144"/>
      <point x="340" y="108"/>
      <point x="388" y="108" type="qcurve"/>
      <point x="410" y="108" type="line"/>
      <point x="472" y="618" type="line"/>
      <point x="466" y="619"/>
      <point x="454" y="619"/>
    </contour>
  </outline>
</glyph>
<glyph name="oe" format="1">
  <advance width="722"/>
  <unicode hex="0153"/>
  <outline>
    <contour>
      <point x="646" y="49" type="line"/>
      <point x="612" y="21"/>
      <point x="520" y="-11"/>
      <point x="474" y="-11" type="qcurve"/>
      <point x="439" y="-11"/>
      <point x="378" y="9"/>
      <point x="353" y="27" type="qcurve"/>
      <point x="324" y="9"/>
      <point x="258" y="-11"/>
      <point x="221" y="-11" type="qcurve"/>
      <point x="178" y="-11"/>
      <point x="104" y="18"/>
      <point x="50" y="70"/>
      <point x="20" y="143"/>
      <point x="20" y="188" type="qcurve"/>
      <point x="20" y="239"/>
      <point x="62" y="328"/>
      <point x="133" y="396"/>
      <point x="226" y="435"/>
      <point x="277" y="435" type="qcurve"/>
      <point x="312" y="435"/>
      <point x="373" y="415"/>
      <point x="398" y="398" type="qcurve"/>
      <point x="427" y="415"/>
      <point x="491" y="435"/>
      <point x="525" y="435" type="qcurve"/>
      <point x="597" y="435"/>
      <point x="695" y="349"/>
      <point x="709" y="277" type="qcurve"/>
      <point x="678" y="266"/>
      <point x="595" y="235"/>
      <point x="505" y="201"/>
      <point x="415" y="166"/>
      <point x="377" y="152" type="qcurve"/>
      <point x="389" y="121"/>
      <point x="446" y="83"/>
      <point x="483" y="83" type="qcurve"/>
      <point x="509" y="83"/>
      <point x="564" y="102"/>
      <point x="584" y="118" type="qcurve"/>
    </contour>
    <contour>
      <point x="262" y="342" type="qcurve"/>
      <point x="233" y="342"/>
      <point x="180" y="319"/>
      <point x="140" y="280"/>
      <point x="116" y="228"/>
      <point x="116" y="199" type="qcurve"/>
      <point x="116" y="175"/>
      <point x="133" y="132"/>
      <point x="164" y="101"/>
      <point x="206" y="83"/>
      <point x="231" y="83" type="qcurve"/>
      <point x="264" y="83"/>
      <point x="294" y="98" type="qcurve"/>
      <point x="273" y="140"/>
      <point x="273" y="190" type="qcurve"/>
      <point x="273" y="228"/>
      <point x="297" y="298"/>
      <point x="319" y="327" type="qcurve"/>
      <point x="306" y="334"/>
      <point x="278" y="342"/>
    </contour>
    <contour>
      <point x="593" y="299" type="qcurve"/>
      <point x="584" y="321"/>
      <point x="538" y="342"/>
      <point x="515" y="342" type="qcurve"/>
      <point x="487" y="342"/>
      <point x="437" y="320"/>
      <point x="398" y="284"/>
      <point x="373" y="238"/>
      <point x="371" y="213" type="qcurve"/>
      <point x="397" y="223"/>
      <point x="457" y="246"/>
      <point x="516" y="270"/>
      <point x="572" y="291"/>
    </contour>
  </outline>
</glyph>
<glyph name="racute" format="1">
  <advance width="361"/>
  <unicode hex="0155"/>
  <outline>
    <contour>
      <point x="167" y="96" type="line"/>
      <point x="164" y="83" type="line"/>
      <point x="261" y="83" type="line"/>
      <point x="251" y="0" type="line"/>
      <point x="3" y="0" type="line"/>
      <point x="13" y="83" type="line"/>
      <point x="69" y="83" type="line"/>
      <point x="71" y="99" type="line"/>
      <point x="101" y="342" type="line"/>
      <point x="44" y="342" type="line"/>
      <point x="55" y="425" type="line"/>
      <point x="196" y="425" type="line"/>
      <point x="194" y="407"/>
      <point x="193" y="379"/>
      <point x="192" y="354"/>
      <point x="191" y="330"/>
      <point x="190" y="316" type="qcurve"/>
      <point x="207" y="344"/>
      <point x="256" y="388"/>
      <point x="308" y="419"/>
      <point x="356" y="436"/>
      <point x="372" y="436" type="qcurve"/>
      <point x="335" y="312" type="line"/>
      <point x="308" y="312"/>
      <point x="254" y="298"/>
      <point x="211" y="269"/>
      <point x="181" y="226"/>
      <point x="178" y="197" type="qcurve"/>
      <point x="165" y="96" type="line"/>
    </contour>
    <contour>
      <point x="144" y="487" type="line"/>
      <point x="171" y="520"/>
      <point x="225" y="588"/>
      <point x="253" y="622" type="qcurve"/>
      <point x="356" y="622" type="line"/>
      <point x="216" y="487" type="line"/>
    </contour>
  </outline>
</glyph>
<glyph name="Scedilla" format="1">
  <advance width="580"/>
  <unicode hex="015E"/>
  <outline>
    <contour>
      <point x="17" y="60" type="line"/>
      <point x="17" y="61" type="line"/>
      <point x="34" y="198" type="line"/>
      <point x="149" y="198" type="line"/>
      <point x="141" y="132" type="line"/>
      <point x="165" y="121"/>
      <point x="212" y="112"/>
      <point x="234" y="112" type="qcurve"/>
      <point x="254" y="112"/>
      <point x="314" y="121"/>
      <point x="369" y="145"/>
      <point x="409" y="186"/>
      <point x="409" y="218" type="qcurve"/>
      <point x="409" y="250"/>
      <point x="361" y="291"/>
      <point x="290" y="325"/>
      <point x="206" y="356"/>
      <point x="135" y="400"/>
      <point x="87" y="462"/>
      <point x="87" y="510" type="qcurve"/>
      <point x="87" y="550"/>
      <point x="122" y="629"/>
      <point x="190" y="693"/>
      <point x="291" y="733"/>
      <point x="358" y="733" type="qcurve"/>
      <point x="396" y="733"/>
      <point x="467" y="720"/>
      <point x="523" y="704"/>
      <point x="560" y="689"/>
      <point x="563" y="688" type="qcurve"/>
      <point x="545" y="541" type="line"/>
      <point x="430" y="541" type="line"/>
      <point x="438" y="609" type="line"/>
      <point x="393" y="621"/>
      <point x="352" y="621" type="qcurve"/>
      <point x="288" y="621"/>
      <point x="209" y="569"/>
      <point x="209" y="529" type="qcurve"/>
      <point x="209" y="500"/>
      <point x="257" y="463"/>
      <point x="328" y="433"/>
      <point x="411" y="402"/>
      <point x="482" y="354"/>
      <point x="530" y="282"/>
      <point x="530" y="227" type="qcurve"/>
      <point x="530" y="179"/>
      <point x="498" y="97"/>
      <point x="432" y="35"/>
      <point x="330" y="-3"/>
      <point x="261" y="-7" type="qcurve"/>
      <point x="261" y="-8" type="line"/>
      <point x="259" y="-23"/>
      <point x="266" y="-39"/>
      <point x="277" y="-50"/>
      <point x="291" y="-57"/>
      <point x="297" y="-62" type="qcurve"/>
      <point x="312" y="-75"/>
      <point x="325" y="-110"/>
      <point x="325" y="-131" type="qcurve"/>
      <point x="325" y="-155"/>
      <point x="309" y="-201"/>
      <point x="276" y="-238"/>
      <point x="228" y="-261"/>
      <point x="197" y="-261" type="qcurve"/>
      <point x="162" y="-261"/>
      <point x="105" y="-222"/>
      <point x="96" y="-180" type="qcurve"/>
      <point x="154" y="-151" type="line"/>
      <point x="158" y="-166"/>
      <point x="180" y="-186"/>
      <point x="198" y="-186" type="qcurve"/>
      <point x="224" y="-186"/>
      <point x="251" y="-151"/>
      <point x="251" y="-128" type="qcurve"/>
      <point x="251" y="-111"/>
      <point x="232" y="-91"/>
      <point x="210" y="-73"/>
      <point x="193" y="-54"/>
      <point x="195" y="-39" type="qcurve"/>
      <point x="199" y="-7" type="line"/>
      <point x="162" y="-5"/>
      <point x="106" y="8"/>
      <point x="63" y="26"/>
      <point x="31" y="48"/>
      <point x="18" y="60" type="qcurve"/>
    </contour>
  </outline>
</glyph>
<glyph name="scedilla" format="1">
  <advance width="371"/>
  <unicode hex="015F"/>
  <outline>
    <contour>
      <point x="102" y="136" type="line"/>
      <point x="97" y="94" type="line"/>
      <point x="107" y="90"/>
      <point x="133" y="84"/>
      <point x="150" y="84" type="qcurve"/>
      <point x="182" y="84"/>
      <point x="219" y="109"/>
      <point x="219" y="128" type="qcurve"/>
      <point x="219" y="141"/>
      <point x="194" y="159"/>
      <point x="158" y="175"/>
      <point x="114" y="193"/>
      <point x="78" y="221"/>
      <point x="53" y="262"/>
      <point x="53" y="294" type="qcurve"/>
      <point x="53" y="333"/>
      <point x="82" y="387"/>
      <point x="128" y="420"/>
      <point x="185" y="435"/>
      <point x="213" y="435" type="qcurve"/>
      <point x="226" y="435"/>
      <point x="260" y="431"/>
      <point x="293" y="422"/>
      <point x="322" y="407"/>
      <point x="331" y="395" type="qcurve"/>
      <point x="319" y="296" type="line"/>
      <point x="237" y="296" type="line"/>
      <point x="242" y="338" type="line"/>
      <point x="234" y="340"/>
      <point x="215" y="342"/>
      <point x="204" y="342" type="qcurve"/>
      <point x="184" y="342"/>
      <point x="151" y="328"/>
      <point x="151" y="305" type="qcurve"/>
      <point x="151" y="290"/>
      <point x="175" y="269"/>
      <point x="212" y="251"/>
      <point x="254" y="232"/>
      <point x="291" y="204"/>
      <point x="315" y="165"/>
      <point x="315" y="136" type="qcurve"/>
      <point x="315" y="82"/>
      <point x="242" y="6"/>
      <point x="181" y="-5" type="qcurve"/>
      <point x="181" y="-8" type="line"/>
      <point x="179" y="-23"/>
      <point x="186" y="-39"/>
      <point x="197" y="-50"/>
      <point x="211" y="-57"/>
      <point x="217" y="-62" type="qcurve"/>
      <point x="232" y="-75"/>
      <point x="245" y="-110"/>
      <point x="245" y="-131" type="qcurve"/>
      <point x="245" y="-155"/>
      <point x="229" y="-201"/>
      <point x="196" y="-238"/>
      <point x="148" y="-261"/>
      <point x="117" y="-261" type="qcurve"/>
      <point x="82" y="-261"/>
      <point x="25" y="-222"/>
      <point x="16" y="-180" type="qcurve"/>
      <point x="74" y="-151" type="line"/>
      <point x="78" y="-166"/>
      <point x="100" y="-186"/>
      <point x="118" y="-186" type="qcurve"/>
      <point x="144" y="-186"/>
      <point x="171" y="-151"/>
      <point x="171" y="-128" type="qcurve"/>
      <point x="171" y="-111"/>
      <point x="152" y="-91"/>
      <point x="130" y="-73"/>
      <point x="113" y="-54"/>
      <point x="115" y="-39" type="qcurve"/>
      <point x="119" y="-8" type="line"/>
      <point x="88" y="-6"/>
      <point x="24" y="14"/>
      <point x="8" y="37" type="qcurve"/>
      <point x="20" y="136" type="line"/>
    </contour>
  </outline>
</glyph>
<glyph name="uni0162" format="1">
  <advance width="631"/>
  <unicode hex="0162"/>
  <outline>
    <contour>
      <point x="505" y="541" type="line"/>
      <point x="514" y="612" type="line"/>
      <point x="413" y="612" type="line"/>
      <point x="338" y="0" type="line"/>
      <point x="215" y="0" type="line"/>
      <point x="290" y="612" type="line"/>
      <point x="189" y="612" type="line"/>
      <point x="180" y="541" type="line"/>
      <point x="65" y="541" type="line"/>
      <point x="74" y="612" type="line"/>
      <point x="84" y="694" type="line"/>
      <point x="88" y="729" type="line"/>
      <point x="643" y="729" type="line"/>
      <point x="639" y="694" type="line"/>
      <point x="629" y="612" type="line"/>
      <point x="620" y="541" type="line"/>
    </contour>
    <contour>
      <point x="297" y="-21" type="line"/>
      <point x="209" y="-179" type="line"/>
      <point x="125" y="-179" type="line"/>
      <point x="138" y="-153"/>
      <point x="156" y="-117"/>
      <point x="172" y="-84"/>
      <point x="190" y="-48"/>
      <point x="203" y="-21" type="qcurve"/>
    </contour>
  </outline>
</glyph>
<glyph name="uni0163" format="1">
  <advance width="320"/>
  <unicode hex="0163"/>
  <outline>
    <contour>
      <point x="130" y="611" type="line"/>
      <point x="226" y="611" type="line"/>
      <point x="203" y="425" type="line"/>
      <point x="314" y="425" type="line"/>
      <point x="303" y="339" type="line"/>
      <point x="193" y="339" type="line"/>
      <point x="161" y="83" type="line"/>
      <point x="259" y="83" type="line"/>
      <point x="249" y="0" type="line"/>
      <point x="56" y="0" type="line"/>
      <point x="68" y="99" type="line"/>
      <point x="97" y="339" type="line"/>
      <point x="25" y="339" type="line"/>
      <point x="36" y="425" type="line"/>
      <point x="108" y="425" type="line"/>
    </contour>
    <contour>
      <point x="169" y="-21" type="line"/>
      <point x="81" y="-179" type="line"/>
      <point x="-3" y="-179" type="line"/>
      <point x="10" y="-153"/>
      <point x="28" y="-117"/>
      <point x="44" y="-84"/>
      <point x="62" y="-48"/>
      <point x="75" y="-21" type="qcurve"/>
    </contour>
  </outline>
</glyph>
<glyph name="Ubreve" format="1">
  <advance width="770"/>
  <unicode hex="016C"/>
  <outline>
    <contour>
      <point x="355" y="729" type="line"/>
      <point x="342" y="622" type="line"/>
      <point x="265" y="622" type="line"/>
      <point x="221" y="263" type="line"/>
      <point x="217" y="231"/>
      <point x="235" y="175"/>
      <point x="273" y="133"/>
      <point x="328" y="108"/>
      <point x="362" y="108" type="qcurve"/>
      <point x="396" y="108"/>
      <point x="458" y="133"/>
      <point x="506" y="175"/>
      <point x="538" y="231"/>
      <point x="542" y="263" type="qcurve"/>
      <point x="586" y="622" type="line"/>
      <point x="600" y="729" type="line"/>
      <point x="801" y="729" type="line"/>
      <point x="787" y="622" type="line"/>
      <point x="709" y="622" type="line"/>
      <point x="665" y="260" type="line"/>
      <point x="657" y="200"/>
      <point x="601" y="101"/>
      <point x="515" y="31"/>
      <point x="407" y="-8"/>
      <point x="348" y="-8" type="qcurve"/>
      <point x="289" y="-8"/>
      <point x="190" y="31"/>
      <point x="123" y="101"/>
      <point x="91" y="200"/>
      <point x="98" y="260" type="qcurve"/>
      <point x="143" y="622" type="line"/>
      <point x="59" y="622" type="line"/>
      <point x="72" y="729" type="line"/>
    </contour>
    <contour>
      <point x="449" y="769" type="qcurve"/>
      <point x="416" y="769"/>
      <point x="360" y="793"/>
      <point x="321" y="835"/>
      <point x="302" y="893"/>
      <point x="305" y="926" type="qcurve"/>
      <point x="358" y="926" type="line"/>
      <point x="354" y="880"/>
      <point x="407" y="822"/>
      <point x="455" y="822" type="qcurve"/>
      <point x="502" y="822"/>
      <point x="568" y="880"/>
      <point x="575" y="926" type="qcurve"/>
      <point x="629" y="926" type="line"/>
      <point x="625" y="893"/>
      <point x="592" y="835"/>
      <point x="543" y="793"/>
      <point x="482" y="769"/>
    </contour>
  </outline>
</glyph>
<glyph name="ubreve" format="1">
  <advance width="573"/>
  <unicode hex="016D"/>
  <outline>
    <contour>
      <point x="85" y="319" type="line"/>
      <point x="88" y="342" type="line"/>
      <point x="32" y="342" type="line"/>
      <point x="42" y="425" type="line"/>
      <point x="194" y="425" type="line"/>
      <point x="182" y="323" type="line"/>
      <point x="181" y="323" type="line"/>
      <point x="162" y="161" type="line"/>
      <point x="160" y="130"/>
      <point x="194" y="87"/>
      <point x="237" y="85" type="qcurve"/>
      <point x="266" y="85"/>
      <point x="317" y="105"/>
      <point x="356" y="141"/>
      <point x="382" y="191"/>
      <point x="385" y="220" type="qcurve"/>
      <point x="399" y="333" type="line"/>
      <point x="400" y="342" type="line"/>
      <point x="336" y="342" type="line"/>
      <point x="346" y="425" type="line"/>
      <point x="506" y="425" type="line"/>
      <point x="464" y="83" type="line"/>
      <point x="520" y="83" type="line"/>
      <point x="510" y="0" type="line"/>
      <point x="374" y="0" type="line"/>
      <point x="375" y="108" type="line"/>
      <point x="346" y="57"/>
      <point x="256" y="-10"/>
      <point x="190" y="-10" type="qcurve"/>
      <point x="124" y="-10"/>
      <point x="56" y="59"/>
      <point x="61" y="116" type="qcurve"/>
    </contour>
    <contour>
      <point x="290" y="500" type="qcurve"/>
      <point x="257" y="500"/>
      <point x="201" y="524"/>
      <point x="162" y="566"/>
      <point x="143" y="624"/>
      <point x="146" y="657" type="qcurve"/>
      <point x="199" y="657" type="line"/>
      <point x="195" y="611"/>
      <point x="248" y="553"/>
      <point x="296" y="553" type="qcurve"/>
      <point x="343" y="553"/>
      <point x="409" y="611"/>
      <point x="416" y="657" type="qcurve"/>
      <point x="470" y="657" type="line"/>
      <point x="466" y="624"/>
      <point x="433" y="566"/>
      <point x="384" y="524"/>
      <point x="323" y="500"/>
    </contour>
  </outline>
</glyph>
<glyph name="Uring" format="1">
  <advance width="770"/>
  <unicode hex="016E"/>
  <outline>
    <contour>
      <point x="355" y="729" type="line"/>
      <point x="342" y="622" type="line"/>
      <point x="265" y="622" type="line"/>
      <point x="221" y="263" type="line"/>
      <point x="217" y="231"/>
      <point x="235" y="175"/>
      <point x="273" y="133"/>
      <point x="328" y="108"/>
      <point x="362" y="108" type="qcurve"/>
      <point x="396" y="108"/>
      <point x="458" y="133"/>
      <point x="506" y="175"/>
      <point x="538" y="231"/>
      <point x="542" y="263" type="qcurve"/>
      <point x="586" y="622" type="line"/>
      <point x="600" y="729" type="line"/>
      <point x="801" y="729" type="line"/>
      <point x="787" y="622" type="line"/>
      <point x="709" y="622" type="line"/>
      <point x="665" y="260" type="line"/>
      <point x="657" y="200"/>
      <point x="601" y="101"/>
      <point x="515" y="31"/>
      <point x="407" y="-8"/>
      <point x="348" y="-8" type="qcurve"/>
      <point x="289" y="-8"/>
      <point x="190" y="31"/>
      <point x="123" y="101"/>
      <point x="91" y="200"/>
      <point x="98" y="260" type="qcurve"/>
      <point x="143" y="622" type="line"/>
      <point x="59" y="622" type="line"/>
      <point x="72" y="729" type="line"/>
    </contour>
    <contour>
      <point x="366" y="842" type="qcurve"/>
      <point x="366" y="861"/>
      <point x="383" y="896"/>
      <point x="411" y="923"/>
      <point x="447" y="939"/>
      <point x="467" y="939" type="qcurve"/>
      <point x="499" y="939"/>
      <point x="545" y="892"/>
      <point x="545" y="859" type="qcurve"/>
      <point x="545" y="840"/>
      <point x="528" y="805"/>
      <point x="500" y="778"/>
      <point x="464" y="762"/>
      <point x="445" y="762" type="qcurve"/>
      <point x="411" y="762"/>
      <point x="366" y="809"/>
    </contour>
    <contour>
      <point x="423" y="846" type="qcurve"/>
      <point x="423" y="834"/>
      <point x="438" y="817"/>
      <point x="451" y="817" type="qcurve"/>
      <point x="466" y="817"/>
      <point x="489" y="838"/>
      <point x="489" y="853" type="qcurve"/>
      <point x="489" y="867"/>
      <point x="473" y="883"/>
      <point x="460" y="883" type="qcurve"/>
      <point x="444" y="883"/>
      <point x="423" y="862"/>
    </contour>
  </outline>
</glyph>
<glyph name="uring" format="1">
  <advance width="573"/>
  <unicode hex="016F"/>
  <outline>
    <contour>
      <point x="85" y="319" type="line"/>
      <point x="88" y="342" type="line"/>
      <point x="32" y="342" type="line"/>
      <point x="42" y="425" type="line"/>
      <point x="194" y="425" type="line"/>
      <point x="182" y="323" type="line"/>
      <point x="181" y="323" type="line"/>
      <point x="162" y="161" type="line"/>
      <point x="160" y="130"/>
      <point x="194" y="87"/>
      <point x="237" y="85" type="qcurve"/>
      <point x="266" y="85"/>
      <point x="317" y="105"/>
      <point x="356" y="141"/>
      <point x="382" y="191"/>
      <point x="385" y="220" type="qcurve"/>
      <point x="399" y="333" type="line"/>
      <point x="400" y="342" type="line"/>
      <point x="336" y="342" type="line"/>
      <point x="346" y="425" type="line"/>
      <point x="506" y="425" type="line"/>
      <point x="464" y="83" type="line"/>
      <point x="520" y="83" type="line"/>
      <point x="510" y="0" type="line"/>
      <point x="374" y="0" type="line"/>
      <point x="375" y="108" type="line"/>
      <point x="346" y="57"/>
      <point x="256" y="-10"/>
      <point x="190" y="-10" type="qcurve"/>
      <point x="124" y="-10"/>
      <point x="56" y="59"/>
      <point x="61" y="116" type="qcurve"/>
    </contour>
    <contour>
      <point x="224" y="537" type="qcurve"/>
      <point x="224" y="556"/>
      <point x="241" y="591"/>
      <point x="268" y="617"/>
      <point x="304" y="633"/>
      <point x="324" y="633" type="qcurve"/>
      <point x="357" y="633"/>
      <point x="402" y="586"/>
      <point x="402" y="554" type="qcurve"/>
      <point x="402" y="534"/>
      <point x="385" y="499"/>
      <point x="357" y="473"/>
      <point x="322" y="457"/>
      <point x="303" y="457" type="qcurve"/>
      <point x="269" y="457"/>
      <point x="224" y="504"/>
    </contour>
    <contour>
      <point x="280" y="540" type="qcurve"/>
      <point x="280" y="528"/>
      <point x="296" y="511"/>
      <point x="310" y="511" type="qcurve"/>
      <point x="324" y="511"/>
      <point x="346" y="533"/>
      <point x="346" y="548" type="qcurve"/>
      <point x="346" y="561"/>
      <point x="330" y="577"/>
      <point x="318" y="577" type="qcurve"/>
      <point x="302" y="577"/>
      <point x="280" y="556"/>
    </contour>
  </outline>
</glyph>
<glyph name="uhungarumlaut" format="1">
  <advance width="573"/>
  <unicode hex="0171"/>
  <outline>
    <contour>
      <point x="85" y="319" type="line"/>
      <point x="88" y="342" type="line"/>
      <point x="32" y="342" type="line"/>
      <point x="42" y="425" type="line"/>
      <point x="194" y="425" type="line"/>
      <point x="182" y="323" type="line"/>
      <point x="181" y="323" type="line"/>
      <point x="162" y="161" type="line"/>
      <point x="160" y="130"/>
      <point x="194" y="87"/>
      <point x="237" y="85" type="qcurve"/>
      <point x="266" y="85"/>
      <point x="317" y="105"/>
      <point x="356" y="141"/>
      <point x="382" y="191"/>
      <point x="385" y="220" type="qcurve"/>
      <point x="399" y="333" type="line"/>
      <point x="400" y="342" type="line"/>
      <point x="336" y="342" type="line"/>
      <point x="346" y="425" type="line"/>
      <point x="506" y="425" type="line"/>
      <point x="464" y="83" type="line"/>
      <point x="520" y="83" type="line"/>
      <point x="510" y="0" type="line"/>
      <point x="374" y="0" type="line"/>
      <point x="375" y="108" type="line"/>
      <point x="346" y="57"/>
      <point x="256" y="-10"/>
      <point x="190" y="-10" type="qcurve"/>
      <point x="124" y="-10"/>
      <point x="56" y="59"/>
      <point x="61" y="116" type="qcurve"/>
    </contour>
    <contour>
      <point x="132" y="487" type="line"/>
      <point x="159" y="520"/>
      <point x="213" y="588"/>
      <point x="241" y="622" type="qcurve"/>
      <point x="344" y="622" type="line"/>
      <point x="204" y="487" type="line"/>
    </contour>
    <contour>
      <point x="354" y="487" type="line"/>
      <point x="380" y="520"/>
      <point x="434" y="588"/>
      <point x="462" y="622" type="qcurve"/>
      <point x="565" y="622" type="line"/>
      <point x="425" y="487" type="line"/>
    </contour>
  </outline>
</glyph>
<glyph name="zacute" format="1">
  <advance width="470"/>
  <unicode hex="017A"/>
  <outline>
    <contour>
      <point x="423" y="136" type="line"/>
      <point x="417" y="85" type="line"/>
      <point x="411" y="37" type="line"/>
      <point x="410" y="37" type="line"/>
      <point x="406" y="0" type="line"/>
      <point x="-24" y="0" type="line"/>
      <point x="256" y="343" type="line"/>
      <point x="127" y="343" type="line"/>
      <point x="92" y="343"/>
      <point x="48" y="384"/>
      <point x="51" y="416" type="qcurve"/>
      <point x="57" y="465" type="line"/>
      <point x="144" y="465" type="line"/>
      <point x="143" y="452" type="line"/>
      <point x="140" y="433"/>
      <point x="155" y="425"/>
      <point x="173" y="425" type="qcurve"/>
      <point x="442" y="425" type="line"/>
      <point x="172" y="94" type="line"/>
      <point x="336" y="94" type="line"/>
      <point x="341" y="136" type="line"/>
    </contour>
    <contour>
      <point x="215" y="487" type="line"/>
      <point x="242" y="520"/>
      <point x="296" y="588"/>
      <point x="324" y="622" type="qcurve"/>
      <point x="427" y="622" type="line"/>
      <point x="287" y="487" type="line"/>
    </contour>
  </outline>
</glyph>
<glyph name="Zdotaccent" format="1">
  <advance width="657"/>
  <unicode hex="017B"/>
  <outline>
    <contour>
      <point x="243" y="729" type="qcurve"/>
      <point x="665" y="729" type="line"/>
      <point x="195" y="118" type="line"/>
      <point x="490" y="118" type="line"/>
      <point x="500" y="198" type="line"/>
      <point x="614" y="198" type="line"/>
      <point x="604" y="118" type="line"/>
      <point x="605" y="118" type="line"/>
      <point x="596" y="47" type="line"/>
      <point x="590" y="0" type="line"/>
      <point x="-34" y="0" type="line"/>
      <point x="-27" y="9"/>
      <point x="20" y="69"/>
      <point x="86" y="156"/>
      <point x="167" y="263"/>
      <point x="250" y="373"/>
      <point x="331" y="479"/>
      <point x="397" y="565"/>
      <point x="443" y="625"/>
      <point x="451" y="633" type="qcurve"/>
      <point x="180" y="633" type="line"/>
      <point x="164" y="633"/>
      <point x="133" y="642"/>
      <point x="110" y="660"/>
      <point x="97" y="685"/>
      <point x="99" y="700" type="qcurve"/>
      <point x="107" y="765" type="line"/>
      <point x="216" y="765" type="line"/>
      <point x="215" y="752" type="line"/>
      <point x="212" y="732"/>
      <point x="226" y="729"/>
    </contour>
    <contour>
      <point x="350" y="832" type="qcurve"/>
      <point x="350" y="861"/>
      <point x="393" y="898"/>
      <point x="417" y="898" type="qcurve"/>
      <point x="437" y="898"/>
      <point x="469" y="867"/>
      <point x="469" y="844" type="qcurve"/>
      <point x="469" y="829"/>
      <point x="457" y="805"/>
      <point x="438" y="787"/>
      <point x="414" y="778"/>
      <point x="403" y="778" type="qcurve"/>
      <point x="382" y="778"/>
      <point x="350" y="807"/>
    </contour>
  </outline>
</glyph>
<glyph name="zcaron" format="1">
  <advance width="470"/>
  <unicode hex="017E"/>
  <outline>
    <contour>
      <point x="423" y="136" type="line"/>
      <point x="417" y="85" type="line"/>
      <point x="411" y="37" type="line"/>
      <point x="410" y="37" type="line"/>
      <point x="406" y="0" type="line"/>
      <point x="-24" y="0" type="line"/>
      <point x="256" y="343" type="line"/>
      <point x="127" y="343" type="line"/>
      <point x="92" y="343"/>
      <point x="48" y="384"/>
      <point x="51" y="416" type="qcurve"/>
      <point x="57" y="465" type="line"/>
      <point x="144" y="465" type="line"/>
      <point x="143" y="452" type="line"/>
      <point x="140" y="433"/>
      <point x="155" y="425"/>
      <point x="173" y="425" type="qcurve"/>
      <point x="442" y="425" type="line"/>
      <point x="172" y="94" type="line"/>
      <point x="336" y="94" type="line"/>
      <point x="341" y="136" type="line"/>
    </contour>
    <contour>
      <point x="267" y="487" type="qcurve"/>
      <point x="245" y="517"/>
      <point x="226" y="544" type="qcurve"/>
      <point x="209" y="567"/>
      <point x="175" y="617"/>
      <point x="164" y="634" type="qcurve"/>
      <point x="235" y="634" type="line"/>
      <point x="280" y="588" type="line"/>
      <point x="336" y="634" type="line"/>
      <point x="408" y="634" type="line"/>
      <point x="391" y="617"/>
      <point x="344" y="566"/>
      <point x="321" y="543" type="qcurve"/>
      <point x="295" y="516"/>
    </contour>
  </outline>
</glyph>
<glyph name="florin" format="1">
  <advance width="367"/>
  <unicode hex="0192"/>
  <outline>
    <contour>
      <point x="207" y="332" type="line"/>
      <point x="179" y="100" type="line"/>
      <point x="162" y="-35"/>
      <point x="21" y="-162"/>
      <point x="-97" y="-166" type="qcurve"/>
      <point x="-85" y="-74" type="line"/>
      <point x="-6" y="-69"/>
      <point x="72" y="21"/>
      <point x="82" y="103" type="qcurve"/>
      <point x="110" y="332" type="line"/>
      <point x="38" y="332" type="line"/>
      <point x="50" y="426" type="line"/>
      <point x="122" y="426" type="line"/>
      <point x="133" y="516" type="line"/>
      <point x="149" y="650"/>
      <point x="290" y="777"/>
      <point x="408" y="781" type="qcurve"/>
      <point x="397" y="690" type="line"/>
      <point x="317" y="685"/>
      <point x="240" y="595"/>
      <point x="229" y="512" type="qcurve"/>
      <point x="218" y="426" type="line"/>
      <point x="350" y="426" type="line"/>
      <point x="338" y="332" type="line"/>
    </contour>
  </outline>
</glyph>
<glyph name="caron" format="1">
  <advance width="450"/>
  <unicode hex="02C7"/>
  <outline>
    <contour>
      <point x="295" y="487" type="qcurve"/>
      <point x="273" y="517"/>
      <point x="254" y="544" type="qcurve"/>
      <point x="237" y="567"/>
      <point x="203" y="617"/>
      <point x="192" y="634" type="qcurve"/>
      <point x="263" y="634" type="line"/>
      <point x="308" y="588" type="line"/>
      <point x="364" y="634" type="line"/>
      <point x="436" y="634" type="line"/>
      <point x="419" y="617"/>
      <point x="372" y="566"/>
      <point x="349" y="543" type="qcurve"/>
      <point x="323" y="516"/>
    </contour>
  </outline>
</glyph>
<glyph name="breve" format="1">
  <advance width="768"/>
  <unicode hex="02D8"/>
  <outline>
    <contour>
      <point x="325" y="500" type="qcurve"/>
      <point x="292" y="500"/>
      <point x="236" y="524"/>
      <point x="197" y="566"/>
      <point x="178" y="624"/>
      <point x="181" y="657" type="qcurve"/>
      <point x="234" y="657" type="line"/>
      <point x="230" y="611"/>
      <point x="283" y="553"/>
      <point x="331" y="553" type="qcurve"/>
      <point x="378" y="553"/>
      <point x="444" y="611"/>
      <point x="451" y="657" type="qcurve"/>
      <point x="505" y="657" type="line"/>
      <point x="501" y="624"/>
      <point x="468" y="566"/>
      <point x="419" y="524"/>
      <point x="358" y="500"/>
    </contour>
  </outline>
</glyph>
<glyph name="tilde" format="1">
  <advance width="599"/>
  <unicode hex="02DC"/>
  <outline>
    <contour>
      <point x="379" y="513" type="qcurve"/>
      <point x="365" y="527"/>
      <point x="344" y="538"/>
      <point x="330" y="538" type="qcurve"/>
      <point x="323" y="538"/>
      <point x="306" y="535"/>
      <point x="290" y="525"/>
      <point x="277" y="508"/>
      <point x="274" y="494" type="qcurve"/>
      <point x="220" y="496" type="line"/>
      <point x="224" y="517"/>
      <point x="246" y="552"/>
      <point x="277" y="577"/>
      <point x="311" y="591"/>
      <point x="327" y="591" type="qcurve"/>
      <point x="352" y="591"/>
      <point x="388" y="575"/>
      <point x="403" y="559" type="qcurve"/>
      <point x="417" y="544"/>
      <point x="438" y="534"/>
      <point x="452" y="534" type="qcurve"/>
      <point x="466" y="534"/>
      <point x="502" y="550"/>
      <point x="509" y="578" type="qcurve"/>
      <point x="562" y="576" type="line"/>
      <point x="558" y="555"/>
      <point x="536" y="520"/>
      <point x="505" y="495"/>
      <point x="471" y="481"/>
      <point x="455" y="481" type="qcurve"/>
      <point x="431" y="481"/>
      <point x="394" y="498"/>
    </contour>
  </outline>
</glyph>
<glyph name="endash" format="1">
  <advance width="418"/>
  <unicode hex="2013"/>
  <outline>
    <contour>
      <point x="41" y="168" type="line"/>
      <point x="53" y="267" type="line"/>
      <point x="359" y="267" type="line"/>
      <point x="347" y="168" type="line"/>
    </contour>
  </outline>
</glyph>
<glyph name="quoteleft" format="1">
  <advance width="177"/>
  <unicode hex="2018"/>
  <outline>
    <contour>
      <point x="179" y="600" type="qcurve"/>
      <point x="165" y="592"/>
      <point x="138" y="580"/>
      <point x="124" y="574" type="qcurve"/>
      <point x="100" y="603"/>
      <point x="85" y="680"/>
      <point x="98" y="722" type="qcurve"/>
      <point x="159" y="715" type="line"/>
      <point x="148" y="680"/>
      <point x="160" y="620"/>
    </contour>
  </outline>
</glyph>
<glyph name="quotesinglbase" format="1">
  <advance width="193"/>
  <unicode hex="201A"/>
  <outline>
    <contour>
      <point x="42" y="-56" type="qcurve"/>
      <point x="30" y="-49"/>
      <point x="6" y="-36"/>
      <point x="-6" y="-30" type="qcurve"/>
      <point x="18" y="-9"/>
      <point x="45" y="52"/>
      <point x="42" y="87" type="qcurve"/>
      <point x="104" y="94" type="line"/>
      <point x="107" y="51"/>
      <point x="74" y="-27"/>
    </contour>
  </outline>
</glyph>
<glyph name="dagger" format="1">
  <advance width="351"/>
  <unicode hex="2020"/>
  <outline>
    <contour>
      <point x="88" y="-9" type="line"/>
      <point x="135" y="374" type="line"/>
      <point x="63" y="374" type="line"/>
      <point x="75" y="474" type="line"/>
      <point x="148" y="474" type="line"/>
      <point x="166" y="621" type="line"/>
      <point x="269" y="621" type="line"/>
      <point x="251" y="474" type="line"/>
      <point x="322" y="474" type="line"/>
      <point x="310" y="374" type="line"/>
      <point x="238" y="374" type="line"/>
      <point x="191" y="-9" type="line"/>
    </contour>
  </outline>
</glyph>
<glyph name="daggerdbl" format="1">
  <advance width="385"/>
  <unicode hex="2021"/>
  <outline>
    <contour>
      <point x="105" y="-9" type="line"/>
      <point x="131" y="202" type="line"/>
      <point x="32" y="202" type="line"/>
      <point x="45" y="302" type="line"/>
      <point x="143" y="302" type="line"/>
      <point x="152" y="374" type="line"/>
      <point x="80" y="374" type="line"/>
      <point x="92" y="474" type="line"/>
      <point x="164" y="474" type="line"/>
      <point x="182" y="621" type="line"/>
      <point x="285" y="621" type="line"/>
      <point x="267" y="474" type="line"/>
      <point x="339" y="474" type="line"/>
      <point x="327" y="374" type="line"/>
      <point x="255" y="374" type="line"/>
      <point x="246" y="302" type="line"/>
      <point x="346" y="302" type="line"/>
      <point x="333" y="202" type="line"/>
      <point x="234" y="202" type="line"/>
      <point x="208" y="-9" type="line"/>
    </contour>
  </outline>
</glyph>
<glyph name="bullet" format="1">
  <advance width="413"/>
  <unicode hex="2022"/>
  <outline>
    <contour>
      <point x="62" y="290" type="qcurve"/>
      <point x="62" y="323"/>
      <point x="89" y="382"/>
      <point x="134" y="426"/>
      <point x="193" y="452"/>
      <point x="225" y="452" type="qcurve"/>
      <point x="253" y="452"/>
      <point x="301" y="431"/>
      <point x="335" y="395"/>
      <point x="355" y="347"/>
      <point x="355" y="320" type="qcurve"/>
      <point x="355" y="287"/>
      <point x="328" y="229"/>
      <point x="282" y="186"/>
      <point x="222" y="161"/>
      <point x="189" y="161" type="qcurve"/>
      <point x="162" y="161"/>
      <point x="115" y="180"/>
      <point x="81" y="215"/>
      <point x="62" y="262"/>
    </contour>
  </outline>
</glyph>
<glyph name="guilsinglleft" format="1">
  <advance width="284"/>
  <unicode hex="2039"/>
  <outline>
    <contour>
      <point x="184" y="47" type="line"/>
      <point x="34" y="243" type="line"/>
      <point x="37" y="246"/>
      <point x="67" y="275"/>
      <point x="109" y="317"/>
      <point x="157" y="365"/>
      <point x="199" y="406"/>
      <point x="229" y="435"/>
      <point x="232" y="438" type="qcurve"/>
      <point x="218" y="321" type="line"/>
      <point x="214" y="318"/>
      <point x="193" y="295"/>
      <point x="171" y="270"/>
      <point x="151" y="247"/>
      <point x="147" y="243" type="qcurve"/>
      <point x="150" y="239"/>
      <point x="164" y="216"/>
      <point x="181" y="190"/>
      <point x="195" y="167"/>
      <point x="198" y="163" type="qcurve"/>
    </contour>
  </outline>
</glyph>
<glyph name="guilsinglright" format="1">
  <advance width="284"/>
  <unicode hex="203A"/>
  <outline>
    <contour>
      <point x="56" y="163" type="line"/>
      <point x="60" y="167"/>
      <point x="81" y="190"/>
      <point x="103" y="216"/>
      <point x="123" y="239"/>
      <point x="127" y="243" type="qcurve"/>
      <point x="124" y="247"/>
      <point x="110" y="270"/>
      <point x="93" y="295"/>
      <point x="79" y="318"/>
      <point x="76" y="321" type="qcurve"/>
      <point x="90" y="438" type="line"/>
      <point x="92" y="435"/>
      <point x="115" y="406"/>
      <point x="147" y="365"/>
      <point x="183" y="317"/>
      <point x="215" y="275"/>
      <point x="237" y="246"/>
      <point x="240" y="243" type="qcurve"/>
      <point x="42" y="47" type="line"/>
    </contour>
  </outline>
</glyph>
<glyph name="fraction" format="1">
  <advance width="373"/>
  <unicode hex="2044"/>
  <outline>
    <contour>
      <point x="-42" y="0" type="line"/>
      <point x="335" y="767" type="line"/>
      <point x="439" y="767" type="line"/>
      <point x="343" y="574"/>
      <point x="157" y="193"/>
      <point x="61" y="0" type="qcurve"/>
    </contour>
  </outline>
</glyph>
<glyph name="trademark" format="1">
  <advance width="587"/>
  <unicode hex="2122"/>
  <outline>
    <contour>
      <point x="312" y="768" type="line"/>
      <point x="421" y="587" type="line"/>
      <point x="422" y="589"/>
      <point x="444" y="615"/>
      <point x="477" y="653"/>
      <point x="514" y="697"/>
      <point x="547" y="736"/>
      <point x="571" y="764"/>
      <point x="574" y="768" type="qcurve"/>
      <point x="541" y="498" type="line"/>
      <point x="494" y="498" type="line"/>
      <point x="511" y="631" type="line"/>
      <point x="511" y="634"/>
      <point x="513" y="640"/>
      <point x="513" y="641" type="qcurve"/>
      <point x="510" y="636"/>
      <point x="480" y="600"/>
      <point x="445" y="558"/>
      <point x="416" y="521"/>
      <point x="413" y="517" type="qcurve"/>
      <point x="411" y="520"/>
      <point x="388" y="558"/>
      <point x="361" y="602"/>
      <point x="340" y="639"/>
      <point x="339" y="641" type="qcurve"/>
      <point x="339" y="631" type="line"/>
      <point x="323" y="498" type="line"/>
      <point x="279" y="498" type="line"/>
    </contour>
    <contour>
      <point x="265" y="757" type="line"/>
      <point x="260" y="716" type="line"/>
      <point x="196" y="716" type="line"/>
      <point x="169" y="498" type="line"/>
      <point x="127" y="498" type="line"/>
      <point x="154" y="716" type="line"/>
      <point x="91" y="716" type="line"/>
      <point x="96" y="757" type="line"/>
    </contour>
  </outline>
</glyph>
<glyph name="Omega" format="1">
  <advance width="668"/>
  <unicode hex="2126"/>
  <outline>
    <contour>
      <point x="31" y="100" type="line"/>
      <point x="146" y="100" type="line"/>
      <point x="112" y="125"/>
      <point x="64" y="213"/>
      <point x="64" y="288" type="qcurve"/>
      <point x="64" y="375"/>
      <point x="116" y="498"/>
      <point x="201" y="577"/>
      <point x="312" y="614"/>
      <point x="372" y="614" type="qcurve"/>
      <point x="441" y="614"/>
      <point x="540" y="570"/>
      <point x="600" y="492"/>
      <point x="621" y="384"/>
      <point x="611" y="320" type="qcurve"/>
      <point x="597" y="232"/>
      <point x="526" y="129"/>
      <point x="484" y="100" type="qcurve"/>
      <point x="592" y="100" type="line"/>
      <point x="580" y="0" type="line"/>
      <point x="360" y="0" type="line"/>
      <point x="366" y="48" type="line"/>
      <point x="372" y="100" type="line"/>
      <point x="403" y="113"/>
      <point x="453" y="163"/>
      <point x="487" y="227"/>
      <point x="506" y="300"/>
      <point x="508" y="337" type="qcurve"/>
      <point x="510" y="370"/>
      <point x="497" y="434"/>
      <point x="464" y="483"/>
      <point x="407" y="514"/>
      <point x="365" y="514" type="qcurve"/>
      <point x="313" y="514"/>
      <point x="242" y="473"/>
      <point x="196" y="412"/>
      <point x="173" y="342"/>
      <point x="170" y="314" type="qcurve"/>
      <point x="159" y="236"/>
      <point x="214" y="124"/>
      <point x="262" y="100" type="qcurve"/>
      <point x="256" y="52" type="line"/>
      <point x="250" y="0" type="line"/>
      <point x="19" y="0" type="line"/>
    </contour>
  </outline>
</glyph>
<glyph name="summation" format="1">
  <advance width="503"/>
  <unicode hex="2211"/>
  <outline>
    <contour>
      <point x="152" y="11" type="line"/>
      <point x="405" y="11" type="line"/>
      <point x="422" y="-89" type="line"/>
      <point x="4" y="-89" type="line"/>
      <point x="172" y="337" type="line"/>
      <point x="109" y="762" type="line"/>
      <point x="527" y="762" type="line"/>
      <point x="485" y="662" type="line"/>
      <point x="232" y="662" type="line"/>
      <point x="283" y="337" type="line"/>
    </contour>
  </outline>
</glyph>
<glyph name="notequal" format="1">
  <advance width="665"/>
  <unicode hex="2260"/>
  <outline>
    <contour>
      <point x="603" y="401" type="line"/>
      <point x="591" y="301" type="line"/>
      <point x="408" y="301" type="line"/>
      <point x="313" y="204" type="line"/>
      <point x="579" y="204" type="line"/>
      <point x="567" y="104" type="line"/>
      <point x="215" y="104" type="line"/>
      <point x="95" y="-18" type="line"/>
      <point x="42" y="34" type="line"/>
      <point x="111" y="104" type="line"/>
      <point x="53" y="104" type="line"/>
      <point x="65" y="204" type="line"/>
      <point x="210" y="204" type="line"/>
      <point x="306" y="301" type="line"/>
      <point x="77" y="301" type="line"/>
      <point x="89" y="401" type="line"/>
      <point x="404" y="401" type="line"/>
      <point x="547" y="547" type="line"/>
      <point x="598" y="494" type="line"/>
      <point x="506" y="401" type="line"/>
    </contour>
  </outline>
</glyph>
<glyph name="greaterequal" format="1">
  <advance width="554"/>
  <unicode hex="2265"/>
  <outline>
    <contour>
      <point x="87" y="358" type="line"/>
      <point x="300" y="473" type="line"/>
      <point x="114" y="588" type="line"/>
      <point x="132" y="728" type="line"/>
      <point x="236" y="665"/>
      <point x="440" y="537"/>
      <point x="544" y="473" type="qcurve"/>
      <point x="424" y="408"/>
      <point x="189" y="281"/>
      <point x="69" y="217" type="qcurve"/>
    </contour>
    <contour>
      <point x="60" y="152" type="line"/>
      <point x="426" y="152" type="line"/>
      <point x="414" y="52" type="line"/>
      <point x="48" y="52" type="line"/>
    </contour>
  </outline>
</glyph>
